<svg xmlns="http://www.w3.org/2000/svg" width="131.972" height="168.304" version="1" xmlns:xlink="http://www.w3.org/1999/xlink"><path fill="#F9F9F9" d="M40.12 12.92s-16.14-26.1-34.76-4.1c-18.6 22 20.94 45.5 20.94 45.5s-7.08 14.18 2.6 29.7c9.66 15.52 28 19.9 28 19.9s-8.17 11.92 1.47 23.4c8.46 9.66 13.76 5.87 13.76 5.87s1.24 27.6 25.56 34.4c15.3 4.84 30.13-16.18 24.03-28.47 10.63-4.67 16.9-21.26 1-33.86 6.8-8.84 3.8-19.8-5.35-17.95 9.04-12.85 5.8-28.1-3.6-42.7-9.43-14.56-28.5-21.8-35.86-17.76 4.04-12.6-1.1-19.96-13.94-23.84-12.84-3.87-19.28-4.14-23.86 9.9z"/><defs><path id="a" d="M40.12 12.92s-16.14-26.1-34.76-4.1c-18.6 22 20.94 45.5 20.94 45.5s-7.08 14.18 2.6 29.7c9.66 15.52 28 19.9 28 19.9s-8.17 11.92 1.47 23.4c8.46 9.66 13.76 5.87 13.76 5.87s1.24 27.6 25.56 34.4c15.3 4.84 30.13-16.18 24.03-28.47 10.63-4.67 16.9-21.26 1-33.86 6.8-8.84 3.8-19.8-5.35-17.95 9.04-12.85 5.8-28.1-3.6-42.7-9.43-14.56-28.5-21.8-35.86-17.76 4.04-12.6-1.1-19.96-13.94-23.84-12.84-3.87-19.28-4.14-23.86 9.9z"/></defs><clipPath id="b"><use xlink:href="#a" overflow="visible"/></clipPath><path fill="#E6E7E8" d="M108.87 167.2s-14.27-.4-20.06-16.2C83 135.2 90 128.84 90 128.84s-13.83-.28-19.74-14.55c-4.05-11.4 4.6-16.27 4.6-16.27s-13.74.4-25.54-16.7c-11.8-17.1-.88-29.32-.88-29.32s-25.2-5.84-37.36-26.4C-1.12 5.08 14.94.24 14.94.24L-24.04-3S.52 60.12.16 61.83c-.38 1.72 31.83 64.66 32.5 65.7.68 1.04 30.57 33 30.57 33l24.82 20.13 20.82-13.47z" clip-path="url(#b)"/></svg>