<svg xmlns="http://www.w3.org/2000/svg" width="161.046" height="102.866" version="1" xmlns:xlink="http://www.w3.org/1999/xlink"><path fill="#F9F9F9" d="M26.95 21.74S1.45 11.84.05 37.5C-1.4 63.14 39.36 58.6 39.36 58.6s2.58 13.88 17.8 19.73c15.2 5.84 30.6-.9 30.6-.9s.6 12.87 13.62 15.85c11.2 2.33 12.92-3.2 12.92-3.2s15.72 18.95 36.65 10.7c13.5-4.76 12.75-27.67 1.8-33.13 5.07-9.04.6-24.2-17.47-24.6.1-9.96-7.94-16.13-13.44-9.9-.48-14-10.97-23.12-25.5-28.42-14.53-5.3-31.97-.2-35.05 6.62C57.44.23 49.8-2.25 38.6 1.88 27.4 6.03 22.67 9.3 26.95 21.74z"/><defs><path id="a" d="M26.95 21.74S1.45 11.84.05 37.5C-1.4 63.14 39.36 58.6 39.36 58.6s2.58 13.88 17.8 19.73c15.2 5.84 30.6-.9 30.6-.9s.6 12.87 13.62 15.85c11.2 2.33 12.92-3.2 12.92-3.2s15.72 18.95 36.65 10.7c13.5-4.76 12.75-27.67 1.8-33.13 5.07-9.04.6-24.2-17.47-24.6.1-9.96-7.94-16.13-13.44-9.9-.48-14-10.97-23.12-25.5-28.42-14.53-5.3-31.97-.2-35.05 6.62C57.44.23 49.8-2.25 38.6 1.88 27.4 6.03 22.67 9.3 26.95 21.74z"/></defs><clipPath id="b"><use xlink:href="#a" overflow="visible"/></clipPath><path fill="#E6E7E8" d="M158.7 94.5s-10.34 7.4-22.95-.73c-12.6-8.13-11.07-16.4-11.07-16.4s-10 7.24-21.85.27c-9-5.93-5.46-14.04-5.46-14.04s-9.56 7.68-27.14 1.86c-17.57-5.83-16.37-20.38-16.37-20.38s-21.06 9.37-40.75 1.3C-6.6 38.3 2.24 26.24 2.24 26.24L-27.2 44.9s51.34 31.67 52 33.08c.66 1.42 57.38 28.88 58.42 29.25 1.03.38 39.46 7.05 39.46 7.05l28.46.98 7.57-20.76z" clip-path="url(#b)"/></svg>