<svg xmlns="http://www.w3.org/2000/svg" width="119.616" height="59.562" version="1" xmlns:xlink="http://www.w3.org/1999/xlink"><path fill="#F9F9F9" d="M15.92 24.66S-3.32 22.66.5 40.43c3.83 17.76 30.78 7.05 30.78 7.05s4.35 9 15.82 10.13c11.47 1.15 20.7-6.32 20.7-6.32s2.82 8.67 12.26 8.27c8.08-.5 8.22-4.6 8.22-4.6s14.27 10 27 .45c8.33-5.78 3.53-21.26-4.95-22.94 1.76-7.1-4.12-16.6-16.52-13.52-1.8-6.8-8.42-9.52-11-4.24C79.84 5.24 71 .98 60.1.08 49.16-.82 38.23 5.92 37.4 11.14 32.7 4.3 27.02 4 20.15 8.94c-6.87 4.92-9.48 8.03-4.23 15.72z"/><defs><path id="a" d="M15.92 24.66S-3.32 22.66.5 40.43c3.83 17.76 30.78 7.05 30.78 7.05s4.35 9 15.82 10.13c11.47 1.15 20.7-6.32 20.7-6.32s2.82 8.67 12.26 8.27c8.08-.5 8.22-4.6 8.22-4.6s14.27 10 27 .45c8.33-5.78 3.53-21.26-4.95-22.94 1.76-7.1-4.12-16.6-16.52-13.52-1.8-6.8-8.42-9.52-11-4.24C79.84 5.24 71 .98 60.1.08 49.16-.82 38.23 5.92 37.4 11.14 32.7 4.3 27.02 4 20.15 8.94c-6.87 4.92-9.48 8.03-4.23 15.72z"/></defs><clipPath id="b"><use xlink:href="#a" overflow="visible"/></clipPath><path fill="#E6E7E8" d="M119.4 49.67s-5.68 6.98-15.8 3.8c-10.13-3.2-10.62-9.12-10.62-9.12s-5.46 6.8-14.86 4.26c-7.25-2.35-6.35-8.55-6.35-8.55s-5.08 7.03-18.16 6.34c-13.06-.7-14.97-10.85-14.97-10.85s-12.6 10.32-27.55 8.5C-3.86 42.23-.1 32.35-.1 32.35l-16.6 18.23s40.95 12 41.66 12.84c.72.85 44.53 8.98 45.3 9.04.8.07 28.25-2.56 28.25-2.56l19.6-4.66 1.3-15.57z" clip-path="url(#b)"/><defs><path id="c" d="M166.57 21.74s-25.5-9.9-26.92 15.76c-1.42 25.64 39.33 21.1 39.33 21.1s2.6 13.88 17.8 19.73c15.2 5.84 30.6-.9 30.6-.9s.6 12.87 13.62 15.85c11.2 2.33 12.93-3.2 12.93-3.2s15.72 18.95 36.66 10.7c13.5-4.76 12.74-27.67 1.8-33.13 5.05-9.04.6-24.2-17.5-24.6.1-9.96-7.92-16.13-13.43-9.9-.48-14-10.97-23.12-25.5-28.42-14.53-5.3-31.97-.2-35.04 6.62-3.88-11.12-11.5-13.6-22.7-9.47C167 6.03 162.27 9.3 166.56 21.74z"/></defs><clipPath id="d"><use xlink:href="#c" overflow="visible"/></clipPath><path fill="#E6E7E8" d="M298.32 94.5s-10.34 7.4-22.96-.73c-12.6-8.13-11.07-16.4-11.07-16.4s-10 7.24-21.86.27c-9-5.93-5.46-14.04-5.46-14.04s-9.56 7.68-27.13 1.86c-17.57-5.83-16.38-20.38-16.38-20.38s-21.05 9.37-40.75 1.3c-19.7-8.07-10.88-20.14-10.88-20.14L112.4 44.9s51.36 31.67 52.02 33.1c.65 1.4 57.37 28.86 58.4 29.23 1.05.38 39.47 7.05 39.47 7.05l28.45.98 7.57-20.76z" clip-path="url(#d)"/></svg>