<?xml version="1.0" encoding="utf-8"?>
<!-- Generator: Adobe Illustrator 17.0.0, SVG Export Plug-In . SVG Version: 6.00 Build 0)  -->
<!DOCTYPE svg PUBLIC "-//W3C//DTD SVG 1.0//EN" "http://www.w3.org/TR/2001/REC-SVG-20010904/DTD/svg10.dtd">
<svg version="1.0" id="Layer_1" xmlns="http://www.w3.org/2000/svg" xmlns:xlink="http://www.w3.org/1999/xlink" x="0px" y="0px"
	 width="55.043px" height="82.28px" viewBox="0 0 55.043 82.28" enable-background="new 0 0 55.043 82.28" xml:space="preserve">
<g>
	<path fill="#116433" d="M-925.959,11.578c9.334-12.656,27.16-15.352,39.818-6.021c12.658,9.334,15.352,27.158,6.019,39.816
		c-9.333,12.66-27.157,15.35-39.815,6.02C-932.594,42.056-935.291,24.234-925.959,11.578"/>
	<path fill="#33813F" d="M-923.783,19.734c7.174-9.728,20.874-11.801,30.602-4.629c9.727,7.172,11.797,20.875,4.626,30.598
		c-7.176,9.73-20.872,11.801-30.599,4.627C-928.883,43.158-930.953,29.46-923.783,19.734"/>
	<path fill="#5A3E1D" d="M-932.972,64.146l6.443,4.748l13.842-23.268l1.102-1.711c-0.435-0.479-1.239,0.262-2.414,0.275
		c-1.215,0.012-3.064-0.361-3.064-0.361L-932.972,64.146z"/>
	<path fill="#4C3111" d="M-932.972,64.146l6.443,4.748l1.208-2.029c0,0-1.197,1.064-1.998,0.477
		c-1.115-0.824-3.166-2.41-3.527-3.338c-0.365-0.93,1.096-3.973,1.096-3.973L-932.972,64.146z"/>
	<path fill="#73583A" d="M-914.037,45.474c-1.301,0.266-1.968,1.744-1.968,1.744s-10.556,17.232-10.753,17.721
		c-0.479,1.174-0.69,2.764,1.162,0.777c0.59-0.635,3.003-4.707,3.003-4.707s9.542-15.426,9.604-15.934
		C-912.916,44.519-913.346,45.332-914.037,45.474z"/>
</g>
<g>
	<g>
		
			<rect x="-834.653" y="22.723" transform="matrix(0.9938 0.1116 -0.1116 0.9938 -0.1897 93.16)" fill="#392316" width="4.638" height="44.326"/>
		
			<rect x="-832.346" y="22.788" transform="matrix(0.994 0.1093 -0.1093 0.994 -0.0713 91.2008)" fill="#855334" width="1.18" height="44.324"/>
	</g>
	<g>
		<path fill="#FFFFFF" d="M-805.767,25.571c0.523-4.678-2.567-8.922-7.045-9.955c2.363-3.939,1.453-9.113-2.277-11.978
			c-3.987-3.062-9.688-2.334-12.788,1.603c-2.148-4.531-7.546-6.504-12.113-4.396c-4.273,1.965-6.312,6.807-4.879,11.172
			c-4.595,0.01-8.55,3.461-9.076,8.139c-0.528,4.682,2.565,8.924,7.042,9.953c-2.363,3.939-1.454,9.111,2.276,11.976
			c3.987,3.065,9.688,2.338,12.79-1.603c2.148,4.529,7.543,6.504,12.111,4.404c4.275-1.971,6.311-6.811,4.881-11.178
			C-810.252,33.698-806.295,30.247-805.767,25.571z M-830.757,30.886c-0.606-1.271-1.504-2.428-2.696-3.346
			c-1.077-0.824-2.278-1.367-3.521-1.652c0.654-1.094,1.098-2.334,1.25-3.682c0.153-1.354-0.003-2.664-0.403-3.869
			c1.276-0.006,2.569-0.266,3.802-0.836c1.367-0.629,2.5-1.555,3.37-2.662c0.603,1.27,1.499,2.428,2.692,3.346
			c1.076,0.826,2.277,1.367,3.521,1.658c-0.658,1.09-1.1,2.328-1.252,3.68c-0.15,1.348,0.008,2.66,0.404,3.867
			c-1.274,0.004-2.567,0.266-3.803,0.834C-828.759,28.856-829.893,29.782-830.757,30.886z"/>
		<g>
			<defs>
				<path id="SVGID_1_" d="M-805.767,25.571c0.523-4.678-2.567-8.922-7.045-9.955c2.363-3.939,1.453-9.113-2.277-11.978
					c-3.987-3.062-9.688-2.334-12.788,1.603c-2.148-4.531-7.546-6.504-12.113-4.396c-4.273,1.965-6.312,6.807-4.879,11.172
					c-4.595,0.01-8.55,3.461-9.076,8.139c-0.528,4.682,2.565,8.924,7.042,9.953c-2.363,3.939-1.454,9.111,2.276,11.976
					c3.987,3.065,9.688,2.338,12.79-1.603c2.148,4.529,7.543,6.504,12.111,4.404c4.275-1.971,6.311-6.811,4.881-11.178
					C-810.252,33.698-806.295,30.247-805.767,25.571z M-830.757,30.886c-0.606-1.271-1.504-2.428-2.696-3.346
					c-1.077-0.824-2.278-1.367-3.521-1.652c0.654-1.094,1.098-2.334,1.25-3.682c0.153-1.354-0.003-2.664-0.403-3.869
					c1.276-0.006,2.569-0.266,3.802-0.836c1.367-0.629,2.5-1.555,3.37-2.662c0.603,1.27,1.499,2.428,2.692,3.346
					c1.076,0.826,2.277,1.367,3.521,1.658c-0.658,1.09-1.1,2.328-1.252,3.68c-0.15,1.348,0.008,2.66,0.404,3.867
					c-1.274,0.004-2.567,0.266-3.803,0.834C-828.759,28.856-829.893,29.782-830.757,30.886z"/>
			</defs>
			<clipPath id="SVGID_2_">
				<use xlink:href="#SVGID_1_"  overflow="visible"/>
			</clipPath>
			<path clip-path="url(#SVGID_2_)" fill="#BBBDBF" d="M-848.154,37.899c0,0,4.639,5.314,9.299,4.305
				c4.658-1.01,7.174-3.051,7.338-4.562c-0.287,2.043,2.863,5.219,5.834,6.043c2.971,0.828,7.51,0.449,10.5-1.537
				c2.987-1.984-2.459,4.299-2.459,4.299s-19.296,0.226-19.447,0.258c-0.151,0.029-8.775-1.928-8.775-1.928L-848.154,37.899z"/>
		</g>
		<g>
			<path fill="#E6E7E8" d="M-824.855,3.661c0,0,5.322-2.256,8.756,0.268c3.431,2.531,4.387,7.336,1.908,10.947
				c1.613-4.402,0.664-6.928-0.395-7.85c-2.363-2.082-6.171-1.449-7.793-0.115C-824.002,8.249-827.845,5.245-824.855,3.661z"/>
			<path fill="#E6E7E8" d="M-818.469,17.716c0,0,5.448-1.941,8.725,0.789c3.275,2.725,3.745,7.943,0.71,11.799
				c2.273-4.856,1.618-7.633,0.618-8.623c-2.235-2.219-6.076-1.814-7.773-0.574C-817.888,22.345-821.547,19.118-818.469,17.716z"/>
			<path fill="#E6E7E8" d="M-832.982,29.78c0,0-6.875-1.637-11.014-0.609c-1.309,0.322-3.854,3.885-2.535,8.613
				c-0.229-5.361,1.406-7.65,4.697-8.221c3.279-0.561,5.145-0.152,6.238,1.645C-834.504,33.007-830.679,32.263-832.982,29.78z"/>
			<path fill="#E6E7E8" d="M-821.656,28.913c-2.227-0.553-4.406,0.389-5.967,1.373c0.936,0.281,1.555,0.906,1.875,1.666
				c1.726-1.027,4.5-1.508,6.676-0.764c1.332,0.451,3.132,2.666,3.214,8.029C-814.814,34.419-817.516,29.933-821.656,28.913z"/>
			<path fill="#E6E7E8" d="M-844.07,9.565c0,0,0.855-5.715,4.805-7.322c3.947-1.607,8.824-0.025,10.799,4.469
				c-3.216-4.291-6.028-4.562-7.369-4.146c-3.008,0.93-4.461,4.51-4.168,6.588C-839.711,11.233-844.279,12.938-844.07,9.565z"/>
			<g>
				<defs>
					<path id="SVGID_3_" d="M-842.397,15.351c0,0-2.313-2.377-2.954-4.172c-0.637-1.789-4.73,2.486-4.73,2.486l-3.707,5.527
						l1.596,4.076c0,0,6.385-0.074,6.584-0.102C-845.41,23.138-842.397,15.351-842.397,15.351z"/>
				</defs>
				<clipPath id="SVGID_4_">
					<use xlink:href="#SVGID_3_"  overflow="visible"/>
				</clipPath>
				<path clip-path="url(#SVGID_4_)" fill="#E6E7E8" d="M-852.396,18.71c0,0,2.481-5.219,6.727-5.609
					c4.244-0.391,8.426,1.549,9.008,6.424c-1.827-5.041-4.416-5.123-5.821-5.119c-3.148,0.018-5.575,3.014-5.903,5.092
					C-848.713,21.571-853.579,21.878-852.396,18.71z"/>
			</g>
		</g>
		<g>
			<defs>
				<path id="SVGID_5_" d="M-818.549,24.132c-0.703,6.248-6.336,10.746-12.58,10.041c-6.246-0.705-10.742-6.334-10.039-12.58
					c0.701-6.246,6.334-10.74,12.58-10.037C-822.34,12.253-817.845,17.886-818.549,24.132z"/>
			</defs>
			<use xlink:href="#SVGID_5_"  overflow="visible" fill="#BBBDBF"/>
			<clipPath id="SVGID_6_">
				<use xlink:href="#SVGID_5_"  overflow="visible"/>
			</clipPath>
			<path clip-path="url(#SVGID_6_)" fill="#BBBDBF" d="M-818.441,22.442c-0.683,6.092-6.18,10.479-12.275,9.797
				c-6.096-0.684-10.479-6.18-9.794-12.277c0.685-6.092,6.182-10.477,12.274-9.791C-822.142,10.854-817.757,16.351-818.441,22.442z"
				/>
		</g>
		<path fill="#BBBDBF" d="M-831.138,37.897c0,0,1.02-3.609-0.661-4.32c3.658-1.377,4.67-0.391,4.67-0.391l-0.088,0.779
			c0,0-1.93,0.496-2.436,1.133C-830.158,35.731-830.375,37.686-831.138,37.897z"/>
		<path fill="#BBBDBF" d="M-842.928,14.968c0,0,2.928,2.34,4.237,1.074c-0.157,3.904-1.459,4.453-1.459,4.453l-0.684-0.389
			c0,0,0.297-1.969-0.094-2.682C-841.314,16.71-843.03,15.757-842.928,14.968z"/>
		<path fill="#BBBDBF" d="M-828.474,7.847c0,0-1.025,3.607,0.652,4.322c-3.662,1.369-4.672,0.381-4.672,0.381l0.089-0.779
			c0,0,1.931-0.49,2.44-1.129C-829.458,10.013-829.238,8.058-828.474,7.847z"/>
		<path fill="#BBBDBF" d="M-816.134,15.774c0,0-3.491,1.367-3.049,3.139c-3.303-2.09-3.125-3.494-3.125-3.494l0.674-0.4
			c0,0,1.56,1.242,2.371,1.262C-818.451,16.3-816.765,15.294-816.134,15.774z"/>
		<path fill="#BBBDBF" d="M-843.996,29.171c0,0,3.568-1.158,3.23-2.949c3.173,2.283,2.914,3.67,2.914,3.67l-0.699,0.361
			c0,0-1.48-1.332-2.289-1.4C-841.652,28.784-843.396,29.686-843.996,29.171z"/>
		<path fill="#BBBDBF" d="M-816.804,30.688c0,0-2.941-2.326-4.244-1.049c0.135-3.904,1.431-4.459,1.431-4.459l0.687,0.379
			c0,0-0.283,1.973,0.109,2.682C-818.428,28.952-816.709,29.903-816.804,30.688z"/>
		<path fill="#AF1E50" d="M-819.281,24.056c-0.658,5.84-5.924,10.041-11.766,9.387c-5.844-0.658-10.046-5.922-9.389-11.767
			c0.655-5.842,5.926-10.045,11.768-9.391C-822.828,12.94-818.622,18.21-819.281,24.056z"/>
		<g>
			<defs>
				<path id="SVGID_7_" d="M-819.281,24.056c-0.658,5.84-5.924,10.041-11.766,9.387c-5.844-0.658-10.046-5.922-9.389-11.767
					c0.655-5.842,5.926-10.045,11.768-9.391C-822.828,12.94-818.622,18.21-819.281,24.056z"/>
			</defs>
			<clipPath id="SVGID_8_">
				<use xlink:href="#SVGID_7_"  overflow="visible"/>
			</clipPath>
			<path clip-path="url(#SVGID_8_)" fill="#E21665" d="M-819.18,22.472c-0.643,5.699-5.78,9.801-11.479,9.16
				c-5.7-0.639-9.802-5.779-9.16-11.482c0.641-5.697,5.779-9.799,11.479-9.158C-822.64,11.63-818.54,16.767-819.18,22.472z"/>
		</g>
		<path fill="#EC8395" d="M-832.909,14.114c-4.513,1.262-5.891,8.236-1.38,10.299c4.512,2.062,6.061-0.494,8.559-0.301
			c2.202,0.176,4.967,0.635,5.19-1.344C-820.27,20.356-823.359,11.456-832.909,14.114z"/>
	</g>
	<g>
		<path fill="#116433" d="M-834.982,57.821c0,0,4.227-11.195-7.197-15.236c-7.375-2.312-12.357-1.387-12.357-1.387
			s-0.716,12.012,5.331,16.719C-843.158,62.624-834.982,57.821-834.982,57.821z"/>
		<path fill="#1DAE59" d="M-835.322,54.171c0,0-0.123-6.836-4.455-9.172c-4.332-2.34-13.381-3.062-13.381-3.062
			s16.158,13.307,16.986,14.51C-835.344,57.649-835.322,54.171-835.322,54.171z"/>
		<g>
			<defs>
				<path id="SVGID_9_" d="M-834.982,57.821c0,0,4.227-11.195-7.197-15.236c-7.375-2.312-12.357-1.387-12.357-1.387
					s-0.716,12.012,5.331,16.719C-843.158,62.624-834.982,57.821-834.982,57.821z"/>
			</defs>
			<clipPath id="SVGID_10_">
				<use xlink:href="#SVGID_9_"  overflow="visible"/>
			</clipPath>
			<path clip-path="url(#SVGID_10_)" fill="#074A24" d="M-835.496,58.349c0,0-7.145,2.016-11.393-0.191
				c-4.247-2.209-6.484-5.174-7.926-17.395c-1.444-12.217-1.386,12.344-1.386,12.344l10.048,10.371l7.148-1.621L-835.496,58.349z"/>
		</g>
	</g>
</g>
<g>
	<g>
		<path fill="#4AAB48" d="M-781.308,121.556c6.736-24.389,31.971-38.71,56.362-31.971c24.395,6.73,38.707,31.965,31.973,56.358
			c-6.734,24.391-31.968,38.709-56.36,31.971C-773.727,171.183-788.041,145.948-781.308,121.556"/>
		<path fill="#6DBE57" d="M-773.342,132.56c5.175-18.75,24.568-29.75,43.314-24.573c18.746,5.174,29.748,24.565,24.572,43.313
			c-5.176,18.746-24.568,29.746-43.312,24.57C-767.517,170.697-778.517,151.306-773.342,132.56"/>
		<path fill="#5A3E1D" d="M-761.577,204.585l12.419,3.428l7.399-42.932l0.671-3.211c-0.929-0.469-1.713,1.115-3.466,1.801
			c-1.823,0.719-4.819,1.229-4.819,1.229L-761.577,204.585z"/>
		<path fill="#4C3111" d="M-761.577,204.585l12.419,3.428l0.646-3.748c0,0-1.186,2.285-2.729,1.863
			c-2.15-0.594-6.143-1.793-7.224-2.982c-1.08-1.182-0.64-6.602-0.64-6.602L-761.577,204.585z"/>
		<path fill="#73583A" d="M-743.879,165.626c-1.798,1.15-1.951,3.756-1.951,3.756s-5.935,31.969-5.953,32.811
			c-0.041,2.043,0.553,4.559,2.192,0.506c0.526-1.301,1.804-8.807,1.804-8.807s5.455-28.662,5.259-29.465
			C-742.744,163.55-742.918,165.017-743.879,165.626z"/>
	</g>
</g>
<g>
	<path fill="#F9F9F9" d="M-743.034,24.656c0,0-19.24-1.982-15.416,15.777c3.825,17.756,30.775,7.049,30.775,7.049
		s4.354,8.984,15.822,10.129c11.469,1.143,20.711-6.326,20.711-6.326s2.811,8.662,12.252,8.264c8.076-0.506,8.22-4.611,8.22-4.611
		s14.266,9.998,27.008,0.467c8.317-5.781,3.521-21.268-4.964-22.948c1.764-7.105-4.114-16.609-16.521-13.518
		c-1.791-6.809-8.426-9.516-11.017-4.242c-2.943-9.453-11.802-13.713-22.704-14.615c-10.9-0.9-21.844,5.84-22.668,11.062
		c-4.725-6.857-10.387-7.129-17.262-2.209C-745.67,13.855-748.28,16.972-743.034,24.656z"/>
	<g>
		<defs>
			<path id="SVGID_11_" d="M-743.034,24.656c0,0-19.24-1.982-15.416,15.777c3.825,17.756,30.775,7.049,30.775,7.049
				s4.354,8.984,15.822,10.129c11.469,1.143,20.711-6.326,20.711-6.326s2.811,8.662,12.252,8.264c8.076-0.506,8.22-4.611,8.22-4.611
				s14.266,9.998,27.008,0.467c8.317-5.781,3.521-21.268-4.964-22.948c1.764-7.105-4.114-16.609-16.521-13.518
				c-1.791-6.809-8.426-9.516-11.017-4.242c-2.943-9.453-11.802-13.713-22.704-14.615c-10.9-0.9-21.844,5.84-22.668,11.062
				c-4.725-6.857-10.387-7.129-17.262-2.209C-745.67,13.855-748.28,16.972-743.034,24.656z"/>
		</defs>
		<clipPath id="SVGID_12_">
			<use xlink:href="#SVGID_11_"  overflow="visible"/>
		</clipPath>
		<path clip-path="url(#SVGID_12_)" fill="#E6E7E8" d="M-639.562,49.668c0,0-5.674,6.98-15.798,3.791
			c-10.123-3.189-10.614-9.109-10.614-9.109s-5.462,6.799-14.854,4.26c-7.252-2.363-6.35-8.559-6.35-8.559
			s-5.086,7.026-18.162,6.338c-13.074-0.688-14.98-10.84-14.98-10.84s-12.612,10.323-27.551,8.502
			c-14.94-1.825-11.185-11.704-11.185-11.704l-16.598,18.229c0,0,40.949,12.006,41.664,12.848
			c0.715,0.842,44.532,8.973,45.312,9.035c0.777,0.066,28.238-2.564,28.238-2.564l19.592-4.654L-639.562,49.668z"/>
	</g>
</g>
<g>
	<path fill="#F9F9F9" d="M-592.387,21.74c0,0-25.496-9.893-26.914,15.756c-1.421,25.643,39.332,21.109,39.332,21.109
		s2.582,13.879,17.792,19.723c15.214,5.844,30.605-0.889,30.605-0.889s0.6,12.859,13.621,15.844
		c11.201,2.328,12.932-3.217,12.932-3.217s15.717,18.963,36.654,10.727c13.501-4.775,12.748-27.688,1.805-33.146
		c5.059-9.035,0.594-24.188-17.482-24.609c0.105-9.951-7.934-16.121-13.436-9.896c-0.481-13.992-10.972-23.11-25.5-28.414
		c-14.529-5.299-31.969-0.197-35.045,6.623c-3.881-11.121-11.5-13.605-22.712-9.467C-591.947,6.025-596.67,9.3-592.387,21.74z"/>
	<g>
		<defs>
			<path id="SVGID_13_" d="M-592.387,21.74c0,0-25.496-9.893-26.914,15.756c-1.421,25.643,39.332,21.109,39.332,21.109
				s2.582,13.879,17.792,19.723c15.214,5.844,30.605-0.889,30.605-0.889s0.6,12.859,13.621,15.844
				c11.201,2.328,12.932-3.217,12.932-3.217s15.717,18.963,36.654,10.727c13.501-4.775,12.748-27.688,1.805-33.146
				c5.059-9.035,0.594-24.188-17.482-24.609c0.105-9.951-7.934-16.121-13.436-9.896c-0.481-13.992-10.972-23.11-25.5-28.414
				c-14.529-5.299-31.969-0.197-35.045,6.623c-3.881-11.121-11.5-13.605-22.712-9.467C-591.947,6.025-596.67,9.3-592.387,21.74z"/>
		</defs>
		<clipPath id="SVGID_14_">
			<use xlink:href="#SVGID_13_"  overflow="visible"/>
		</clipPath>
		<path clip-path="url(#SVGID_14_)" fill="#E6E7E8" d="M-460.632,94.502c0,0-10.344,7.398-22.957-0.732
			c-12.613-8.129-11.07-16.387-11.07-16.387s-9.988,7.232-21.85,0.26c-9.007-5.932-5.46-14.045-5.46-14.045
			s-9.562,7.68-27.135,1.858c-17.574-5.822-16.377-20.377-16.377-20.377s-21.057,9.369-40.75,1.301
			c-19.691-8.066-10.879-20.139-10.879-20.139l-29.442,18.658c0,0,51.355,31.672,52.015,33.086
			c0.658,1.414,57.375,28.873,58.415,29.246c1.034,0.379,39.463,7.053,39.463,7.053l28.457,0.973L-460.632,94.502z"/>
	</g>
</g>
<g>
	<g>
		<g>
			<g>
				<g>
					<path fill="#FCC88A" d="M-436.44,48.658c0.321,4.289,5.304,7.027,9.034,6.926c0.358,3.844,4.055,5.268,8.234,6.279
						c4.181,1.012,5.115-5.508,8.687-10.279c3.576-4.783,7.534-2.17,9.155,0.518c1.619,2.689-1.77,7.391-2.482,13.391
						c-0.713,5.996,2.056,6.715,5.843,7.564c3.79,0.846,6.419-2.801,6.419-2.801s-0.459,2.879,5.709,4.277
						c6.162,1.402,7.351-8.234,7.351-8.234s2.491-9.084,3.327-8.883c0.836,0.203,0.746,1.857,2.957,2.801
						c2.21,0.943,2.965-2.273,3.746-1.938c0.779,0.332,0.746,1.854,0.266,3.34c-0.478,1.484-0.453,6.107,0.451,12.639
						c0.902,6.535,6.232,6.652,11.107,3.506c4.876-3.145,1.544-9.023,2.604-16.559c1.063-7.541,5.892-8.402,6.959-22.086
						c1.069-13.686-10.221-18.662-14.365-19.654c-9.065-2.172-8.541-9.17-15.973-13.726c-15.965-9.416-25.852-5.334-35.606,0.961
						c-9.751,6.289-9.774,14.275-10.972,19.604c-1.195,5.33-1.307,6.668-5.828,9.348C-434.346,38.336-436.766,44.371-436.44,48.658z
						 M-362.948,45.107c0.448-1.053,1.669-1.545,2.722-1.096c1.054,0.451,1.544,1.668,1.092,2.723
						c-0.447,1.051-1.665,1.539-2.717,1.09C-362.907,47.379-363.396,46.16-362.948,45.107z"/>
				</g>
				<g>
					<defs>
						<path id="SVGID_15_" d="M-361.439,19.465c4.145,0.992,15.435,5.969,14.365,19.654c-1.067,13.684-5.896,14.545-6.959,22.086
							c-1.06,7.535,2.272,13.414-2.604,16.559c-4.875,3.146-10.205,3.029-11.107-3.506c-0.904-6.531-0.93-11.154-0.451-12.639
							c0.48-1.486,0.514-3.008-0.266-3.34c-0.781-0.336-1.536,2.881-3.746,1.938c-2.211-0.943-2.121-2.598-2.957-2.801
							c-0.836-0.201-3.327,8.883-3.327,8.883s-1.189,9.637-7.351,8.234c-6.168-1.398-5.709-4.277-5.709-4.277
							s-2.629,3.646-6.419,2.801c-3.787-0.85-6.556-1.568-5.843-7.564c0.713-6,4.102-10.701,2.482-13.391
							c-1.621-2.688-5.579-5.301-9.155-0.518c-3.571,4.771-4.506,11.291-8.687,10.279c-4.18-1.012-7.876-2.436-8.234-6.279
							c-3.73,0.102-8.713-2.637-9.034-6.926c-0.325-4.287,2.095-10.322,6.622-13.008c4.521-2.68,4.633-4.018,5.828-9.348
							c1.197-5.328,1.221-13.314,10.972-19.604c9.755-6.295,19.642-10.377,35.606-0.961
							C-369.98,10.295-370.505,17.293-361.439,19.465z"/>
					</defs>
					<clipPath id="SVGID_16_">
						<use xlink:href="#SVGID_15_"  overflow="visible"/>
					</clipPath>
					<path clip-path="url(#SVGID_16_)" fill="#ECA45E" d="M-404.48,49.271c0,0-2.564-5.035-5.889-2.047
						c-3.322,2.984-4.908,7.666-6.074,9.92c-1.166,2.258-4.115,4.799-6.35,3.615c-2.234-1.189,3.054,5.316,3.054,5.316l7.147-3.303
						L-404.48,49.271z"/>
					<path clip-path="url(#SVGID_16_)" fill="#ECA45E" d="M-385.64,53.576c0,0-1.706,2.854-2.708,3.037
						c-0.999,0.186-4.127,9.199-5.793,11.67c-1.668,2.465-2.25,5.031-5.156,4.641c-2.904-0.395-2.512,2.133-2.512,2.133l8.105,0.25
						l3.907-9.168L-385.64,53.576z"/>
					<path clip-path="url(#SVGID_16_)" fill="#ECA45E" d="M-376.689,53.918l1.525,3.498l-2.453,11.762c0,0-4.241,8.029-6.148,7.932
						c-1.906-0.094-2.679-3.086-2.679-3.086s4.142-1.307,5.46-6.076C-379.672,63.182-377.749,55.328-376.689,53.918z"/>
					<path clip-path="url(#SVGID_16_)" fill="#ECA45E" d="M-354.568,75.496c0,0-3.381,2.584-7.256,2.061
						c-1.87-0.252-4.083-0.875-4.436-3.533c-0.705-5.32-0.982-8.512-0.634-11.131c0.349-2.619-0.042-3.863-0.808-4.236
						c-0.76-0.377-1.211,4.5-1.211,4.5l-2.596,6.477l6.051,16.928L-354.568,75.496z"/>
					<path clip-path="url(#SVGID_16_)" fill="#ECA45E" d="M-370.913,48.166c0,0-0.672,4.223-3.234,3.025
						c-2.566-1.195-3.378-2.771-3.378-2.771l0.061,1.697c0,0-6.768-3.738-3.891-15.117c-0.249,6.045,1.662,9.01,1.662,9.01
						S-375.427,50.955-370.913,48.166z"/>
					<path clip-path="url(#SVGID_16_)" fill="#ECA45E" d="M-424.587,37.539c0,0-6.304,15.279-8.966,13.836
						c-2.666-1.441-1.647,1.656-1.647,1.656l4.54,3.572l3.678-2.016C-426.981,54.588-423.404,43.644-424.587,37.539z"/>
				</g>
				<g>
					<path fill="#CB7E3D" d="M-368.065,15.869c-1.823-1.799-3.107-4.039-4.747-5.975c-1.598-1.973-3.61-3.596-5.869-4.748
						l-1.676-0.912l-1.723-0.809c-1.134-0.572-2.346-0.967-3.527-1.43c-2.405-0.789-4.882-1.398-7.41-1.586
						c-2.521-0.16-5.068,0.035-7.518,0.662c-2.452,0.608-4.8,1.58-7.039,2.758c-2.225,1.178-4.412,2.531-6.443,3.994
						c-2.023,1.49-3.828,3.268-5.229,5.326c-1.381,2.072-2.348,4.4-2.934,6.83c-0.613,2.408-0.884,4.98-1.465,7.475
						c-0.266,1.244-0.539,2.512-0.989,3.783c-0.449,1.301-1.37,2.451-2.408,3.316c-0.531,0.428-1.071,0.844-1.604,1.164
						l-0.818,0.533l-0.719,0.535l-0.721,0.525c-0.219,0.205-0.418,0.432-0.63,0.643l-0.628,0.65
						c-0.203,0.215-0.359,0.483-0.542,0.723c-1.425,1.926-2.39,4.279-2.751,6.604c-0.077,0.566-0.181,1.121-0.141,1.789l0.006,0.885
						c0.057,0.268,0.061,0.543,0.147,0.803c0.285,1.043,0.892,2.01,1.732,2.777c1.666,1.545,4.053,2.461,6.279,2.436
						c0.494-0.004,0.932,0.369,0.984,0.875c0.137,1.205,0.674,2.26,1.66,3.02c0.959,0.781,2.219,1.31,3.521,1.73
						c0.667,0.209,1.307,0.389,2.016,0.559c0.393,0.111,0.568,0.09,0.848,0.15c0.232-0.035,0.474-0.021,0.681-0.125
						c0.876-0.303,1.673-1.445,2.326-2.637c0.666-1.207,1.271-2.516,1.958-3.816c0.346-0.658,0.693-1.293,1.108-1.955
						c0.202-0.334,0.409-0.654,0.614-0.936l0.309-0.447c0.141-0.201,0.254-0.318,0.384-0.48c0.986-1.207,2.366-2.426,4.235-2.666
						c0.906-0.119,1.839,0.02,2.658,0.338c0.818,0.322,1.522,0.809,2.143,1.361c0.314,0.273,0.584,0.572,0.862,0.893l0.397,0.521
						l0.302,0.445c0.571,0.92,0.671,1.897,0.63,2.746c-0.106,1.721-0.646,3.088-1.088,4.477c-0.464,1.371-0.921,2.697-1.268,4.043
						c-0.176,0.682-0.314,1.314-0.436,1.994c-0.121,0.734-0.191,1.346-0.231,2.031c-0.06,1.311,0.1,2.594,0.728,3.4
						c0.605,0.82,1.837,1.262,3.166,1.605l1.03,0.242c0.335,0.065,0.581,0.127,0.879,0.131c0.571,0.045,1.151-0.057,1.708-0.262
						c1.104-0.4,2.201-1.271,2.929-2.195l1.838,0.752c0.007-0.051,0.008,0.008,0.017,0.059c-0.004,0.043,0.004,0.1,0.031,0.156
						c0.039,0.117,0.057,0.238,0.148,0.358c0.102,0.26,0.346,0.48,0.562,0.717c0.228,0.23,0.562,0.406,0.834,0.621
						c0.301,0.191,0.651,0.307,0.969,0.473c0.299,0.17,0.704,0.289,1.111,0.402l1.209,0.355c0.246,0.039,0.655,0.096,0.972,0.127
						l0.485-0.043l0.249-0.02l0.228-0.08l0.46-0.145l0.427-0.25c0.291-0.15,0.532-0.42,0.796-0.645
						c0.226-0.273,0.481-0.527,0.673-0.855c0.221-0.295,0.394-0.637,0.573-0.973c0.337-0.691,0.634-1.426,0.86-2.188
						c0.23-0.75,0.42-1.559,0.539-2.303l0.006-0.051l0.02-0.08c0.692-2.359,1.396-4.684,2.299-7.014
						c0.25-0.596,0.449-1.146,0.884-1.818c0.06-0.082,0.13-0.18,0.253-0.299c0.045-0.037,0.011-0.021,0.123-0.109
						c0.089-0.062,0.193-0.119,0.301-0.15c0.291-0.086,0.231-0.045,0.29-0.062c-0.05-0.008,0.499,0.049,0.292,0.037l0.058,0.023
						l0.116,0.049c0.072,0.035,0.151,0.072,0.222,0.113c0.162,0.082,0.235,0.176,0.319,0.268c0.193,0.193,0.289,0.352,0.376,0.496
						l0.241,0.397c0.285,0.463,0.615,0.848,0.952,1.086c0.165,0.145,0.507,0.285,0.752,0.436l0.242,0.082
						c0.084,0.008,0.171,0.037,0.253,0.031c0.306,0.006,0.647-0.199,1.008-0.604c0.178-0.195,0.351-0.416,0.555-0.67
						c0.107-0.127,0.209-0.258,0.375-0.414c0.056-0.065,0.191-0.162,0.307-0.234c0.023-0.031,0.23-0.119,0.371-0.139
						c0.153-0.035,0.339-0.023,0.328-0.018c0.756,0.176,1.033,0.711,1.167,1.109c0.08,0.215,0.11,0.412,0.125,0.6
						c0.03,0.199,0.023,0.375,0.018,0.553c-0.02,0.682-0.191,1.424-0.367,1.965c-0.295,1.021-0.314,2.248-0.324,3.432
						c-0.014,1.195,0.041,2.4,0.125,3.602c0.071,1.205,0.193,2.395,0.321,3.604c0.147,1.227,0.222,2.416,0.589,3.484
						c0.344,1.074,0.945,2.053,1.836,2.668c0.879,0.635,2.041,0.801,3.166,0.707c1.139-0.104,2.272-0.473,3.332-0.963
						c0.52-0.242,1.043-0.539,1.57-0.857c0.452-0.316,0.924-0.66,1.289-1.088c0.754-0.842,1.148-1.953,1.281-3.119
						c0.143-1.164,0.086-2.369,0.021-3.578c-0.152-2.416-0.346-4.875-0.093-7.334c0.082-1.211,0.45-2.43,0.704-3.617
						c0.429-1.154,0.851-2.32,1.447-3.383c1.102-2.178,2.369-4.258,3.115-6.572c0.192-0.572,0.428-1.131,0.584-1.717l0.414-1.766
						c0.131-0.59,0.295-1.176,0.397-1.77l0.228-1.811c0.361-2.41,0.531-4.832,0.214-7.244c-0.359-2.396-1.187-4.725-2.5-6.762
						c-1.307-2.047-3.06-3.789-5.056-5.17c-2.016-1.356-4.232-2.44-6.588-3.047C-363.906,18.877-366.292,17.721-368.065,15.869z
						 M-354.821,22.463c2.014,1.367,3.791,3.109,5.122,5.154c1.34,2.045,2.192,4.383,2.575,6.803
						c0.345,2.418,0.186,4.896-0.153,7.297l-0.216,1.809c-0.097,0.601-0.258,1.195-0.385,1.797l-0.405,1.789
						c-0.151,0.588-0.386,1.158-0.577,1.738c-0.734,2.342-2.002,4.463-3.076,6.627c-0.583,1.068-0.959,2.217-1.357,3.348
						c-0.226,1.188-0.556,2.32-0.615,3.547c-0.196,2.398,0.04,4.811,0.241,7.244c0.091,1.215,0.178,2.447,0.053,3.705
						c-0.113,1.242-0.534,2.549-1.394,3.549c-0.423,0.51-0.922,0.898-1.464,1.283c-0.512,0.322-1.037,0.641-1.615,0.924
						c-1.13,0.555-2.335,0.979-3.623,1.121c-1.269,0.137-2.68-0.023-3.818-0.797c-1.145-0.752-1.893-1.947-2.308-3.164
						c-0.228-0.615-0.337-1.242-0.461-1.869l-0.25-1.818c-0.153-1.207-0.305-2.438-0.4-3.658c-0.109-1.219-0.19-2.447-0.206-3.686
						c-0.004-1.244-0.038-2.48,0.305-3.82c0.184-0.617,0.261-1.078,0.277-1.609c0.006-0.248-0.017-0.506-0.082-0.649
						c-0.018-0.105-0.064-0.111-0.074-0.156c-0.01-0.022-0.022,0.006-0.022-0.004l0.001-0.016c-0.031-0.012,0.324,0.092,0.158,0.049
						l-0.029-0.006l-0.058-0.006c-0.085-0.02,0.029,0.025,0.112,0.014c0.069,0.008,0.196-0.074,0.162-0.049
						c-0.01,0.019-0.006-0.004-0.048,0.047c-0.058,0.055-0.146,0.164-0.228,0.266c-0.172,0.227-0.371,0.492-0.596,0.752
						c-0.224,0.258-0.503,0.516-0.838,0.742c-0.357,0.213-0.789,0.385-1.242,0.393c-0.221,0.014-0.439-0.027-0.648-0.059
						c-0.212-0.07-0.354-0.092-0.62-0.219c-0.282-0.156-0.517-0.232-0.834-0.459c-0.682-0.441-1.14-1.014-1.504-1.574l-0.241-0.377
						l-0.104-0.16c-0.032-0.045-0.048-0.041-0.064-0.072c-0.02-0.022-0.041-0.053-0.027-0.02c0.002,0.01,0.01,0.01,0.018,0.012
						l0.013-0.006l0.009-0.002c-0.225-0.016,0.311,0.021,0.242,0.02c-0.02-0.002-0.16,0.023,0.071-0.004
						c0.074-0.016,0.147-0.049,0.204-0.094c0.076-0.064,0.027-0.016,0.043-0.027c0.011-0.012-0.012,0.014-0.035,0.053
						c-0.227,0.35-0.465,0.947-0.666,1.484c-0.812,2.219-1.479,4.572-2.103,6.889l0.023-0.127c-0.122,0.92-0.308,1.752-0.55,2.611
						c-0.231,0.852-0.555,1.688-0.951,2.508c-0.207,0.404-0.416,0.811-0.688,1.195c-0.235,0.396-0.568,0.756-0.878,1.121
						c-0.359,0.33-0.7,0.689-1.143,0.943l-0.662,0.387c-0.24,0.09-0.487,0.168-0.732,0.25l-0.371,0.119l-0.383,0.039l-0.765,0.07
						c-0.515-0.043-0.947-0.078-1.522-0.199l-1.211-0.344c-0.396-0.111-0.799-0.219-1.25-0.441
						c-0.432-0.205-0.887-0.363-1.295-0.619c-0.397-0.289-0.818-0.514-1.186-0.869c-0.361-0.375-0.73-0.73-0.982-1.254
						c-0.15-0.229-0.24-0.512-0.321-0.801c-0.047-0.137-0.077-0.289-0.085-0.459c-0.016-0.156-0.036-0.312-0.006-0.568l1.838,0.754
						c-1.038,1.332-2.275,2.326-3.865,2.949c-0.785,0.301-1.658,0.459-2.523,0.408c-0.422-0.004-0.886-0.1-1.254-0.168l-1.072-0.25
						c-0.73-0.184-1.477-0.395-2.236-0.736c-0.75-0.336-1.533-0.85-2.104-1.59c-1.157-1.52-1.26-3.299-1.219-4.82
						c0.031-0.752,0.127-1.568,0.237-2.256c0.121-0.74,0.283-1.514,0.465-2.227c0.361-1.445,0.829-2.844,1.28-4.203
						c0.422-1.346,0.912-2.709,0.98-3.879c0.039-0.572-0.065-1.088-0.252-1.406l-0.294-0.451l-0.265-0.334
						c-0.189-0.225-0.4-0.467-0.628-0.664c-0.893-0.84-2.005-1.324-3.04-1.182c-1.047,0.105-2.046,0.883-2.859,1.869
						c-0.094,0.117-0.223,0.258-0.291,0.352l-0.311,0.441c-0.221,0.299-0.402,0.584-0.57,0.863
						c-0.355,0.549-0.712,1.176-1.038,1.795c-0.667,1.234-1.28,2.533-2.013,3.844c-0.369,0.648-0.772,1.311-1.305,1.945
						c-0.494,0.629-1.225,1.256-2.136,1.586c-0.46,0.195-0.951,0.213-1.431,0.236c-0.432-0.055-0.98-0.121-1.277-0.219
						c-0.691-0.172-1.435-0.383-2.139-0.613c-1.419-0.473-2.873-1.064-4.154-2.111c-1.312-1-2.201-2.699-2.332-4.355l0.988,0.871
						c-2.872,0.002-5.537-1.133-7.583-3.062c-1.013-0.967-1.808-2.242-2.155-3.668c-0.1-0.35-0.117-0.721-0.174-1.08l0.01-1.021
						c-0.027-0.611,0.085-1.312,0.196-2.006c0.475-2.689,1.564-5.148,3.193-7.283c0.208-0.264,0.388-0.549,0.618-0.789l0.715-0.711
						c0.241-0.234,0.473-0.482,0.725-0.701l0.826-0.588l0.831-0.584l0.792-0.494c0.567-0.324,1.04-0.686,1.502-1.043
						c0.916-0.748,1.664-1.621,2.08-2.738c0.423-1.123,0.721-2.344,1.01-3.582c0.623-2.449,0.934-4.959,1.626-7.478
						c0.657-2.494,1.721-4.928,3.208-7.059c1.51-2.123,3.424-3.926,5.528-5.408c2.124-1.465,4.308-2.752,6.605-3.912
						c2.29-1.141,4.698-2.084,7.198-2.648c2.501-0.568,5.081-0.783,7.636-0.586c2.557,0.209,5.051,0.846,7.468,1.658
						c1.184,0.48,2.396,0.885,3.534,1.469l1.727,0.824l1.672,0.926c2.264,1.18,4.283,2.834,5.873,4.834
						c1.631,1.959,2.896,4.203,4.693,6.012c1.755,1.854,4.121,3.029,6.586,3.637C-359.078,20.055-356.849,21.121-354.821,22.463z"/>
					<g>
						<path fill="#CB7E3D" d="M-427.756,55.98c-1.508-0.027-3.178-0.482-4.643-1.266c-2.637-1.404-4.253-3.605-4.438-6.025
							c-0.334-4.392,2.127-10.598,6.815-13.379c4.17-2.471,4.448-3.725,5.487-8.385l0.159-0.711
							c0.167-0.748,0.311-1.549,0.464-2.395c0.915-5.049,2.16-11.961,10.678-17.455c8.69-5.607,18.467-10.393,33.898-2.16
							c0.697,0.373,1.402,0.767,2.127,1.197c3.241,1.982,4.971,4.383,6.645,6.703c1.589,2.199,3.084,4.277,5.744,5.695
							c1.032,0.551,2.167,0.969,3.471,1.281c0.846,0.203,2.582,0.713,4.685,1.836c4.091,2.18,10.826,7.449,9.982,18.231
							c-0.639,8.182-2.602,11.816-4.332,15.019c-1.18,2.192-2.203,4.082-2.629,7.092c-0.375,2.678-0.187,5.176-0.022,7.381
							c0.297,3.928,0.553,7.32-2.76,9.457c-3.27,2.113-6.425,2.639-8.655,1.455c-1.645-0.885-2.707-2.691-3.058-5.238
							c-0.831-6.025-1.003-11.055-0.436-12.818c0.487-1.51,0.376-2.633,0.016-2.85c-0.106,0.037-0.362,0.363-0.534,0.584
							c-0.602,0.771-1.608,2.059-3.274,1.35c-1.45-0.619-1.993-1.527-2.379-2.164c-0.137-0.232-0.261-0.432-0.414-0.553
							c-0.579,0.715-1.923,4.789-2.94,8.482c-0.029,0.232-0.732,5.684-3.82,7.853c-1.164,0.82-2.515,1.063-4.013,0.721
							c-1.352-0.307-2.497-0.707-3.413-1.197c-1.612-0.855-2.236-1.838-2.475-2.541c-1.017,1.066-3.273,2.924-6.236,2.26
							c-1.478-0.33-2.689-0.627-3.685-1.158c-2.131-1.137-2.891-3.244-2.463-6.84c0.3-2.545,1.072-4.842,1.752-6.867
							c0.911-2.715,1.629-4.863,0.783-6.271c-0.636-1.045-1.553-1.945-2.521-2.463c-1.468-0.785-3.694-1.078-5.977,1.977
							c-1.172,1.564-2.078,3.363-2.876,4.953c-1.681,3.34-3.132,6.225-6.223,5.477c-1.491-0.363-3.405-0.883-4.968-1.715
							C-426.309,59.42-427.463,57.93-427.756,55.98z M-400.992,51.898c1.039,1.719,0.266,4.024-0.708,6.928
							c-0.669,1.992-1.427,4.248-1.718,6.713c-0.489,4.102,0.762,5.357,2.051,6.045c0.907,0.486,2.064,0.768,3.484,1.086
							c3.483,0.777,5.986-2.609,6.012-2.645c0.107-0.146,0.298-0.197,0.467-0.133c0.159,0.07,0.268,0.246,0.244,0.424
							c-0.008,0.059-0.159,1.457,2.189,2.709c0.853,0.455,1.933,0.834,3.215,1.127c1.27,0.289,2.407,0.088,3.38-0.598
							c2.802-1.965,3.485-7.252,3.505-7.361c2.593-9.455,3.44-9.248,3.799-9.16c0.463,0.111,0.729,0.514,1.008,0.973
							c0.351,0.584,0.796,1.328,2.013,1.846c1.028,0.438,1.618-0.182,2.341-1.109c0.408-0.525,0.834-1.072,1.405-0.83
							c0.009,0.01,0.081,0.043,0.09,0.047c1.018,0.539,0.872,2.307,0.398,3.779c-0.425,1.318-0.46,5.781,0.465,12.467
							c0.32,2.316,1.213,3.879,2.648,4.648c1.939,1.033,4.875,0.504,7.854-1.42c2.919-1.881,2.701-4.754,2.401-8.732
							c-0.171-2.246-0.363-4.787,0.025-7.553c0.443-3.146,1.548-5.191,2.715-7.355c1.695-3.137,3.616-6.693,4.241-14.705
							c0.808-10.33-5.646-15.383-9.568-17.473c-2.1-1.123-3.844-1.607-4.496-1.764c-1.37-0.328-2.566-0.771-3.656-1.351
							c-2.822-1.508-4.373-3.654-6.014-5.928c-1.627-2.262-3.312-4.596-6.412-6.492c-16.287-9.602-26.309-4.779-35.188,0.949
							c-8.23,5.31-9.395,11.754-10.33,16.935c-0.154,0.854-0.3,1.664-0.471,2.426l-0.157,0.707c-1.07,4.799-1.392,6.246-5.858,8.897
							c-4.424,2.617-6.74,8.48-6.428,12.637c0.16,2.148,1.627,4.109,4.02,5.387c1.468,0.783,3.149,1.209,4.611,1.17
							c0.205-0.002,0.384,0.152,0.402,0.357c0.175,1.873,1.18,3.228,3.154,4.287c1.484,0.789,3.335,1.295,4.779,1.646
							c2.363,0.572,3.565-1.549,5.329-5.062c0.814-1.613,1.739-3.451,2.95-5.074c2.759-3.684,5.558-2.957,6.983-2.201
							C-402.726,49.725-401.695,50.728-400.992,51.898z"/>
					</g>
				</g>
				<path fill="#CB7E3D" d="M-390.485,70.639l5.093-17.438l0.003-0.01l0.005-0.021c-0.022-0.328-0.057-0.654-0.164-0.965
					c-0.105-0.297-0.299-0.617-0.615-0.707c0.303,0.123,0.445,0.445,0.514,0.742c0.066,0.301,0.061,0.617,0.05,0.924l0.003-0.031
					l-7.02,16.746L-390.485,70.639z"/>
				<path fill="#CB7E3D" d="M-426.332,55.935c0,0,0.184-0.662,0.504-1.82c0.312-1.164,0.756-2.818,1.209-4.842
					c0.232-1.014,0.455-2.119,0.616-3.34c0.106-1.316,0.032-2.486,0.025-3.785c-0.052-2.557-0.085-5.279-0.022-7.994
					c0.11-5.434,0.687-10.863,1.74-14.811c0.521-1.969,1.138-3.559,1.657-4.633c0.252-0.537,0.475-0.947,0.642-1.219
					c0.16-0.279,0.248-0.428,0.248-0.428s-0.095,0.145-0.266,0.416c-0.18,0.262-0.421,0.666-0.7,1.193
					c-0.565,1.055-1.26,2.627-1.87,4.59c-1.236,3.928-2.059,9.381-2.407,14.852c-0.183,2.729-0.265,5.467-0.328,8.025
					c-0.044,1.26-0.041,2.564-0.171,3.584c-0.237,1.09-0.531,2.139-0.835,3.104c-0.595,1.935-1.165,3.537-1.558,4.654
					c-0.404,1.115-0.635,1.75-0.635,1.75L-426.332,55.935z"/>
				<path fill="#CB7E3D" d="M-366.797,38.707c0,0-0.319,0.619-0.879,1.709c-0.553,1.076-1.284,2.635-2.279,4.348
					c-0.483,0.852-1.078,1.742-1.748,2.479c-0.33,0.363-0.689,0.678-1.064,0.863c-0.189,0.088-0.388,0.15-0.611,0.158h-0.171
					l-0.039-0.004c0.009,0.01-0.06-0.014,0.017,0.016l-0.027-0.008l-0.121-0.023l-0.474-0.107c-1.138-0.264-2.298-0.996-3.186-1.971
					c-0.906-0.965-1.565-2.182-1.991-3.439c-0.435-1.264-0.673-2.562-0.813-3.828c-0.15-1.272-0.145-2.523,0.01-3.723
					c0.065-0.602,0.152-1.188,0.271-1.76l0.078-0.426c0.005-0.064,0.071-0.275,0.099-0.406c0.067-0.289,0.127-0.606,0.199-0.863
					c0.269-0.955,0.673-1.922,1.168-2.67c0.971-1.549,2.393-2.467,3.381-3.209c0.496-0.373,0.889-0.707,1.119-0.965
					c0.223-0.273,0.318-0.428,0.318-0.428l-0.17-0.15c0,0-0.537,0.387-1.689,0.744c-0.578,0.197-1.295,0.445-2.096,0.863
					c-0.807,0.408-1.684,1.037-2.461,1.912c-0.77,0.899-1.41,1.961-1.848,3.283c-0.104,0.305-0.176,0.582-0.268,0.881
					c-0.041,0.162-0.071,0.252-0.115,0.488l-0.088,0.492c-0.056,0.328-0.114,0.662-0.17,0.994c-0.049,0.34-0.048,0.689-0.072,1.033
					c-0.085,1.385,0.045,2.83,0.363,4.248c0.283,1.422,0.908,2.789,1.666,4.02c0.768,1.236,1.65,2.359,2.607,3.385
					c0.971,1.01,2.002,1.939,3.283,2.631l0.435,0.221l0.109,0.057l0.026,0.012l0.079,0.027l0.075,0.02l0.3,0.092
					c0.407,0.098,0.855,0.111,1.265,0.022c0.828-0.164,1.48-0.609,1.994-1.062c1.017-0.951,1.58-2.035,2.065-3.008
					c0.907-1.984,1.282-3.723,1.487-4.945c0.199-1.223,0.188-1.945,0.188-1.945L-366.797,38.707z"/>
				<path fill="#CB7E3D" d="M-374.251,57.193c0,0-0.126-0.152-0.278-0.381c-0.164-0.223-0.386-0.586-0.65-1.033
					c-0.141-0.219-0.255-0.473-0.392-0.742c-0.128-0.268-0.288-0.543-0.409-0.846c-0.221-0.609-0.549-1.244-0.703-1.928
					c-0.094-0.34-0.189-0.68-0.284-1.012c-0.114-0.334-0.124-0.678-0.188-1.006c-0.053-0.326-0.1-0.645-0.146-0.949
					c-0.065-0.301-0.065-0.59-0.066-0.855c-0.018-1.082-0.029-1.797-0.029-1.797s-0.096,0.717-0.234,1.789
					c-0.039,0.271-0.08,0.566-0.062,0.881c0.002,0.311,0.002,0.643,0.006,0.986c0.016,0.34-0.023,0.701,0.041,1.061
					c0.043,0.359,0.092,0.725,0.137,1.09c0.059,0.742,0.299,1.442,0.435,2.131c0.087,0.336,0.208,0.652,0.302,0.957
					c0.104,0.305,0.188,0.6,0.303,0.857c0.213,0.52,0.398,0.957,0.563,1.271c0.157,0.315,0.241,0.457,0.241,0.457L-374.251,57.193z"
					/>
			</g>
			<g opacity="0.5">
				<path fill="#FCD29A" d="M-367.661,25.883c2.905,2.479-0.147,8.516-3.155,9.805c-3.012,1.297-0.749,6.152-3.086,8.232
					c-2.336,2.078-3.727-0.67-4.303-4.961c-0.577-4.295-0.58-5.73,1.098-8.705C-375.431,27.283-370.066,23.834-367.661,25.883z"/>
				<path fill="#FCD29A" d="M-414.092,13.836c0.002,0,0.002,0.002,0.002,0.002c5.133-6.117,14.191-9.75,20.097-8.863
					c7.225,1.08,15.931,4.211,17.806,8.101c2.02,4.199-1.629,5.709-1.629,5.709s-7.193,4.775-7.42,13.592
					c-0.226,8.818-1.664,10.354-6.315,11.908c-4.648,1.551-9.826,2.877-15.891-3.086c-1.482-1.463-3.023-3.061-4.457-4.768
					c-0.062,0.152-0.127,0.289-0.19,0.408c0,0-3.123-4.693-4.4,3.111c-1.281,7.809-3.06,15.656-5.098,14.99
					c-2.034-0.664-1.655-3.238-0.578-11.656C-421.086,34.867-420.83,21.168-414.092,13.836z"/>
				<path fill="#FCD29A" d="M-349.837,44.635c0,0,2.942-7.234-0.316-14.154c-3.257-6.928-8.755-9.267-10.958-9.391
					c-2.203-0.115-2.123,2.58,1.592,3.961c3.715,1.377,8.487,10.023,8.865,18.738C-350.603,44.99-351.763,49.873-349.837,44.635z"/>
				<path fill="#FCD29A" d="M-393.606,53.09c-0.56,3.217-4.067,9.176-5.268,12.355c-1.2,3.176-2.881,2.07-2.05-1.684
					c0.835-3.756,2.665-6.971,2.902-9.328C-397.785,52.074-392.761,48.223-393.606,53.09z"/>
				<path fill="#FCD29A" d="M-427.232,36.676c0,0-3.938,1.473-5.395,4.082c-1.453,2.604-2.656,8.393-0.285,4.949
					c2.375-3.447,2.72-4.527,5.617-5.6C-426.196,39.654-425.779,36.004-427.232,36.676z"/>
			</g>
		</g>
		<g>
			<path fill="#CB7E3D" d="M-360.382,44.014c-0.091-0.016-0.219-0.086-0.394-0.064c-0.174-0.016-0.381,0.037-0.594,0.117
				c-0.215,0.096-0.418,0.246-0.61,0.42c-0.075,0.104-0.188,0.186-0.249,0.285c-0.058,0.104-0.143,0.156-0.22,0.344
				c-0.142,0.252-0.189,0.527-0.221,0.826c-0.015,0.303,0.063,0.615,0.21,0.912c0.174,0.283,0.358,0.529,0.697,0.76
				c0.316,0.176,0.698,0.285,1.074,0.221c0.371-0.082,0.699-0.289,0.904-0.566c0.091-0.156,0.166-0.234,0.23-0.418l0.1-0.258
				c-0.002-0.02,0.023-0.133,0.035-0.189c0.084-0.277,0.066-0.545,0.084-0.805c-0.015-0.256-0.05-0.508-0.133-0.727
				c-0.094-0.211-0.199-0.395-0.329-0.506c-0.104-0.139-0.251-0.187-0.323-0.242c-0.084-0.045-0.126-0.074-0.126-0.074
				S-360.291,44.039-360.382,44.014z M-360.078,44.045c0.085,0.047,0.217,0.086,0.368,0.197c0.161,0.104,0.345,0.236,0.546,0.428
				c0.183,0.199,0.373,0.465,0.492,0.805c0.092,0.34,0.113,0.752-0.035,1.141c-0.047,0.107-0.055,0.168-0.131,0.313l-0.17,0.223
				c-0.096,0.141-0.307,0.326-0.463,0.451c-0.72,0.467-1.576,0.662-2.473,0.441c-0.4-0.117-0.861-0.395-1.143-0.777
				c-0.268-0.389-0.433-0.848-0.465-1.312c-0.006-0.451,0.09-0.924,0.328-1.268c0.07-0.135,0.23-0.326,0.381-0.473
				c0.152-0.154,0.318-0.234,0.473-0.33c0.336-0.145,0.658-0.186,0.932-0.188c0.278,0.014,0.5,0.051,0.685,0.098
				c0.181,0.029,0.31,0.104,0.405,0.127c0.088,0.035,0.141,0.055,0.141,0.055S-360.16,43.998-360.078,44.045z"/>
		</g>
	</g>
</g>
<g>
	<g>
		<path fill="#FCC88A" d="M-307.211,6.973c-4.055,1.98-4.36,5.644-3.249,9.605c1.106,3.967-0.644,6.297-3.139,6.924
			c-7.396,0.775-9.314,0.916-10.835,4.004c-1.52,3.082,0.773,2.395,1.068,4.512c0.293,2.121-2.215,2.404-2.248,4.521
			c-0.037,2.121,2.341,1.906,2.792,3.068c0.452,1.164-1.323,1.58,0.104,3.975c1.428,2.393,7.924,3.322,9.306,3.111
			c1.388-0.211,2.081,0.473,1.276,1.777c-0.801,1.299-0.069,4.24,2.886,9.5c2.963,5.258,4.544,7.922,6.217,8.256
			c1.675,0.336,3.106,1.152,0.675,3.145c-3.221,3.639-2.631,7.877-1.557,9.586c1.074,1.705,2.871,0.402,4.499,4.086
			c1.626,3.689,4.612,3.68,8.493,4.422c3.886,0.738,6.652-4.055,7.125-5.359c0.475-1.307,1.234-2.057,3.158-0.629
			c2.965,2.455,7.349,2.578,9.654,0.652c2.299-1.922-0.092-4.896,1.49-6.568c7.312-7.73,8.531-21.174,6.467-34.439
			c-2.061-13.262-18.15-19.779-21.324-19.496c-3.174,0.283-3.781-1.49-2.359-2.248c1.429-0.758,4.406-2.342,4.015-8.09
			c-0.393-5.748-5.757-9.9-13.276-10.289C-303.494,0.609-307.129,3.779-307.211,6.973z M-295.858,7.361
			c1.045-0.555,2.352-0.156,2.908,0.891c0.559,1.053,0.159,2.354-0.893,2.914c-1.047,0.555-2.352,0.158-2.91-0.891
			C-297.309,9.223-296.91,7.92-295.858,7.361z"/>
	</g>
	<g>
		<defs>
			<path id="SVGID_17_" d="M-307.211,6.973c-4.055,1.98-4.36,5.644-3.249,9.605c1.106,3.967-0.644,6.297-3.139,6.924
				c-7.396,0.775-9.314,0.916-10.835,4.004c-1.52,3.082,0.773,2.395,1.068,4.512c0.293,2.121-2.215,2.404-2.248,4.521
				c-0.037,2.121,2.341,1.906,2.792,3.068c0.452,1.164-1.323,1.58,0.104,3.975c1.428,2.393,7.924,3.322,9.306,3.111
				c1.388-0.211,2.081,0.473,1.276,1.777c-0.801,1.299-0.069,4.24,2.886,9.5c2.963,5.258,4.544,7.922,6.217,8.256
				c1.675,0.336,3.106,1.152,0.675,3.145c-3.221,3.639-2.631,7.877-1.557,9.586c1.074,1.705,2.871,0.402,4.499,4.086
				c1.626,3.689,4.612,3.68,8.493,4.422c3.886,0.738,6.652-4.055,7.125-5.359c0.475-1.307,1.234-2.057,3.158-0.629
				c2.965,2.455,7.349,2.578,9.654,0.652c2.299-1.922-0.092-4.896,1.49-6.568c7.312-7.73,8.531-21.174,6.467-34.439
				c-2.061-13.262-18.15-19.779-21.324-19.496c-3.174,0.283-3.781-1.49-2.359-2.248c1.429-0.758,4.406-2.342,4.015-8.09
				c-0.393-5.748-5.757-9.9-13.276-10.289C-303.494,0.609-307.129,3.779-307.211,6.973z M-295.858,7.361
				c1.045-0.555,2.352-0.156,2.908,0.891c0.559,1.053,0.159,2.354-0.893,2.914c-1.047,0.555-2.352,0.158-2.91-0.891
				C-297.309,9.223-296.91,7.92-295.858,7.361z"/>
		</defs>
		<clipPath id="SVGID_18_">
			<use xlink:href="#SVGID_17_"  overflow="visible"/>
		</clipPath>
		<path clip-path="url(#SVGID_18_)" fill="#ECA45E" d="M-271.162,75.863c0,0-5.724,1.348-11.928-10.645
			c-6.203-11.992-8.632-20.92-9.5-29.682c-0.869-8.762,0.879-13.314,5.168-15.32c4.287-2,5.967,1.188,3.321,1.4
			c-2.646,0.211-4.167,0.65-5.482,3.182c-1.317,2.527-1.847,6.104-0.37,15.455c1.48,9.35,4.439,16.697,8.662,24.646
			C-277.071,72.852-271.162,75.863-271.162,75.863z"/>
		<path clip-path="url(#SVGID_18_)" fill="#ECA45E" d="M-303.342,11.01c0,0-1.988-0.643-3.201-1.465
			c-1.211-0.822-2.978,0.859-3.314,5.127c-0.336,4.262-1.215-3.852-1.215-3.852l3.077-3.078l1.286-0.516L-303.342,11.01z"/>
		<path clip-path="url(#SVGID_18_)" fill="#ECA45E" d="M-311.748,48.121c0,0,1.037-1.27,1.6-1.57c0.564-0.297,2.162-1.977-1.5-2.189
			c-3.657-0.223-7.33-0.986-8.158-1.709c-0.828-0.719,0.557-2.289-0.397-3.668c-0.952-1.375-2.654-1.244-2.841-2.424
			c-0.183-1.174,1.51-1.854,1.469-3.494c-0.042-1.635-0.888-2.297-2.194-2.875c0.711,2.281,0.601,2.93-0.516,4.002
			c-1.107,1.068-2.652,2.443-0.844,3.865c1.809,1.42,2.279,2.416,2.279,2.416s-0.966,2.144,0.006,3.344
			c0.973,1.203,5.252,3.42,7.781,3.07C-312.535,46.547-311.321,46.951-311.748,48.121z"/>
		<path clip-path="url(#SVGID_18_)" fill="#ECA45E" d="M-302.563,66.34c0,0,1.288,0.146,2.27-0.043
			c0.977-0.188,3.754,0.5,0.965,3.227c-2.787,2.729-4.293,5.521-2.975,7.232c1.323,1.703,2.66,1.412,3.578,2.668
			c0.919,1.258,0.46,5.404,4.516,7.406c4.055,2-7.809-1.084-8.007-1.314c-0.201-0.227-5.613-6.658-5.925-7.242
			c-0.309-0.58,0.144-4.891-0.033-5.379C-308.348,72.404-302.563,66.34-302.563,66.34z"/>
		<path clip-path="url(#SVGID_18_)" fill="#ECA45E" d="M-276.721,83.299c0,0-2.383-1.668-3.671-3.254
			c-1.287-1.59-2.256-1.74-2.956,0.904c-0.7,2.643,2.744,2.033,2.744,2.033L-276.721,83.299z"/>
		<path clip-path="url(#SVGID_18_)" fill="#ECA45E" d="M-308.737,10.51c0,0-1.689,1.678,1.471,7.787
			c2.135,4.127-5.082,6.545-8.458,5.35c-3.378-1.197,0.551-6.939,0.551-6.939l1.163-5.156L-308.737,10.51z"/>
	</g>
	<path fill="#CB7E3D" d="M-265.553,69.664c1.01-2.146,1.777-4.408,2.277-6.729c0.505-2.322,0.816-4.676,0.959-7.045
		c0.115-2.365,0.111-4.744-0.029-7.107c-0.168-2.369-0.395-4.719-0.777-7.068c-0.43-2.309-1.056-4.604-2.291-6.619
		c-1.181-2.016-2.623-3.896-4.364-5.473c-1.718-1.592-3.618-2.988-5.639-4.178c-2.02-1.174-4.173-2.176-6.39-2.824l-0.83-0.223
		c-0.274-0.062-0.521-0.094-0.783-0.144c-0.234-0.07-0.57-0.037-0.858-0.055c-0.028-0.01-0.282,0.016-0.409,0.02
		c-0.161,0.02-0.322,0.014-0.484,0.008c-0.649-0.012-1.334-0.092-2.018-0.477c-0.331-0.213-0.684-0.545-0.815-1.049
		c-0.14-0.514,0.068-1.062,0.361-1.377c0.137-0.164,0.38-0.355,0.473-0.404l0.095-0.062l0.138-0.078l0.184-0.107
		c0.258-0.133,0.483-0.287,0.709-0.439c0.441-0.312,0.861-0.652,1.178-1.074c0.377-0.375,0.584-0.887,0.846-1.34l0.254-0.764
		c0.041-0.127,0.09-0.252,0.127-0.379l0.055-0.395c0.066-0.529,0.201-1.019,0.153-1.644l-0.009-0.891l-0.01-0.443
		c-0.01-0.029-0.035-0.242-0.052-0.355c-0.134-1.084-0.458-2.143-1-3.086c-1.06-1.904-2.819-3.389-4.837-4.328
		c-0.997-0.494-2.08-0.822-3.17-1.092c-1.113-0.272-2.152-0.391-3.379-0.475c-2.225-0.102-4.565,0.086-6.576,0.863
		c-1.994,0.748-3.66,2.34-3.685,4.166c-0.011,0.357-0.194,0.695-0.526,0.889l-0.068,0.037c-0.312,0.178-0.648,0.34-0.93,0.553
		c-0.303,0.188-0.558,0.422-0.805,0.658c-0.248,0.246-0.452,0.508-0.645,0.785c-0.178,0.283-0.326,0.584-0.457,0.894
		c-0.107,0.32-0.197,0.652-0.263,0.998c-0.048,0.344-0.086,0.703-0.089,1.062c-0.008,0.723,0.083,1.483,0.23,2.221
		c0.068,0.354,0.166,0.748,0.277,1.152l0.271,1.32c0.113,0.439,0.068,0.945,0.102,1.414c0.049,0.469-0.107,0.975-0.164,1.455
		c-0.104,0.488-0.326,0.967-0.525,1.426c-0.305,0.424-0.539,0.906-0.953,1.231c-0.191,0.174-0.381,0.359-0.58,0.519l-0.66,0.393
		c-0.432,0.287-0.93,0.373-1.398,0.555c-0.027,0.014-0.053,0.016-0.082,0.022l-0.071,0.008c-1.446,0.146-2.89,0.295-4.311,0.475
		c-1.378,0.211-2.841,0.381-3.872,0.92c-0.266,0.129-0.455,0.314-0.701,0.463c-0.192,0.174-0.332,0.377-0.527,0.557
		c-0.182,0.273-0.367,0.615-0.549,0.918c-0.088,0.16-0.27,0.553-0.34,0.779c-0.088,0.262-0.123,0.506-0.101,0.561
		c0.005,0.045,0.023,0.096,0.274,0.346c0.232,0.232,0.614,0.59,0.877,1.068c0.131,0.203,0.256,0.557,0.314,0.799l0.059,0.267
		c0.045,0.221,0.029,0.283,0.044,0.436c0.032,0.512-0.077,1.113-0.341,1.58c-0.251,0.473-0.566,0.81-0.84,1.094
		c-0.572,0.555-0.941,0.951-1.048,1.311c-0.125,0.517-0.073,0.844,0.149,1.08c0.254,0.301,0.885,0.48,1.728,1.061
		c0.114,0.1,0.208,0.168,0.335,0.303c0.117,0.137,0.294,0.387,0.299,0.426l0.059,0.123l0.055,0.117l0.008,0.027l0.018,0.062
		l0.029,0.125c0.035,0.174,0.061,0.348,0.078,0.516c-0.041,0.701-0.334,1.16-0.414,1.385c-0.076,0.148-0.064,0.219-0.111,0.33
		c-0.009,0.096,0,0.191-0.016,0.289c0.066,0.186,0.021,0.332,0.235,0.725c0.339,1.008,1.59,1.596,2.853,2.094
		c1.283,0.471,2.67,0.795,4.049,0.98c0.347,0.039,0.688,0.076,1.021,0.094c0.165,0.004,0.268,0.014,0.439,0.008l0.58-0.039
		c0.441-0.017,1.004-0.008,1.581,0.432c0.284,0.197,0.499,0.621,0.532,0.945c0.055,0.35-0.007,0.654-0.106,0.939
		c-0.048,0.168-0.094,0.238-0.134,0.318l-0.127,0.24l-0.034,0.064l-0.036,0.07l-0.004,0.014l-0.008,0.022l-0.027,0.072l-0.062,0.152
		c-0.068,0.078-0.043,0.256-0.071,0.377c-0.016,0.137-0.046,0.271-0.017,0.436c0.025,0.609,0.179,1.285,0.383,1.947
		c0.393,1.326,1.02,2.627,1.626,3.904c0.671,1.297,1.345,2.559,2.06,3.834c0.717,1.258,1.416,2.537,2.213,3.707
		c0.395,0.588,0.812,1.162,1.283,1.625c0.115,0.137,0.229,0.23,0.338,0.299c0.115,0.078,0.19,0.184,0.336,0.256l0.509,0.201
		l0.03,0.014l0.016,0.006c-0.025-0.01,0.087,0.025-0.059-0.016l0.072,0.014l0.143,0.037l0.285,0.072
		c0.377,0.115,0.764,0.242,1.143,0.504c0.189,0.125,0.38,0.301,0.524,0.541c0.145,0.24,0.211,0.555,0.168,0.82
		c-0.088,0.541-0.36,0.9-0.619,1.205c-0.27,0.307-0.562,0.561-0.858,0.803l0.051-0.047c-0.34,0.457-0.707,0.904-1.039,1.377
		c-0.245,0.516-0.582,0.998-0.762,1.545c-0.408,1.074-0.6,2.227-0.559,3.381c0.058,0.562,0.102,1.164,0.28,1.674l0.111,0.396
		l0.195,0.408c0.064,0.115,0.137,0.314,0.189,0.365l0.244,0.303c0.356,0.379,0.872,0.566,1.462,0.805
		c0.279,0.125,0.576,0.287,0.84,0.463c0.237,0.217,0.52,0.387,0.715,0.652c0.192,0.256,0.406,0.508,0.572,0.771l0.418,0.803
		c0.295,0.572,0.541,1.051,0.843,1.562c0.672,0.953,1.636,1.645,2.739,2.064c1.103,0.418,2.301,0.596,3.48,0.824
		c1.187,0.209,2.364,0.539,3.495,0.131c1.121-0.359,2.097-1.109,2.896-1.988c0.807-0.875,1.487-1.889,1.973-2.967
		c0.229-0.543,0.461-1.184,1.044-1.475c0.604-0.283,1.243,0.045,1.749,0.33c0.507,0.324,1,0.678,1.49,1.018
		c0.502,0.312,1.061,0.557,1.611,0.781c1.139,0.379,2.338,0.586,3.539,0.492c1.178-0.129,2.392-0.402,3.346-1.172
		c0.485-0.346,0.869-0.844,1.051-1.414c0.184-0.572,0.184-1.184,0.141-1.781c-0.04-0.604-0.131-1.197-0.121-1.801
		c0.006-0.598,0.159-1.225,0.586-1.662C-267.872,73.818-266.567,71.801-265.553,69.664z M-270.073,77.223
		c-0.004,0.6,0.088,1.197,0.132,1.797c0.046,0.6,0.052,1.215-0.134,1.795c-0.18,0.578-0.566,1.082-1.059,1.432
		c-0.941,0.775-2.178,1.068-3.361,1.205c-1.205,0.094-2.417-0.109-3.565-0.484c-0.555-0.227-1.119-0.465-1.631-0.783
		c-0.502-0.342-0.991-0.684-1.496-1.012c-0.502-0.277-1.116-0.561-1.648-0.297c-0.524,0.27-0.744,0.867-0.963,1.418
		c-0.482,1.119-1.152,2.141-1.961,3.049c-0.801,0.912-1.787,1.689-2.962,2.094c-0.587,0.18-1.214,0.287-1.833,0.209
		c-0.621-0.055-1.195-0.191-1.795-0.281c-1.186-0.201-2.385-0.373-3.554-0.771c-1.157-0.414-2.235-1.131-2.985-2.145
		c-0.32-0.516-0.641-1.102-0.914-1.592l-0.432-0.791c-0.163-0.24-0.351-0.438-0.52-0.658c-0.169-0.223-0.424-0.363-0.626-0.551
		c-0.24-0.143-0.48-0.273-0.754-0.385c-0.517-0.197-1.19-0.408-1.678-0.9l-0.332-0.393c-0.134-0.184-0.156-0.281-0.24-0.428
		l-0.205-0.396l-0.152-0.467c-0.23-0.623-0.285-1.244-0.365-1.865c-0.079-1.254,0.104-2.521,0.52-3.707
		c0.185-0.605,0.53-1.139,0.789-1.709c0.346-0.523,0.734-1.025,1.101-1.533c0.008-0.012,0.019-0.024,0.028-0.031l0.022-0.018
		c0.515-0.422,1.049-1.004,1.097-1.41c0.098-0.287-0.502-0.641-1.152-0.787l-0.246-0.055l-0.121-0.031l-0.063-0.01l-0.109-0.033
		l-0.03-0.012l-0.517-0.186c-0.339-0.201-0.815-0.486-1.052-0.76c-0.578-0.549-1.031-1.148-1.468-1.76
		c-0.872-1.213-1.6-2.482-2.354-3.738c-0.742-1.244-1.475-2.533-2.176-3.805c-0.668-1.338-1.353-2.652-1.826-4.113
		c-0.242-0.721-0.449-1.473-0.504-2.312c-0.035-0.199-0.016-0.426,0.012-0.656c0.037-0.227,0.004-0.438,0.117-0.684l0.139-0.357
		l0.079-0.18l0.017-0.039l0.013-0.025c0.009-0.02-0.061,0.109-0.027,0.045l0.032-0.064l0.116-0.238
		c0.048-0.09,0.09-0.176,0.069-0.188c0-0.033,0.006-0.061,0.019-0.088c0.005-0.027-0.017-0.029-0.005-0.047
		c0.018-0.029-0.016,0.01,0.002,0.014c0.025,0.006,0.005,0.018,0.005,0.018c0.007-0.008-0.215-0.088-0.485-0.047l-0.514,0.047
		c-0.189,0.016-0.453,0.018-0.653,0.016c-0.393-0.012-0.774-0.045-1.155-0.082c-1.507-0.17-2.983-0.471-4.451-0.955
		c-0.729-0.262-1.457-0.566-2.169-0.998l-0.528-0.363l-0.498-0.461c-0.159-0.174-0.309-0.377-0.453-0.57l-0.026-0.041l-0.058-0.111
		l-0.029-0.057l-0.06-0.127l-0.121-0.244c-0.161-0.246-0.342-0.82-0.428-1.348c-0.001-0.264-0.006-0.535,0.026-0.795
		c0.062-0.236,0.13-0.535,0.214-0.715c0.197-0.438,0.252-0.643,0.264-0.676c-0.02-0.01-0.029-0.012-0.024-0.019l0.007-0.01
		l0.004-0.004l0,0c0.09,0.19,0.021,0.039,0.037,0.082l-0.064-0.121c-0.062-0.135-0.032-0.006-0.02-0.014
		c0,0-0.053-0.039-0.072-0.062c-0.334-0.275-1.186-0.479-1.967-1.23c-0.858-0.809-0.931-2.146-0.665-3.01
		c0.315-1.057,1.064-1.697,1.503-2.166c0.477-0.514,0.621-0.762,0.584-1.16c-0.004-0.029-0.006-0.15-0.005-0.105l-0.058-0.27
		c-0.049-0.104-0.041-0.098-0.103-0.201c-0.093-0.164-0.242-0.32-0.533-0.592c-0.266-0.246-0.764-0.771-0.873-1.463
		c-0.117-0.67,0.031-1.16,0.158-1.59c0.153-0.457,0.271-0.74,0.529-1.221c0.188-0.316,0.349-0.621,0.562-0.951
		c0.3-0.359,0.598-0.746,0.94-1.055c0.366-0.252,0.728-0.559,1.116-0.748c1.59-0.797,3.092-0.91,4.566-1.162
		c1.471-0.191,2.922-0.35,4.373-0.508l-0.152,0.031c0.289-0.135,0.637-0.174,0.89-0.367l0.405-0.234l0.334-0.312
		c0.258-0.176,0.36-0.49,0.559-0.719c0.111-0.291,0.26-0.568,0.327-0.883c0.022-0.332,0.159-0.635,0.112-0.992
		c-0.031-0.35,0.025-0.689-0.07-1.049l-0.223-1.102c-0.104-0.394-0.205-0.793-0.293-1.258c-0.172-0.877-0.279-1.762-0.264-2.69
		c0.007-0.463,0.053-0.928,0.128-1.396c0.084-0.471,0.213-0.934,0.38-1.393c0.182-0.453,0.4-0.889,0.67-1.301
		c0.279-0.408,0.582-0.789,0.926-1.123c0.347-0.336,0.715-0.654,1.107-0.904c0.383-0.279,0.795-0.479,1.202-0.701l-0.597,0.924
		c0.038-0.738,0.209-1.467,0.506-2.131c0.316-0.648,0.709-1.256,1.205-1.738c0.967-1.008,2.152-1.686,3.363-2.143
		c2.459-0.891,4.965-1.035,7.469-0.879c1.138,0.088,2.467,0.256,3.654,0.57c1.211,0.31,2.4,0.719,3.522,1.303
		c2.247,1.121,4.262,2.887,5.465,5.174c0.609,1.135,0.965,2.406,1.088,3.68c0.02,0.18,0.039,0.26,0.056,0.529l-0.005,0.443
		l-0.011,0.889c0.033,0.568-0.114,1.25-0.222,1.893l-0.087,0.486c-0.046,0.156-0.106,0.307-0.159,0.459l-0.338,0.914
		c-0.33,0.564-0.615,1.174-1.086,1.637c-0.414,0.514-0.945,0.926-1.477,1.279c-0.497,0.357-1.221,0.643-1.375,0.838
		c-0.109,0.117-0.123,0.195-0.109,0.266c0.012,0.072,0.1,0.199,0.262,0.309c0.348,0.219,0.875,0.33,1.407,0.346
		c0.132,0.008,0.267,0.012,0.406,0c0.165-0.002,0.206-0.01,0.475-0.012c0.307,0.031,0.574-0.002,0.913,0.08
		c0.323,0.062,0.663,0.117,0.968,0.199l0.883,0.254c2.324,0.746,4.488,1.83,6.539,3.09c2.043,1.269,3.953,2.748,5.677,4.43
		c1.739,1.66,3.181,3.629,4.339,5.729c1.213,2.096,1.803,4.475,2.171,6.828c0.338,2.348,0.543,4.729,0.669,7.102
		c0.105,2.379,0.075,4.76-0.076,7.131c-0.188,2.373-0.51,4.733-1.025,7.051c-0.516,2.324-1.292,4.586-2.314,6.729
		c-1.033,2.141-2.345,4.146-3.977,5.883C-269.918,76.004-270.065,76.623-270.073,77.223z"/>
	<g>
		<path fill="#CB7E3D" d="M-304.264,79.172c-1.262-2.006-1.602-6.461,1.645-10.119c0.944-0.773,1.123-1.24,1.143-1.447
			c0.012-0.121-0.02-0.221-0.105-0.324c-0.13-0.15-0.495-0.439-1.533-0.65c-0.736-0.152-1.458-0.666-2.255-1.631
			c-1.143-1.377-2.477-3.701-4.237-6.826c-2.925-5.209-3.843-8.355-2.878-9.924c0.273-0.443,0.353-0.809,0.209-0.98
			c-0.115-0.143-0.461-0.258-1.07-0.166c-1.59,0.24-8.225-0.76-9.725-3.312c-0.989-1.658-0.584-2.543-0.283-3.189
			c0.173-0.377,0.256-0.576,0.147-0.842c-0.122-0.307-0.53-0.521-0.981-0.746c-0.455-0.232-0.973-0.49-1.338-0.943
			c-0.35-0.416-0.514-0.916-0.502-1.539c0.02-1.183,0.701-1.869,1.3-2.475c0.606-0.607,1.079-1.084,0.954-1.984
			c-0.08-0.574-0.418-0.992-0.784-1.346c-0.136-0.127-0.268-0.256-0.382-0.391c-0.598-0.726-0.561-1.598,0.135-3.012
			c1.59-3.229,3.713-3.453,10.74-4.188l0.365-0.033c1.148-0.291,2.038-0.932,2.58-1.865c0.676-1.166,0.766-2.736,0.262-4.547
			c-1.364-4.871-0.303-8.137,3.249-9.984c0.099-1.295,0.724-2.51,1.815-3.52c2.056-1.898,5.552-2.822,9.841-2.602
			c4.811,0.25,8.955,2.066,11.375,4.988c1.359,1.637,2.148,3.603,2.293,5.686c0.41,6.014-2.725,7.678-4.232,8.479
			c-0.277,0.148-0.46,0.346-0.498,0.547c-0.025,0.133,0.013,0.264,0.117,0.391c0.139,0.166,0.725,0.701,2.511,0.537
			c2.526-0.223,11.638,3.332,17.191,10.031c2.491,3.012,4.034,6.316,4.577,9.818c1.387,8.928,2.379,25.316-6.576,34.779
			c-0.592,0.625-0.502,1.52-0.397,2.553c0.135,1.344,0.29,2.867-1.132,4.053c-2.529,2.113-7.194,1.82-10.163-0.635
			c-0.733-0.551-1.325-0.781-1.709-0.662c-0.315,0.088-0.573,0.439-0.815,1.096c-0.639,1.766-3.625,6.377-7.584,5.625
			c-0.51-0.098-1.004-0.18-1.48-0.264c-2.536-0.432-4.728-0.803-6.273-2.672l0,0c-0.404-0.49-0.748-1.049-1.039-1.725
			c-0.292-0.66-0.602-1.178-0.938-1.586c-0.605-0.727-1.205-0.959-1.785-1.178c-0.529-0.203-1.072-0.412-1.531-0.965
			C-304.117,79.389-304.194,79.289-304.264,79.172z M-299.037,82.879c0.265,0.6,0.565,1.104,0.924,1.535l0,0
			c1.35,1.625,3.303,1.959,5.776,2.381c0.483,0.082,0.98,0.168,1.495,0.264c3.715,0.709,6.303-4.115,6.658-5.094
			c0.211-0.58,0.576-1.373,1.352-1.607c0.657-0.197,1.457,0.062,2.453,0.805c2.7,2.23,6.881,2.531,9.125,0.652
			c1.088-0.904,0.966-2.084,0.841-3.336c-0.112-1.135-0.229-2.305,0.62-3.205c8.713-9.205,7.724-25.307,6.359-34.086
			c-0.52-3.354-2.002-6.521-4.4-9.414c-5.674-6.85-14.469-9.914-16.48-9.738c-2.049,0.182-2.895-0.445-3.217-0.832
			c-0.267-0.314-0.371-0.699-0.295-1.078c0.089-0.447,0.418-0.844,0.926-1.115c1.353-0.717,4.17-2.215,3.792-7.689
			c-0.132-1.938-0.841-3.693-2.106-5.221c-2.272-2.74-6.199-4.455-10.779-4.691c-4.065-0.213-7.348,0.635-9.242,2.389
			c-0.992,0.916-1.531,2.019-1.561,3.184c-0.006,0.156-0.093,0.293-0.23,0.361c-3.31,1.613-4.302,4.602-3.039,9.129
			c0.57,2.027,0.452,3.82-0.338,5.18c-0.649,1.117-1.748,1.914-3.15,2.26l-0.425,0.049c-7.023,0.732-8.692,0.906-10.082,3.727
			c-0.747,1.516-0.433,1.896-0.245,2.125c0.097,0.111,0.203,0.219,0.318,0.322c0.146,0.141,0.295,0.283,0.434,0.453
			c0.332,0.404,0.524,0.838,0.599,1.373c0.18,1.305-0.544,2.033-1.183,2.678c-0.566,0.566-1.05,1.057-1.064,1.912
			c-0.014,0.914,0.649,1.354,1.388,1.723c0.566,0.289,1.168,0.639,1.376,1.191c0.241,0.605,0.025,1.072-0.164,1.484
			c-0.262,0.559-0.527,1.137,0.24,2.426c1.332,2.213,7.635,3.102,8.893,2.912c0.832-0.123,1.48,0.037,1.831,0.457
			c0.225,0.273,0.507,0.889-0.142,1.941c-0.532,0.861-0.455,3.129,2.893,9.086c2.806,4.98,4.504,7.77,5.939,8.053
			c1.621,0.324,2.379,0.986,2.295,1.859c-0.058,0.604-0.531,1.264-1.395,1.963c-3.196,3.609-2.4,7.684-1.516,9.092
			c0.345,0.561,0.779,0.721,1.347,0.938c0.618,0.234,1.382,0.531,2.126,1.422C-299.705,81.566-299.362,82.15-299.037,82.879z"/>
	</g>
	<path fill="#CB7E3D" d="M-293.073,8.154c-0.065-0.07-0.122-0.213-0.277-0.309c-0.13-0.129-0.326-0.228-0.552-0.305
		c-0.236-0.066-0.496-0.084-0.767-0.072c-0.132,0.033-0.278,0.025-0.396,0.066c-0.118,0.043-0.223,0.031-0.405,0.135
		c-0.283,0.111-0.51,0.311-0.733,0.527c-0.21,0.242-0.353,0.557-0.425,0.891c-0.039,0.359-0.059,0.652,0.086,1.1
		c0.13,0.307,0.385,0.676,0.727,0.859c0.351,0.178,0.752,0.229,1.104,0.137c0.171-0.057,0.292-0.074,0.467-0.178l0.245-0.145
		l0.158-0.131c0.25-0.17,0.416-0.399,0.597-0.6c0.064-0.119,0.154-0.225,0.218-0.338c0.045-0.117,0.103-0.234,0.141-0.35
		c0.064-0.234,0.09-0.447,0.06-0.621c0.007-0.186-0.081-0.316-0.107-0.408c-0.036-0.098-0.051-0.145-0.051-0.145
		S-293.016,8.231-293.073,8.154z M-292.849,8.375c0.032,0.098,0.116,0.211,0.16,0.404c0.069,0.184,0.122,0.416,0.155,0.697
		c0.016,0.277-0.004,0.615-0.135,0.963c-0.148,0.33-0.396,0.674-0.765,0.889c-0.107,0.055-0.155,0.102-0.307,0.162l-0.277,0.072
		c-0.172,0.053-0.456,0.07-0.665,0.07c-0.444-0.039-0.858-0.172-1.254-0.365c-0.385-0.228-0.725-0.486-1.025-0.91
		c-0.221-0.314-0.422-0.859-0.393-1.34c0.039-0.484,0.202-0.955,0.477-1.344c0.289-0.367,0.67-0.682,1.08-0.801
		c0.146-0.07,0.395-0.113,0.61-0.139c0.218-0.02,0.405,0.019,0.586,0.043c0.364,0.096,0.653,0.268,0.874,0.441
		c0.221,0.188,0.377,0.359,0.489,0.52c0.13,0.141,0.185,0.283,0.243,0.365c0.053,0.086,0.082,0.131,0.082,0.131
		S-292.89,8.287-292.849,8.375z"/>
	<path fill="#CB7E3D" d="M-302.539,11.459c0,0-0.381-0.283-0.904-0.76c-0.512-0.486-1.182-1.137-1.71-1.877
		c-0.267-0.369-0.458-0.773-0.651-1.131c-0.2-0.35-0.393-0.662-0.567-0.945c-0.071-0.147-0.149-0.281-0.222-0.402
		c-0.075-0.123-0.111-0.238-0.168-0.33c-0.094-0.188-0.166-0.311-0.166-0.311l-0.111,0.004c0,0-0.055,0.123-0.105,0.342
		C-307.233,6.277-307.24,6.6-307.213,7c0.047,0.393,0.174,0.848,0.419,1.268c0.259,0.41,0.62,0.779,0.976,1.129
		c0.719,0.695,1.512,1.264,2.15,1.611c0.633,0.357,1.074,0.545,1.074,0.545L-302.539,11.459z"/>
	<g opacity="0.5">
		<path fill="#FCD29A" d="M-271.434,78.553c-0.07,1.188,0.04,2.637-1.15,3.102c-1.19,0.469-2.079,0.357-3.464,0.098
			c-1.388-0.26,0.893-0.975,1.565-1.58C-273.805,79.565-271.328,76.639-271.434,78.553z"/>
		<path fill="#FCD29A" d="M-281.012,44.256c-3.389-13.566-0.992-21.57,4.656-17.51c5.646,4.061,8.438,5.406,10.681,11.191
			c1.785,4.602,2.075,10.207,1.282,17.432C-266.369,73.422-277.624,57.83-281.012,44.256z"/>
		<path fill="#FCD29A" d="M-297.637,3.027c1.765-0.271,7.441,0.215,9.972,3.166c2.022,2.139,3.354,4.642,2.7,8.203
			c-0.395,2.137-4.709,5.158-7.209,4.494c-2.502-0.666-0.58-5.896,1.402-6.396c1.982-0.498,2.386-3.705,0.776-5.064
			c-0.228-0.191-0.378-0.397-0.476-0.6c-1.062-1.078-3.277-2.789-6.634-2.797C-298.156,4.01-299.405,3.305-297.637,3.027z"/>
		<path fill="#FCD29A" d="M-294.16,32.686c-0.333,7.711,4.295,21.426,6.667,27.146c2.55,6.145,7.505,11.41,2.208,7.914
			c-5.295-3.506-9.18-3.1-11.121-5.508c-1.939-2.402-7.45-14.652-6.107-18.576c1.349-3.928,3.74-3.998,4.798-8.375
			C-296.653,30.904-293.824,24.973-294.16,32.686z"/>
		<path fill="#FCD29A" d="M-312.214,26.186c-0.28,1.449-0.814,3.006-4.462,2.867c-3.646-0.139-4.309,0.963-4.857-0.08
			c-0.551-1.035,1.16-2.193,4.002-2.623C-314.684,25.918-311.974,24.932-312.214,26.186z"/>
		<path fill="#FCD29A" d="M-285.387,82.643c-0.721,1.295-2.762,3.23-4.09,3.551c-1.327,0.32-3.099,0.266-2.529-0.533
			c0.572-0.805,2.03-0.164,3.3-1.256C-287.434,83.313-284.061,80.275-285.387,82.643z"/>
	</g>
	<g>
		<path fill="#CD7F3D" d="M-277.783,70.977c0.074,0.092,0.148,0.182,0.223,0.266c4.711,5.504,7.6,5.432,7.722,5.424l-0.042-1.1
			c-0.025,0.004-2.557-0.031-6.846-5.035c-0.072-0.088-0.145-0.178-0.219-0.262c-5.162-6.23-14.119-24.057-13.308-40.523
			c0.257-4.641,1.877-6.967,5.261-7.553l-0.188-1.082c-5.154,0.889-5.992,5.322-6.172,8.578
			C-292.174,46.459-283.045,64.623-277.783,70.977z"/>
	</g>
</g>
<g>
	<g>
		<path fill="#FCC88A" d="M-178.236,41.345c-1.493-5.018-3.705-9.137-4.646-10.356c2.744-1.731,4.936-1.723,7.342-2.758
			c2.41-1.033,6-5.314,1.541-7.943c-4.459-2.625-8.008-3.572-10.084-6.199c-2.074-2.623-7.383-16.352-21.373-13.268
			c-7.094,1.565-10.832,11.383-3.559,20.047c3.049,3.566,2.617,5.65,2.617,5.65s-5.629,1.58-10.809-3.113
			c-5.181-4.691-5.351-5.922-9.753-4.516c-4.4,1.41-10.258,0.492-12.804,2.605c-2.547,2.109-0.745,1.74-0.275,7.695
			c0.469,5.953,2.823,20.064,13.543,27.719c10.72,7.652,24.806,8.721,35.31,3.762C-180.684,55.72-176.743,46.361-178.236,41.345z
			 M-193.833,16.913c-0.939-0.449-1.334-1.582-0.882-2.523c0.454-0.941,1.586-1.334,2.525-0.881
			c0.941,0.455,1.336,1.584,0.882,2.523C-191.76,16.976-192.892,17.37-193.833,16.913z"/>
	</g>
	<g>
		<defs>
			<path id="SVGID_19_" d="M-178.236,41.345c-1.493-5.018-3.705-9.137-4.646-10.356c2.744-1.731,4.936-1.723,7.342-2.758
				c2.41-1.033,6-5.314,1.541-7.943c-4.459-2.625-8.008-3.572-10.084-6.199c-2.074-2.623-7.383-16.352-21.373-13.268
				c-7.094,1.565-10.832,11.383-3.559,20.047c3.049,3.566,2.617,5.65,2.617,5.65s-5.629,1.58-10.809-3.113
				c-5.181-4.691-5.351-5.922-9.753-4.516c-4.4,1.41-10.258,0.492-12.804,2.605c-2.547,2.109-0.745,1.74-0.275,7.695
				c0.469,5.953,2.823,20.064,13.543,27.719c10.72,7.652,24.806,8.721,35.31,3.762C-180.684,55.72-176.743,46.361-178.236,41.345z
				 M-193.833,16.913c-0.939-0.449-1.334-1.582-0.882-2.523c0.454-0.941,1.586-1.334,2.525-0.881
				c0.941,0.455,1.336,1.584,0.882,2.523C-191.76,16.976-192.892,17.37-193.833,16.913z"/>
		</defs>
		<clipPath id="SVGID_20_">
			<use xlink:href="#SVGID_19_"  overflow="visible"/>
		</clipPath>
		<path clip-path="url(#SVGID_20_)" fill="#ECA45E" d="M-196.881,48.366c0,0-3.804,8.055-9.962,6.186
			c-2.664-0.805-7.381-2.986-10.322-6.695c-2.946-3.713-0.948-4.961-4.2-6.137c0,0,2.69,0.158,4.656,3.209
			c1.966,3.047,6.663,6.172,9.628,6.553C-204.116,51.861-199.114,51.013-196.881,48.366z"/>
		<path clip-path="url(#SVGID_20_)" fill="#ECA45E" d="M-240.715,25.12c0,0,3.871,1.602,4.492,7.436
			c0.621,5.838,4.498,21.445,18.828,26.26c14.33,4.814,21.074,4.406,25.039,2.379c3.967-2.029-5.971,8.346-6.585,8.434
			c-0.614,0.084-23.958-4.305-25.319-4.771c-1.359-0.463-17.906-20.375-17.906-20.375l0.875-12.473L-240.715,25.12z"/>
		<path clip-path="url(#SVGID_20_)" fill="#ECA45E" d="M-206.397,26.519c0,0,1.137-1.791,0.022-5.191
			c-1.114-3.398-4.666-4.971-4.975-9.176c-0.47-6.367,1.604-8.955,4.841-11.021c3.238-2.07-4.574-3.977-4.574-3.977
			s-9.084,14.084-8.318,15.172c0.764,1.086,5.229,6.815,6.079,7.797C-212.471,21.105-206.397,26.519-206.397,26.519z"/>
		<path clip-path="url(#SVGID_20_)" fill="#ECA45E" d="M-182.882,30.99c0,0-5.078-1.781-4.549-3.102
			c0.527-1.324,2.328-0.307,4.691-0.457c2.362-0.148,8.283-0.258,10.538-2.555c2.254-2.297,1.027,4.697,1.027,4.697l-11.465,0.916"
			/>
	</g>
	<path fill="#CB7E3D" d="M-205.456,0.822c-0.607,0.205-1.251,0.326-1.815,0.643c-0.598,0.244-1.122,0.621-1.653,0.98
		c-0.261,0.185-0.482,0.422-0.727,0.629l-0.357,0.324l-0.312,0.367c-0.201,0.25-0.423,0.486-0.607,0.748l-0.514,0.812
		c-0.188,0.262-0.295,0.568-0.436,0.856c-0.123,0.299-0.297,0.574-0.372,0.889c-0.194,0.613-0.398,1.223-0.477,1.861
		c-0.145,0.627-0.146,1.271-0.181,1.912c-0.019,0.643,0.069,1.279,0.119,1.918c0.145,0.625,0.207,1.273,0.422,1.875
		c0.216,0.604,0.365,1.234,0.668,1.801c0.273,0.58,0.52,1.172,0.881,1.703c0.335,0.549,0.65,1.105,1.064,1.6l1.181,1.523
		l0.597,0.756c0.185,0.268,0.354,0.547,0.533,0.818c0.186,0.266,0.336,0.555,0.476,0.85c0.151,0.295,0.291,0.588,0.388,0.9
		c0.234,0.611,0.387,1.256,0.327,1.963c-0.005,0.055-0.047,0.098-0.097,0.111l-0.01,0.002c-3.111,0.695-6.462,0.062-9.16-1.643
		c-1.375-0.846-2.503-1.967-3.66-3.01c-1.158-1.029-2.267-2.209-3.539-2.902c-1.273-0.707-2.774-0.236-4.256,0.24
		c-1.51,0.473-3.137,0.707-4.688,0.867c-1.564,0.17-3.125,0.271-4.618,0.539c-0.739,0.143-1.472,0.316-2.121,0.602
		c-0.315,0.154-0.62,0.316-0.878,0.527c-0.133,0.078-0.27,0.228-0.422,0.353c-0.152,0.131-0.25,0.246-0.377,0.369
		c-0.229,0.256-0.365,0.473-0.381,0.668c-0.025,0.201,0.057,0.551,0.154,0.908c0.213,0.734,0.433,1.533,0.588,2.318
		c0.331,1.592,0.397,3.197,0.619,4.693c0.418,3.049,1.123,6.068,2.094,8.977c0.982,2.904,2.26,5.707,3.9,8.266
		c1.637,2.561,3.65,4.861,5.992,6.748l0.889,0.697l0.223,0.178l0.057,0.043c0.033,0.02-0.016-0.012,0.001-0.002l0.028,0.021
		l0.123,0.082l0.49,0.322c0.654,0.414,1.305,0.9,1.959,1.236c1.283,0.758,2.654,1.437,4.053,2.037
		c2.803,1.18,5.752,2.02,8.758,2.486c6.01,0.92,12.289,0.324,17.901-1.986c2.809-1.172,5.427-2.76,7.673-4.775
		c2.234-2.025,4.129-4.467,5.296-7.236c0.569-1.383,0.97-2.844,1.048-4.307l0.031-0.551l-0.038-0.541
		c-0.005-0.367-0.075-0.713-0.153-1.063l-0.051-0.264c-0.001-0.037-0.055-0.168-0.079-0.25l-0.183-0.559l-0.365-1.113
		c-0.45-1.514-1.068-2.904-1.656-4.324c-0.643-1.395-1.332-2.795-2.154-4.033l-0.025-0.041c-0.143-0.215-0.085-0.504,0.131-0.65
		l0.018-0.008c1.065-0.641,2.215-1.139,3.387-1.48c1.17-0.359,2.336-0.598,3.432-0.99c1.105-0.332,2.033-1.002,2.814-1.85
		c0.743-0.84,1.351-1.893,1.314-2.984c-0.009-1.098-0.806-2.039-1.761-2.652c-0.989-0.619-2.059-1.207-3.102-1.754
		c-1.059-0.557-2.13-1.088-3.184-1.666c-1.053-0.58-2.084-1.217-2.994-2.031c-0.229-0.193-0.416-0.438-0.626-0.658
		c-0.212-0.213-0.411-0.453-0.566-0.707c-0.339-0.492-0.64-1.029-0.943-1.539c-0.599-1.035-1.222-2.053-1.878-3.055
		c-0.674-0.981-1.381-1.945-2.164-2.848c-0.779-0.902-1.635-1.744-2.56-2.494c-0.926-0.756-1.936-1.4-2.996-1.947
		c-0.55-0.234-1.091-0.494-1.646-0.707l-1.725-0.488c-1.176-0.191-2.364-0.385-3.562-0.305l-0.896,0.012
		c-0.299,0.006-0.591,0.076-0.888,0.111L-205.456,0.822z M-205.456,0.822l1.774-0.277c0.296-0.037,0.59-0.109,0.888-0.117
		l0.896-0.016c1.199-0.088,2.391,0.102,3.57,0.285l1.732,0.482c0.559,0.209,1.102,0.469,1.654,0.699
		c1.066,0.545,2.083,1.182,3.019,1.938c0.935,0.752,1.79,1.592,2.592,2.484c0.799,0.895,1.524,1.852,2.216,2.83
		c0.674,0.992,1.314,2.008,1.93,3.033c0.316,0.51,0.608,1.018,0.955,1.506c0.164,0.256,0.348,0.471,0.561,0.68
		c0.208,0.211,0.393,0.443,0.617,0.633c1.803,1.545,4.047,2.453,6.186,3.519c1.086,0.539,2.135,1.074,3.186,1.701
		c1.035,0.621,2.033,1.693,2.085,3.053c0.069,1.336-0.607,2.521-1.396,3.465c-0.412,0.473-0.873,0.896-1.381,1.271
		c-0.27,0.176-0.558,0.367-0.816,0.49c-0.296,0.162-0.574,0.238-0.863,0.363c-1.149,0.441-2.328,0.717-3.437,1.084
		c-1.115,0.361-2.161,0.846-3.138,1.467l0.124-0.697c0.948,1.342,1.671,2.744,2.376,4.166c0.648,1.453,1.327,2.912,1.805,4.395
		l0.395,1.1l0.2,0.553c0.032,0.104,0.061,0.154,0.099,0.307l0.076,0.311c0.103,0.414,0.191,0.832,0.213,1.25l0.055,0.629
		l-0.015,0.621c-0.05,1.664-0.452,3.273-1.033,4.795c-1.191,3.039-3.156,5.699-5.492,7.93c-2.36,2.219-5.154,3.945-8.093,5.228
		c-5.926,2.568-12.568,3.213-18.908,2.271c-3.178-0.465-6.297-1.344-9.246-2.619c-1.473-0.639-2.904-1.357-4.312-2.199
		c-0.73-0.391-1.336-0.846-1.999-1.275l-0.487-0.324l-0.123-0.084l-0.088-0.06l-0.06-0.047l-0.238-0.188l-0.953-0.758
		c-2.527-2.039-4.635-4.551-6.326-7.279c-1.693-2.734-2.988-5.691-3.954-8.725c-0.935-3.047-1.579-6.166-1.934-9.326
		c-0.191-1.6-0.216-3.137-0.486-4.615c-0.13-0.752-0.31-1.471-0.511-2.246c-0.086-0.395-0.225-0.82-0.154-1.398
		c0.078-0.59,0.438-1.035,0.733-1.348c0.342-0.326,0.589-0.555,0.958-0.824c0.361-0.277,0.752-0.475,1.146-0.65
		c0.794-0.326,1.6-0.49,2.396-0.621c1.596-0.244,3.165-0.307,4.713-0.434c1.56-0.123,3.053-0.297,4.541-0.723
		c0.736-0.205,1.525-0.447,2.352-0.535c0.824-0.104,1.75,0.049,2.492,0.463c1.459,0.859,2.479,2.047,3.627,3.113
		c1.134,1.072,2.219,2.203,3.502,3.031c2.539,1.699,5.793,2.412,8.803,1.793l-0.105,0.115c0.055-0.574-0.068-1.232-0.288-1.816
		c-0.089-0.303-0.22-0.588-0.364-0.875c-0.133-0.287-0.273-0.57-0.451-0.836c-0.17-0.267-0.328-0.541-0.508-0.805l-0.585-0.77
		l-1.161-1.543c-0.412-0.5-0.72-1.074-1.049-1.631c-0.355-0.539-0.597-1.141-0.862-1.729c-0.296-0.574-0.438-1.215-0.647-1.822
		c-0.202-0.613-0.268-1.26-0.409-1.893c-0.048-0.639-0.132-1.285-0.11-1.928c0.037-0.643,0.044-1.291,0.193-1.92
		c0.082-0.643,0.291-1.256,0.488-1.869c0.078-0.314,0.254-0.592,0.377-0.887c0.143-0.291,0.252-0.596,0.443-0.859l0.519-0.818
		c0.186-0.258,0.41-0.494,0.615-0.742l0.311-0.371l0.36-0.316c0.246-0.209,0.468-0.447,0.733-0.631
		c0.533-0.359,1.059-0.736,1.663-0.973C-206.709,1.14-206.065,1.023-205.456,0.822z"/>
	<g>
		<path fill="#CB7E3D" d="M-222.116,60.009c-1.602-0.82-3.148-1.76-4.6-2.793c-10.993-7.846-13.241-22.195-13.699-27.998
			c-0.175-2.219-0.545-3.561-0.785-4.449c-0.455-1.66-0.505-2.156,1.195-3.568c1.553-1.287,4.186-1.506,6.974-1.738
			c2.028-0.17,4.125-0.344,5.956-0.932c2.251-0.719,3.428-0.752,4.654-0.127c0.957,0.488,1.901,1.381,3.328,2.73
			c0.609,0.574,1.311,1.24,2.141,1.988c0.879,0.799,1.835,1.463,2.836,1.977c3.37,1.715,6.467,1.291,7.359,1.111
			c-0.005-0.609-0.249-2.408-2.547-5.1c-3.692-4.396-4.934-9.496-3.403-13.994c1.17-3.439,3.85-5.93,7.169-6.664
			c3.99-0.875,7.664-0.48,10.925,1.182c5.001,2.551,7.918,7.449,9.659,10.383c0.484,0.812,0.867,1.459,1.168,1.842
			c1.047,1.318,2.502,2.223,4.514,3.248c0.402,0.203,0.822,0.412,1.256,0.629c0.469,0.229,0.951,0.469,1.451,0.729
			c1.05,0.533,1.928,1.012,2.758,1.5c2.017,1.19,2.364,2.648,2.299,3.664c-0.131,2.086-2.117,4.193-3.881,4.951
			c-0.943,0.406-1.867,0.66-2.759,0.902c-1.319,0.361-2.679,0.732-4.186,1.621c1.115,1.631,3.119,5.623,4.461,10.131
			c1.486,4.994-2.256,14.641-13.15,19.783C-200.352,65.415-212.266,65.033-222.116,60.009z M-222.764,19.079
			c-1.02-0.52-2.05-0.48-4.08,0.172c-1.912,0.611-4.053,0.791-6.123,0.961c-2.666,0.227-5.184,0.436-6.555,1.574
			c-1.394,1.154-1.353,1.313-0.949,2.783c0.251,0.916,0.63,2.303,0.81,4.588c0.449,5.699,2.651,19.785,13.387,27.441
			c1.421,1.017,2.936,1.935,4.503,2.734c9.645,4.922,21.304,5.305,30.424,1c10.512-4.961,14.158-14.154,12.75-18.883
			c-1.42-4.769-3.574-8.922-4.582-10.228c-0.064-0.084-0.093-0.195-0.073-0.295c0.018-0.107,0.081-0.201,0.171-0.258
			c1.742-1.1,3.264-1.514,4.735-1.914c0.907-0.25,1.763-0.484,2.659-0.867c1.358-0.584,3.305-2.404,3.425-4.309
			c0.075-1.164-0.573-2.164-1.927-2.959c-0.818-0.484-1.682-0.959-2.72-1.484c-0.495-0.256-0.979-0.492-1.442-0.727
			c-2.701-1.342-4.678-2.379-6.027-4.086c-0.332-0.418-0.727-1.078-1.227-1.922c-1.701-2.857-4.545-7.641-9.353-10.096
			c-3.099-1.58-6.602-1.953-10.415-1.115c-3.059,0.674-5.531,2.982-6.615,6.172c-1.443,4.236-0.252,9.07,3.262,13.264
			c3.135,3.664,2.721,5.877,2.701,5.969c-0.029,0.139-0.134,0.252-0.27,0.289c-0.158,0.045-3.908,1.057-8.164-1.113
			c-1.061-0.541-2.07-1.244-3-2.088c-0.834-0.754-1.539-1.42-2.154-2.002C-220.991,20.378-221.904,19.519-222.764,19.079z"/>
	</g>
	<path fill="#CB7E3D" d="M-222.985,41.288c0,0,0.152-0.068,0.49-0.158c0.165-0.035,0.369-0.057,0.615-0.092
		c0.244-0.012,0.529-0.004,0.854,0.012c0.63,0.082,1.428,0.275,2.207,0.764c0.365,0.268,0.832,0.498,1.146,0.896
		c0.357,0.381,0.735,0.758,1.035,1.143c0.609,0.758,1.324,1.492,2.1,2.309c0.773,0.803,1.584,1.668,2.519,2.486
		c0.927,0.816,2.032,1.518,3.258,1.945c1.222,0.441,2.556,0.613,3.833,0.479c0.636-0.1,1.26-0.191,1.852-0.412l0.447-0.123
		l0.427-0.18c0.302-0.127,0.647-0.227,0.911-0.367c1.074-0.479,2.13-1.18,3.037-1.898c0.914-0.736,1.66-1.568,2.334-2.373
		c0.625-0.842,1.102-1.693,1.399-2.533c0.238-0.834,0.4-1.654,0.274-2.365c-0.004-0.373-0.121-0.693-0.205-1.01
		c-0.064-0.324-0.221-0.584-0.336-0.838c-0.208-0.529-0.516-0.863-0.69-1.127c-0.18-0.264-0.275-0.404-0.275-0.404l0.131-0.15
		c0,0,0.143,0.098,0.412,0.279c0.26,0.195,0.681,0.457,1.085,0.949c0.219,0.23,0.466,0.488,0.638,0.846
		c0.197,0.34,0.43,0.711,0.531,1.162c0.351,0.879,0.336,1.967,0.18,3.102c-0.246,1.115-0.717,2.262-1.438,3.322
		c-0.727,1.039-1.66,2.01-2.767,2.803c-1.126,0.783-2.323,1.449-3.735,1.928c-0.345,0.125-0.652,0.18-0.98,0.269l-0.533,0.125
		l-0.541,0.068c-0.719,0.107-1.447,0.066-2.157,0.035c-1.429-0.154-2.771-0.545-4.044-1.008c-1.275-0.465-2.49-1.029-3.647-1.637
		c-1.157-0.605-2.25-1.291-3.146-2.1c-0.891-0.801-1.637-1.703-2.248-2.561c-0.286-0.447-0.562-0.783-0.801-1.111
		c-0.226-0.357-0.531-0.584-0.787-0.855c-0.125-0.141-0.269-0.238-0.412-0.33c-0.143-0.102-0.281-0.195-0.41-0.293
		c-0.271-0.172-0.555-0.264-0.799-0.404c-0.264-0.088-0.5-0.162-0.703-0.232c-0.216-0.045-0.4-0.082-0.549-0.113
		c-0.295-0.043-0.476-0.047-0.476-0.047L-222.985,41.288z"/>
	<path fill="#CB7E3D" d="M-201.539,43.56c0,0-0.231-0.205-0.635-0.512c-0.218-0.146-0.462-0.338-0.759-0.529
		c-0.312-0.164-0.629-0.402-1.016-0.59c-0.398-0.164-0.777-0.422-1.246-0.564c-0.463-0.144-0.914-0.379-1.433-0.467
		c-0.515-0.096-1.017-0.293-1.571-0.307c-0.555-0.047-1.07-0.129-1.67-0.152c-0.592-0.033-1.182-0.074-1.766-0.109
		c-0.6-0.053-1.172-0.104-1.756-0.227c-0.57-0.076-1.133-0.275-1.652-0.471c-0.506-0.256-0.973-0.521-1.311-0.854
		c-0.381-0.297-0.638-0.627-0.881-0.904c-0.252-0.275-0.431-0.537-0.587-0.752c-0.308-0.426-0.472-0.678-0.472-0.678
		s0.256,0.16,0.682,0.465c0.211,0.15,0.468,0.338,0.764,0.533c0.297,0.197,0.619,0.438,0.99,0.625
		c0.355,0.229,0.777,0.344,1.197,0.504c0.457,0.09,0.924,0.178,1.459,0.213c0.51,0.072,1.086,0.035,1.646,0.086
		c0.581,0.021,1.167,0.037,1.758,0.059c0.579,0.037,1.233,0.145,1.833,0.221l0.457,0.064l0.438,0.139
		c0.287,0.096,0.57,0.186,0.851,0.281c0.573,0.143,1.05,0.488,1.524,0.723c0.486,0.221,0.855,0.592,1.23,0.857
		c0.372,0.275,0.645,0.615,0.908,0.871c0.258,0.27,0.436,0.547,0.6,0.756C-201.66,43.288-201.539,43.56-201.539,43.56z"/>
	<path fill="#CB7E3D" d="M-192.204,13.544c0,0-0.042-0.016-0.125-0.041c-0.082-0.018-0.202-0.094-0.361-0.08
		c-0.152-0.02-0.344,0.014-0.545,0.076c-0.201,0.074-0.395,0.201-0.583,0.342c-0.168,0.172-0.362,0.32-0.504,0.543
		c-0.03,0.043-0.095,0.129-0.107,0.141l-0.117,0.219c-0.089,0.156-0.095,0.262-0.148,0.418c-0.066,0.307-0.013,0.656,0.156,0.959
		c0.181,0.295,0.484,0.496,0.797,0.608c0.361,0.098,0.643,0.078,0.943,0.025c0.291-0.074,0.555-0.209,0.757-0.4
		c0.185-0.201,0.349-0.406,0.437-0.658c0.081-0.16,0.068-0.25,0.104-0.356c0.031-0.098,0.02-0.231,0.047-0.344
		c0.002-0.232-0.018-0.467-0.082-0.67c-0.076-0.197-0.166-0.367-0.279-0.476c-0.093-0.133-0.217-0.178-0.281-0.233
		C-192.169,13.57-192.204,13.544-192.204,13.544z M-192.174,13.474c0,0,0.044,0.025,0.121,0.068c0.074,0.049,0.201,0.092,0.33,0.199
		c0.145,0.096,0.301,0.229,0.477,0.412c0.159,0.189,0.325,0.434,0.423,0.75c0.027,0.166,0.072,0.326,0.059,0.521
		c-0.012,0.193-0.046,0.414-0.1,0.541c-0.09,0.369-0.356,0.717-0.67,0.986c-0.336,0.256-0.746,0.416-1.173,0.465
		c-0.431,0.037-0.897-0.115-1.215-0.316c-0.692-0.479-1.074-1.185-1.18-1.957c-0.008-0.184-0.007-0.436,0.03-0.59l0.053-0.242
		c0.055-0.143,0.09-0.186,0.135-0.279c0.178-0.332,0.475-0.564,0.762-0.707c0.304-0.125,0.598-0.152,0.844-0.146
		c0.252,0.023,0.453,0.064,0.62,0.115c0.167,0.037,0.273,0.107,0.358,0.129C-192.219,13.458-192.174,13.474-192.174,13.474z"/>
	<g opacity="0.5">
		<path fill="#FCD29A" d="M-199.565,36.493c-2.107-1.016-2.328,3.648-1.152,5.361c1.176,1.715-0.008,5.137-3.582,2.367
			c-3.577-2.768-7.721-2.09-9.096-1.418c-1.373,0.672,0.468,2.396,3.857,4.471c3.388,2.078,8.555,2.051,11.455-1.59
			C-195.178,42.044-195.229,38.585-199.565,36.493z"/>
		<path fill="#FCD29A" d="M-218.85,24.042c-1.677-1.67-2.551-3.613-4.52-4.088c-1.525-0.367-4.561,0.949-6.71,1.25
			c-2.148,0.297-4.988,0.646-6.551,1.514c-1.565,0.867,3.462,0.144,5.311,0.461c1.851,0.322,5.439,1.387,7.214,0.479
			c1.775-0.91,3.052,2.379,7.157,4.156c4.102,1.785,6.482,1.996,7.154,0.6C-209.53,27.87-214.332,28.13-218.85,24.042z"/>
		<path fill="#FCD29A" d="M-186.25,18.24c2.008,1.963-3.811,5.375-0.063,5.322c3.748-0.053,8.389-0.178,10.365-0.119
			c1.977,0.061,3.232-1.064,1.177-2.143c-2.058-1.072-9.491-3.967-11.158-7.287c-0.341-0.775-0.991-2.148-3.8-5.602
			c-2.807-3.459-5.225-4.434-6.926-5.254c0,0-5.4-1.074-0.523,1.086c4.613,2.047,5.472,4.148,6.752,6.758
			C-190.417,11.033-188.866,15.679-186.25,18.24z"/>
		<path fill="#FCD29A" d="M-184.635,34.034c-1.84-2.213-6.309-3.547-8.875-3.566c-2.566-0.02,2.107,4.238,5.133,8.059
			c3.023,3.822,2.525,7.229-0.193,11.682c-2.72,4.447-6.038,5.986-5.302,7.424c0.74,1.434,7.657-1.543,10.924-5.873
			C-178.778,46.23-179.432,40.286-184.635,34.034z"/>
	</g>
</g>
<g>
	<path fill="#F9F9F9" d="M-111.854,12.917c0,0-16.135-26.102-34.755-4.098c-18.616,21.998,20.938,45.506,20.938,45.506
		s-7.076,14.172,2.591,29.691c9.667,15.525,28.002,19.906,28.002,19.906s-8.162,11.92,1.479,23.4
		c8.453,9.662,13.754,5.867,13.754,5.867s1.245,27.609,25.562,34.398c15.319,4.855,30.144-16.168,24.038-28.457
		c10.639-4.668,16.891-21.256,0.992-33.857c6.826-8.842,3.801-19.803-5.335-17.951c9.032-12.854,5.808-28.113-3.611-42.688
		c-9.424-14.572-28.49-21.801-35.856-17.777c4.047-12.582-1.094-19.961-13.932-23.838C-100.829-0.854-107.274-1.116-111.854,12.917z
		"/>
	<g>
		<defs>
			<path id="SVGID_21_" d="M-111.854,12.917c0,0-16.135-26.102-34.755-4.098c-18.616,21.998,20.938,45.506,20.938,45.506
				s-7.076,14.172,2.591,29.691c9.667,15.525,28.002,19.906,28.002,19.906s-8.162,11.92,1.479,23.4
				c8.453,9.662,13.754,5.867,13.754,5.867s1.245,27.609,25.562,34.398c15.319,4.855,30.144-16.168,24.038-28.457
				c10.639-4.668,16.891-21.256,0.992-33.857c6.826-8.842,3.801-19.803-5.335-17.951c9.032-12.854,5.808-28.113-3.611-42.688
				c-9.424-14.572-28.49-21.801-35.856-17.777c4.047-12.582-1.094-19.961-13.932-23.838
				C-100.829-0.854-107.274-1.116-111.854,12.917z"/>
		</defs>
		<clipPath id="SVGID_22_">
			<use xlink:href="#SVGID_21_"  overflow="visible"/>
		</clipPath>
		<path clip-path="url(#SVGID_22_)" fill="#E6E7E8" d="M-43.104,167.185c0,0-14.268-0.371-20.062-16.182
			c-5.793-15.812,1.174-22.16,1.174-22.16s-13.834-0.283-19.738-14.549c-4.051-11.402,4.612-16.266,4.612-16.266
			s-13.757,0.406-25.552-16.693c-11.797-17.1-0.88-29.322-0.88-29.322s-25.188-5.854-37.363-26.399
			c-12.174-20.541,3.881-25.389,3.881-25.389l-38.982-3.211c0,0,24.558,63.094,24.191,64.807
			c-0.366,1.713,31.841,64.66,32.518,65.697c0.67,1.039,30.562,33.01,30.562,33.01l24.82,20.119L-43.104,167.185z"/>
	</g>
</g>
<g>
	<g>
		<path fill="#FCC88A" d="M27.365,77.856c3.198-2.68,4.507-4.744,4.507-4.744s6.211,2.377,12.739,0.715
			c6.528-1.656,10.976-4.102,10.378-7.111c-0.598-3.01-4.391-3.338-9.062-5.059c-4.672-1.719-9.16-6.121-9.848-9.594
			c-0.691-3.471,2.838-11.15,4.046-15.361c1.208-4.209,1.681-11.523-6.406-21.947c-2.194-2.572-1.778-3.498-7.625-8.111
			c-5.849-4.613-9.755-6.725-12.42-6.195C9.39,1.3,3.778,10.596,3.725,13.975c-0.049,3.379-0.975,4.766-2.212,9.463
			c-1.232,4.697-4.023,17.883,8.526,30.791c3.559,3.385,6.635,5.537,7.141,8.084c0.505,2.549-1.885,6.873-4.529,9.924
			c-2.638,3.053-5.933,7.076-0.219,8.588C18.149,82.337,24.169,80.538,27.365,77.856z M17.241,10.542
			c-0.185-0.938,0.426-1.85,1.362-2.037c0.937-0.184,1.846,0.424,2.033,1.363c0.187,0.94-0.423,1.848-1.36,2.035
			C18.339,12.089,17.428,11.479,17.241,10.542z"/>
	</g>
	<g>
		<defs>
			<path id="SVGID_23_" d="M27.365,77.856c3.198-2.68,4.507-4.744,4.507-4.744s6.211,2.377,12.739,0.715
				c6.528-1.656,10.976-4.102,10.378-7.111c-0.598-3.01-4.391-3.338-9.062-5.059c-4.672-1.719-9.16-6.121-9.848-9.594
				c-0.691-3.471,2.838-11.15,4.046-15.361c1.208-4.209,1.681-11.523-6.406-21.947c-2.194-2.572-1.778-3.498-7.625-8.111
				c-5.849-4.613-9.755-6.725-12.42-6.195C9.39,1.3,3.778,10.596,3.725,13.975c-0.049,3.379-0.975,4.766-2.212,9.463
				c-1.232,4.697-4.023,17.883,8.526,30.791c3.559,3.385,6.635,5.537,7.141,8.084c0.505,2.549-1.885,6.873-4.529,9.924
				c-2.638,3.053-5.933,7.076-0.219,8.588C18.149,82.337,24.169,80.538,27.365,77.856z M17.241,10.542
				c-0.185-0.938,0.426-1.85,1.362-2.037c0.937-0.184,1.846,0.424,2.033,1.363c0.187,0.94-0.423,1.848-1.36,2.035
				C18.339,12.089,17.428,11.479,17.241,10.542z"/>
		</defs>
		<clipPath id="SVGID_24_">
			<use xlink:href="#SVGID_23_"  overflow="visible"/>
		</clipPath>
		<path clip-path="url(#SVGID_24_)" fill="#ECA45E" d="M2.982,19.522c0,0,0.331-1.354,1.696-0.846
			c1.362,0.514,2.877,2.377,5.062,3.088c2.188,0.709,7,0.533,11.514-3.31c4.514-3.844-4.026,0.68-4.026,0.68
			s-5.29,1.965-9.128-0.168c-3.836-2.137-4.115-2.248-6.42-3.568C-0.627,14.077,2.982,19.522,2.982,19.522z"/>
		<path clip-path="url(#SVGID_24_)" fill="#ECA45E" d="M2.014,41.657c0,0,5.053,9.031,11.441,13.957
			c6.397,4.926,7.435,6.947,6.376,8.963c-1.064,2.016-1.312,5.012-3.278,6.908c-1.973,1.895-5.644,4.602-5.214,6.477
			c0.435,1.869,2.007,2.52,3.288,2.627c1.286,0.105-7.867-0.242-7.867-0.242L2.014,41.657z"/>
		<path clip-path="url(#SVGID_24_)" fill="#ECA45E" d="M31.363,72.753c0,0,1.785-2.221,3.854-1.488
			c2.068,0.732,4.927,2.992,10.955,1.854C41.46,75.137,34.274,74.399,31.363,72.753z"/>
		<path clip-path="url(#SVGID_24_)" fill="#ECA45E" d="M9.321,3.454L8.359,4.579c0,0,2.175,3.963,3.751,5.219
			C9.439,5.401,9.321,3.454,9.321,3.454z"/>
		<path clip-path="url(#SVGID_24_)" fill="#ECA45E" d="M15.977,42.53c0,0,3.01,1.939,8.072,0.273
			c1.519-0.424,3.098-3.047,3.098-3.047s-5.908,2.342-7.387,2.457C18.278,42.325,15.977,42.53,15.977,42.53z"/>
		<path clip-path="url(#SVGID_24_)" fill="#ECA45E" d="M20.467,52.372c0,0,4.561-0.242,7.359-2.07
			C26.959,51.489,24.251,53.799,20.467,52.372z"/>
	</g>
	<path fill="#CB7E3D" d="M13.673,0.448c-1.194,0.268-2.22,1.006-3.116,1.805c-0.893,0.818-1.725,1.711-2.45,2.682
		c-1.465,1.93-2.733,4.025-3.634,6.273c-0.223,0.562-0.429,1.139-0.549,1.727C3.772,13.52,3.78,14.13,3.714,14.735
		c-0.068,0.603-0.047,1.217-0.189,1.811l-0.412,1.783c-0.35,1.164-0.7,2.328-1.018,3.496c-0.329,1.164-0.664,2.334-0.891,3.52
		c-0.492,2.369-0.683,4.793-0.604,7.201c0.09,2.404,0.434,4.805,1.119,7.109c0.706,2.293,1.605,4.531,2.823,6.601
		c0.271,0.537,0.622,1.025,0.943,1.531c0.337,0.494,0.648,1.006,1.003,1.49l1.109,1.416c0.362,0.477,0.733,0.947,1.154,1.377
		l1.22,1.322l0.304,0.33l0.133,0.145l0.172,0.154l0.674,0.609l2.725,2.418c0.898,0.836,1.826,1.65,2.609,2.689
		c0.209,0.24,0.391,0.518,0.547,0.816c0.168,0.289,0.358,0.566,0.447,0.912l0.168,0.494c0.026,0.105,0.051,0.125,0.083,0.293
		l0.028,0.229c0.055,0.256,0.052,0.717,0.028,1.041c-0.109,1.357-0.56,2.564-1.079,3.717c-0.521,1.15-1.16,2.225-1.86,3.268
		c-0.683,1.023-1.505,2.035-2.274,2.938c-0.747,0.916-1.474,1.855-2.003,2.822c-0.232,0.48-0.466,0.979-0.508,1.42
		c-0.049,0.443,0.031,0.791,0.244,1.096c0.486,0.613,1.612,1.051,2.646,1.25c0.597,0.104,1.201,0.232,1.786,0.32l1.669,0.084
		c1.138-0.029,2.304-0.092,3.427-0.328c2.253-0.432,4.468-1.281,6.271-2.604c0.209-0.16,0.485-0.328,0.644-0.488l0.673-0.613
		c0.439-0.41,0.909-0.816,1.325-1.23l1.163-1.262c0.349-0.432,0.761-0.916,1.028-1.324c0.255-0.389,0.733-0.541,1.154-0.4
		l0.023,0.008c2.13,0.725,4.518,1.166,6.83,1.225c0.291,0.01,0.582,0.031,0.873,0.033l0.867-0.053
		c0.574-0.057,1.17-0.016,1.728-0.152l1.708-0.311c0.546-0.121,1.178-0.293,1.725-0.453c2.253-0.662,4.55-1.463,6.396-2.717
		c0.907-0.617,1.661-1.424,1.791-2.236c0.045-0.203,0.021-0.408,0.002-0.617v-0.018c-0.016-0.066,0.019,0.064,0.012,0.041
		l-0.014-0.057l-0.031-0.109l-0.059-0.221c-0.037-0.176-0.089-0.209-0.127-0.305c-0.164-0.354-0.485-0.734-0.885-1.025
		c-0.834-0.598-1.953-1-3.076-1.387c-1.135-0.381-2.309-0.742-3.472-1.162l-0.892-0.33l-0.844-0.354
		c-0.59-0.277-1.162-0.574-1.704-0.891c-1.085-0.645-2.103-1.391-3.046-2.221c-0.945-0.828-1.82-1.74-2.578-2.756
		c-0.75-1.02-1.435-2.121-1.786-3.41c-0.367-1.307-0.186-2.67,0.054-3.873c0.254-1.225,0.604-2.404,0.983-3.574
		c0.765-2.328,1.669-4.59,2.481-6.867c0.203-0.568,0.397-1.141,0.578-1.713l0.436-1.748l0.239-1.756
		c0.063-0.59,0.026-1.189,0.043-1.787c0.036-0.598-0.045-1.193-0.125-1.785c-0.089-0.59-0.108-1.195-0.257-1.777l-0.455-1.746
		l-0.229-0.873l-0.336-0.838c-0.469-1.111-0.832-2.273-1.466-3.309l-0.865-1.594l-0.435-0.799c-0.156-0.26-0.342-0.5-0.51-0.752
		l-2.068-2.99c-0.721-0.98-1.465-1.941-2.156-2.939c-0.326-0.518-0.771-0.934-1.173-1.387c-0.423-0.432-0.788-0.924-1.259-1.309
		l-2.761-2.375c-1.886-1.531-3.837-2.988-5.895-4.277c-1.034-0.633-2.105-1.221-3.234-1.674C16.108,0.544,14.88,0.231,13.673,0.448z
		 M13.673,0.448c1.21-0.225,2.435,0.082,3.564,0.508c1.133,0.443,2.207,1.025,3.243,1.658c2.074,1.275,4.03,2.727,5.926,4.25
		l2.793,2.35c0.477,0.381,0.852,0.869,1.281,1.299c0.415,0.447,0.87,0.861,1.207,1.373c0.707,0.988,1.463,1.941,2.198,2.91
		l2.123,2.975c1.319,2.043,2.568,4.16,3.452,6.449l0.363,0.844l0.256,0.885l0.51,1.77c0.164,0.592,0.202,1.213,0.309,1.82
		c0.098,0.609,0.195,1.219,0.178,1.84c-0.007,0.619,0.047,1.238-0.003,1.855l-0.208,1.863l-0.402,1.799
		c-0.17,0.594-0.352,1.178-0.54,1.762c-0.767,2.32-1.612,4.598-2.304,6.906c-0.346,1.152-0.657,2.314-0.866,3.475
		c-0.2,1.17-0.311,2.301,0.013,3.35c0.308,1.062,0.95,2.055,1.659,2.967c0.724,0.914,1.556,1.746,2.456,2.496
		c0.9,0.754,1.871,1.426,2.891,1.996c0.515,0.285,1.035,0.533,1.544,0.762l0.851,0.332l0.82,0.283
		c1.139,0.375,2.296,0.701,3.475,1.068c1.176,0.373,2.395,0.758,3.562,1.557c0.582,0.422,1.115,0.953,1.471,1.701
		c0.086,0.186,0.192,0.414,0.22,0.537l0.06,0.217l0.031,0.113l0.017,0.051c-0.003-0.004,0.029,0.146,0.021,0.1l0.005,0.037
		c0.058,0.396,0.085,0.797,0.015,1.197c-0.128,0.795-0.501,1.502-0.96,2.051c-0.456,0.543-0.972,1.006-1.509,1.383
		c-2.172,1.51-4.537,2.354-6.928,3.066c-0.619,0.184-1.156,0.33-1.795,0.48l-1.881,0.352c-0.621,0.152-1.262,0.119-1.896,0.182
		l-0.951,0.057c-0.32,0.006-0.638-0.016-0.948-0.027c-2.546-0.066-5.001-0.482-7.476-1.316l1.18-0.393
		c-0.404,0.604-0.798,1.037-1.207,1.549l-1.316,1.408c-0.445,0.436-0.9,0.824-1.348,1.236l-0.674,0.613
		c-0.277,0.26-0.531,0.402-0.803,0.609c-2.126,1.535-4.566,2.44-7.066,2.914c-1.252,0.258-2.527,0.309-3.81,0.314l-1.962-0.141
		c-0.614-0.1-1.194-0.234-1.794-0.35l-0.445-0.09c-0.275-0.076-0.352-0.109-0.537-0.168c-0.316-0.105-0.633-0.195-0.949-0.367
		c-0.314-0.141-0.629-0.301-0.933-0.541c-0.316-0.186-0.581-0.508-0.845-0.814c-0.498-0.688-0.656-1.598-0.535-2.357
		c0.102-0.773,0.418-1.385,0.719-1.986c0.654-1.156,1.451-2.125,2.26-3.062c0.829-0.932,1.564-1.785,2.25-2.764
		c0.682-0.961,1.309-1.963,1.816-3.01c0.505-1.043,0.93-2.141,1.039-3.213c0.14-1.045-0.318-2.008-0.977-2.932
		c-0.647-0.928-1.531-1.754-2.389-2.586l-2.662-2.488l-0.661-0.625l-0.169-0.158c-0.086-0.092-0.109-0.125-0.167-0.191l-0.306-0.346
		l-1.216-1.385c-0.418-0.449-0.789-0.941-1.148-1.438L5.764,49.79c-0.349-0.504-0.657-1.039-0.987-1.557
		C4.459,47.706,4.114,47.2,3.85,46.641c-1.193-2.15-2.061-4.465-2.719-6.826c-0.643-2.367-0.934-4.82-0.966-7.262
		c-0.019-2.445,0.255-4.885,0.774-7.266c0.24-1.195,0.597-2.358,0.945-3.525c0.332-1.166,0.707-2.322,1.072-3.477l0.433-1.758
		c0.151-0.582,0.14-1.201,0.217-1.801c0.073-0.6,0.075-1.217,0.232-1.811c0.13-0.598,0.341-1.172,0.563-1.734
		C5.32,8.928,6.6,6.835,8.079,4.911c0.731-0.967,1.567-1.857,2.467-2.668C11.45,1.442,12.477,0.71,13.673,0.448z"/>
	<g>
		<path fill="#CB7E3D" d="M9.27,79.313c-1.319-2.207,1.343-5.281,3.104-7.316c2.568-2.963,4.921-7.219,4.445-9.611
			c-0.347-1.74-2.276-3.566-4.707-5.754c-0.733-0.662-1.518-1.367-2.326-2.137c-2.146-2.205-3.958-4.535-5.399-6.941l0.001-0.002
			c-4.42-7.381-5.508-15.525-3.23-24.207c0.409-1.549,0.776-2.721,1.102-3.756c0.64-2.049,1.068-3.404,1.101-5.621
			C3.411,10.616,9.021,0.997,13.6,0.087c2.672-0.529,6.477,1.344,12.723,6.268c4.233,3.338,5.214,4.766,6.258,6.277
			c0.398,0.574,0.809,1.166,1.42,1.883c6.268,8.08,8.41,15.555,6.479,22.289c-0.346,1.205-0.885,2.697-1.449,4.271
			c-1.368,3.801-3.065,8.529-2.592,10.916c0.146,0.73,0.469,1.514,0.964,2.342c1.747,2.914,5.222,5.721,8.649,6.98
			c1.08,0.396,2.095,0.713,3.071,1.02c2.687,0.838,4.807,1.5,5.772,3.117c0.219,0.357,0.371,0.76,0.457,1.193
			c0.595,3.014-3.085,5.623-10.648,7.543c-5.87,1.49-11.396-0.189-12.689-0.633c-0.447,0.631-1.805,2.4-4.414,4.586
			c-3.09,2.592-9.182,4.648-15.262,3.039C10.782,80.766,9.78,80.157,9.27,79.313z M16.881,60.598c0.335,0.562,0.554,1.1,0.661,1.646
			c0.545,2.744-2.008,7.231-4.611,10.234c-2.064,2.381-3.993,4.842-3.027,6.455c0.396,0.662,1.28,1.178,2.623,1.535
			c5.826,1.541,11.652-0.418,14.605-2.894c3.106-2.606,4.416-4.639,4.432-4.66c0.09-0.148,0.273-0.207,0.44-0.146
			c0.062,0.023,6.185,2.314,12.519,0.705c6.917-1.756,10.601-4.193,10.109-6.686c-0.413-2.053-2.656-2.795-5.727-3.754
			c-0.942-0.295-2.01-0.627-3.107-1.031c-3.576-1.312-7.2-4.244-9.025-7.295c-0.54-0.898-0.893-1.764-1.056-2.572
			c-0.517-2.586,1.152-7.221,2.623-11.311c0.562-1.562,1.09-3.041,1.431-4.227c1.866-6.498-0.284-13.809-6.341-21.619
			c-0.626-0.733-1.048-1.342-1.455-1.93c-1.012-1.465-1.966-2.846-6.111-6.117c-5.979-4.711-9.711-6.602-12.119-6.123
			C9.532,1.645,4.141,10.878,4.092,13.981c-0.032,2.322-0.469,3.717-1.131,5.826c-0.324,1.027-0.686,2.189-1.088,3.723
			c-2.23,8.484-1.168,16.438,3.146,23.642c0,0-0.003,0.004,0.002,0.004c1.408,2.356,3.187,4.643,5.282,6.795
			c0.792,0.756,1.569,1.457,2.303,2.113C14.436,57.733,16.012,59.155,16.881,60.598z"/>
	</g>
	<path fill="#CB7E3D" d="M9.798,3.35c0,0,0.02,0.127,0.063,0.35c0.035,0.217,0.098,0.529,0.192,0.904
		c0.175,0.756,0.485,1.746,0.868,2.713c0.223,0.467,0.4,0.963,0.65,1.383c0.121,0.211,0.238,0.416,0.354,0.609
		c0.114,0.191,0.201,0.391,0.33,0.539c0.48,0.625,0.798,1.045,0.798,1.045s-0.368-0.381-0.919-0.953
		c-0.15-0.137-0.256-0.322-0.4-0.5c-0.133-0.188-0.275-0.379-0.426-0.582c-0.303-0.396-0.545-0.875-0.825-1.33
		c-0.511-0.94-0.95-1.922-1.218-2.684C9.12,4.471,9.016,4.143,8.948,3.913C8.876,3.688,8.842,3.559,8.842,3.559L9.798,3.35z"/>
	<path fill="#CB7E3D" d="M3.62,16.227c0,0,1.303,0.932,3.464,1.873c0.534,0.234,1.128,0.467,1.766,0.664
		c0.638,0.201,1.31,0.4,2.019,0.527c0.352,0.076,0.71,0.133,1.076,0.166c0.361,0.053,0.729,0.076,1.101,0.076
		c0.371,0.023,0.744,0.002,1.112-0.031c0.373-0.012,0.738-0.076,1.096-0.15c0.166-0.033,0.395-0.064,0.51-0.103l0.57-0.17
		c0.4-0.1,0.725-0.246,1.041-0.387c0.641-0.274,1.285-0.623,1.885-0.965c1.209-0.67,2.295-1.408,3.213-2.105
		c0.451-0.352,0.871-0.682,1.232-0.984c0.365-0.314,0.682-0.586,0.945-0.811c0.52-0.471,0.82-0.738,0.82-0.738l0.167,0.1
		c0,0-0.448,1.65-2.081,3.568c-0.407,0.477-0.878,0.965-1.428,1.44c-0.549,0.476-1.175,0.926-1.875,1.316
		c-0.707,0.381-1.455,0.695-2.299,0.924c-0.426,0.119-0.849,0.236-1.225,0.293l-0.584,0.105c-0.273,0.053-0.443,0.047-0.674,0.072
		c-0.424,0.043-0.849,0.076-1.272,0.053c-0.422,0-0.842-0.02-1.248-0.082c-0.412-0.039-0.815-0.102-1.211-0.195
		c-0.392-0.072-0.775-0.17-1.146-0.287c-0.374-0.1-0.73-0.225-1.076-0.356c-0.354-0.123-0.686-0.264-1.001-0.412
		c-0.644-0.287-1.226-0.596-1.751-0.902c-2.103-1.221-3.268-2.344-3.268-2.344L3.62,16.227z"/>
	<g>
		<path fill="#CB7E3D" d="M27.743,39.555c0,0-0.67,0.477-1.717,1.111c-0.525,0.316-1.141,0.686-1.822,1.051
			c-0.688,0.359-1.425,0.742-2.239,1.035c-0.404,0.15-0.847,0.279-1.348,0.344c-0.399,0.057-0.778,0.141-1.212,0.178
			c-0.836,0.111-1.537-0.039-2.153-0.227c-0.607-0.191-1.094-0.438-1.429-0.648c-0.331-0.205-0.507-0.379-0.507-0.379l0.028-0.191
			c0,0,0.223-0.109,0.592-0.217c0.368-0.111,0.89-0.232,1.492-0.299c0.598-0.072,1.308-0.088,1.99,0.053
			c0.332,0.076,0.729,0.133,1.131,0.152c0.294,0.018,0.65-0.033,1.024-0.115c1.492-0.338,3.043-0.893,4.179-1.303
			c1.14-0.432,1.9-0.721,1.9-0.721L27.743,39.555z"/>
		<path fill="#CB7E3D" d="M28.381,49.989c0,0-0.451,0.404-1.217,0.9c-0.756,0.51-1.846,1.084-3.02,1.475
			c-0.585,0.195-1.185,0.396-1.773,0.469c-0.291,0.037-0.574,0.053-0.85,0.027c-0.272-0.012-0.521-0.025-0.758-0.082
			c-0.465-0.084-0.84-0.205-1.092-0.338c-0.248-0.107-0.383-0.188-0.383-0.188l0.019-0.096c0,0,0.158-0.029,0.425-0.059
			c0.133-0.016,0.293-0.027,0.465-0.033c0.186-0.025,0.388-0.057,0.603-0.07c0.216-0.014,0.445-0.057,0.69-0.082
			c0.244-0.027,0.502-0.061,0.764-0.096c0.537-0.037,1.109-0.088,1.68-0.207c1.146-0.227,2.25-0.67,3.067-1.02
			c0.815-0.363,1.321-0.682,1.321-0.682L28.381,49.989z"/>
	</g>
	<path fill="#CB7E3D" d="M20.601,9.876c0,0-0.013-0.039-0.038-0.113c-0.031-0.07-0.045-0.199-0.143-0.307
		c-0.068-0.123-0.197-0.242-0.357-0.353c-0.166-0.104-0.368-0.172-0.574-0.229c-0.211-0.025-0.426-0.084-0.663-0.064
		c-0.048,0-0.151,0-0.16-0.004l-0.226,0.035c-0.163,0.02-0.239,0.066-0.382,0.113c-0.263,0.119-0.486,0.35-0.613,0.635
		c-0.12,0.295-0.094,0.627-0.006,0.914c0.137,0.316,0.305,0.504,0.507,0.691c0.214,0.172,0.456,0.285,0.7,0.324
		c0.248,0.022,0.479,0.031,0.707-0.039c0.168-0.031,0.221-0.088,0.316-0.119c0.089-0.029,0.179-0.109,0.275-0.15
		c0.174-0.123,0.33-0.262,0.447-0.42c0.104-0.158,0.182-0.32,0.2-0.465c0.045-0.137,0.011-0.252,0.013-0.33
		C20.602,9.917,20.601,9.876,20.601,9.876z M20.673,9.858c0,0,0.01,0.045,0.019,0.123c0.003,0.082,0.041,0.203,0.037,0.356
		c0.011,0.158,0.002,0.346-0.033,0.578c-0.051,0.223-0.136,0.482-0.313,0.73c-0.104,0.111-0.197,0.234-0.349,0.336
		c-0.149,0.098-0.335,0.197-0.455,0.229c-0.322,0.141-0.727,0.137-1.102,0.051c-0.375-0.101-0.72-0.318-0.995-0.607
		c-0.265-0.295-0.408-0.727-0.44-1.072c-0.021-0.777,0.287-1.439,0.79-1.949c0.133-0.113,0.316-0.252,0.449-0.309l0.208-0.1
		c0.136-0.039,0.187-0.037,0.282-0.057c0.345-0.057,0.682,0.033,0.942,0.172c0.262,0.154,0.443,0.359,0.57,0.545
		c0.124,0.197,0.201,0.371,0.254,0.521c0.069,0.145,0.072,0.26,0.105,0.334C20.66,9.817,20.673,9.858,20.673,9.858z"/>
	<path fill="#FCD29A" d="M43.546,41.114"/>
	<g opacity="0.5">
		<path fill="#FCD29A" d="M37.331,57.669c-1.897-1.668-4.73-6.881-1.749-12.766c2.974-5.883,4.475-13.127,2.121-18.623l0.001-0.002
			c-0.967-3.129-2.662-6.223-3.611-7.609c-1.294-1.893-3.952-3.844-5.512-3.215c-1.559,0.633-3.502,4.787-6.748,5.912
			c-3.243,1.127-8.365,1.984-6.703,3.898c1.664,1.916-3.758,5.719-0.445,9.873c3.313,4.156,5.962,5.154,11.15,3.32
			c1.191-0.42,2.508-0.871,3.825-1.361l0,0l0,0c0.158-0.061,0.317-0.119,0.476-0.178c0.59-0.178,1.568-0.273,2.027,0.805
			c0.676,1.588-3.693,4.982-6.559,6.035c-2.864,1.051-2.293,2.258-0.938,4.156c1.354,1.896,3.015,1.203,4.732,0.144
			c1.717-1.066,2.696,0.217,1.023,2.697c-1.672,2.482,4.096,7.713,6.046,8.531C38.412,60.104,39.221,59.341,37.331,57.669z"/>
		<path fill="#FCD29A" d="M20.717,4.343c-0.639-0.395-5.004-3.178-6.721-2.756c-1.723,0.424-3.111,2.703-1.113,2.266
			c2-0.438,3.821-0.314,5.56,0.461C20.184,5.089,22.338,5.339,20.717,4.343z"/>
		<path fill="#FCD29A" d="M46.024,69.901c-4.048,1.686-4.877,2.893,0.16,1.732c5.037-1.162,7.772-3.951,5.77-5.559
			c-1.307-1.043-4.441-2.166-4.304-1.068C47.785,66.102,50.067,68.214,46.024,69.901z"/>
		<path fill="#FCD29A" d="M29.317,71.643c-1.267,0.115-4.888,2.037-5.516,3.232c-1.322,2.51-7.557,4.223-4.097,4.102
			C24.579,78.813,31.839,71.413,29.317,71.643z"/>
	</g>
</g>
<g>
</g>
<g>
</g>
<g>
</g>
<g>
</g>
<g>
</g>
<g>
</g>
<g>
</g>
<g>
</g>
<g>
</g>
<g>
</g>
<g>
</g>
<g>
</g>
<g>
</g>
<g>
</g>
<g>
</g>
</svg>
