<svg xmlns="http://www.w3.org/2000/svg" width="48.853" height="67.169" version="1" xmlns:xlink="http://www.w3.org/1999/xlink"><path fill="#392316" d="M22.4 22.6l4.6.52-4.94 44.05-4.6-.5z"/><path fill="#855334" d="M24.64 22.86l1.18.12-4.85 44.06-1.17-.13z"/><path fill="#fff" d="M48.8 25.57c.52-4.68-2.57-8.92-7.05-9.95 2.36-3.94 1.45-9.12-2.28-11.98C35.5.58 29.8 1.3 26.7 5.24 24.53.7 19.13-1.26 14.56.84c-4.27 1.97-6.3 6.8-4.88 11.18-4.6 0-8.56 3.46-9.08 8.14-.53 4.68 2.56 8.92 7.04 9.95-2.36 3.95-1.45 9.12 2.28 12 3.98 3.05 9.68 2.32 12.8-1.62 2.13 4.53 7.53 6.5 12.1 4.4 4.27-1.97 6.3-6.8 4.88-11.17 4.6 0 8.55-3.45 9.08-8.13zm-25 5.32c-.6-1.28-1.5-2.44-2.7-3.36-1.07-.82-2.27-1.37-3.5-1.65.64-1.1 1.1-2.35 1.24-3.7.15-1.35 0-2.66-.4-3.86 1.27 0 2.56-.27 3.8-.84 1.37-.63 2.5-1.55 3.37-2.66.6 1.27 1.5 2.43 2.7 3.35 1.08.8 2.28 1.35 3.52 1.64-.66 1.1-1.1 2.33-1.25 3.68-.15 1.35 0 2.66.4 3.87-1.27 0-2.56.26-3.8.82-1.37.64-2.5 1.56-3.36 2.67z"/><defs><path id="a" d="M48.8 25.57c.52-4.68-2.57-8.92-7.05-9.95 2.36-3.94 1.45-9.12-2.28-11.98C35.5.58 29.8 1.3 26.7 5.24 24.53.7 19.13-1.26 14.56.84c-4.27 1.97-6.3 6.8-4.88 11.18-4.6 0-8.56 3.46-9.08 8.14-.53 4.68 2.56 8.92 7.04 9.95-2.36 3.95-1.45 9.12 2.28 12 3.98 3.05 9.68 2.32 12.8-1.62 2.13 4.53 7.53 6.5 12.1 4.4 4.27-1.97 6.3-6.8 4.88-11.17 4.6 0 8.55-3.45 9.08-8.13zm-25 5.32c-.6-1.28-1.5-2.44-2.7-3.36-1.07-.82-2.27-1.37-3.5-1.65.64-1.1 1.1-2.35 1.24-3.7.15-1.35 0-2.66-.4-3.86 1.27 0 2.56-.27 3.8-.84 1.37-.63 2.5-1.55 3.37-2.66.6 1.27 1.5 2.43 2.7 3.35 1.08.8 2.28 1.35 3.52 1.64-.66 1.1-1.1 2.33-1.25 3.68-.15 1.35 0 2.66.4 3.87-1.27 0-2.56.26-3.8.82-1.37.64-2.5 1.56-3.36 2.67z"/></defs><clipPath id="b"><use xlink:href="#a" overflow="visible"/></clipPath><path fill="#BBBDBF" d="M6.4 37.9s4.65 5.3 9.3 4.3c4.67-1 7.18-3.05 7.35-4.56-.3 2.05 2.86 5.22 5.83 6.05 2.97.8 7.5.43 10.5-1.55 3-2-2.46 4.3-2.46 4.3s-19.3.22-19.45.25c-.15.03-8.77-1.92-8.77-1.92L6.4 37.9z" clip-path="url(#b)"/><path fill="#E6E7E8" d="M29.7 3.66s5.33-2.25 8.76.27c3.43 2.53 4.4 7.34 1.9 10.95 1.63-4.4.68-6.93-.38-7.85-2.37-2.1-6.17-1.45-7.8-.12-1.62 1.35-5.46-1.66-2.47-3.24zM36.1 17.72s5.44-1.94 8.72.8c3.27 2.7 3.74 7.93.7 11.78 2.28-4.85 1.63-7.63.63-8.62-2.24-2.22-6.08-1.8-7.78-.57-1.7 1.24-5.35-1.98-2.28-3.38zM21.58 29.78s-6.87-1.64-11-.6c-1.32.3-3.87 3.88-2.55 8.6-.23-5.36 1.4-7.65 4.7-8.22 3.28-.56 5.14-.15 6.24 1.65 1.1 1.8 4.9 1.06 2.6-1.42zM32.9 28.9c-2.22-.54-4.4.4-5.96 1.4.94.27 1.55.9 1.87 1.65 1.74-1.02 4.5-1.5 6.7-.76 1.32.44 3.12 2.65 3.2 8.02 1.05-4.8-1.65-9.3-5.8-10.3zM10.5 9.56s.85-5.7 4.8-7.32c3.94-1.6 8.82-.02 10.8 4.47-3.22-4.28-6.03-4.55-7.37-4.13-3 .93-4.46 4.5-4.17 6.58.3 2.08-4.28 3.8-4.07.4z"/><defs><path id="c" d="M12.17 15.35s-2.32-2.38-2.96-4.17c-.62-1.8-4.72 2.5-4.72 2.5l-3.7 5.5 1.6 4.1s6.38-.1 6.57-.1c.2-.04 3.22-7.83 3.22-7.83z"/></defs><clipPath id="d"><use xlink:href="#c" overflow="visible"/></clipPath><path fill="#E6E7E8" d="M2.17 18.7s2.48-5.2 6.72-5.6c4.24-.4 8.42 1.55 9 6.43-1.82-5.05-4.4-5.13-5.82-5.12-3.15.02-5.57 3.02-5.9 5.1-.33 2.07-5.2 2.38-4-.8z" clip-path="url(#d)"/><defs><path id="e" d="M36 24.13c-.7 6.25-6.32 10.75-12.57 10.04-6.24-.7-10.74-6.33-10.03-12.58.7-6.25 6.33-10.75 12.58-10.04 6.24.7 10.74 6.33 10.03 12.57z"/></defs><use fill="#BBBDBF" xlink:href="#e" overflow="visible"/><clipPath id="f"><use xlink:href="#e" overflow="visible"/></clipPath><path fill="#BBBDBF" d="M36.12 22.44c-.68 6.1-6.18 10.48-12.27 9.8-6.1-.68-10.48-6.18-9.8-12.28.7-6.1 6.2-10.47 12.28-9.8 6.1.7 10.48 6.2 9.8 12.28z" clip-path="url(#f)"/><path fill="#BBBDBF" d="M23.43 37.9s1.02-3.6-.67-4.32c3.66-1.38 4.67-.4 4.67-.4l-.08.8s-1.93.48-2.44 1.12c-.5.63-.7 2.6-1.47 2.8zM11.63 14.97s2.93 2.34 4.24 1.07c-.15 3.9-1.46 4.46-1.46 4.46l-.67-.4s.3-1.96-.1-2.68c-.38-.7-2.1-1.66-2-2.45zM26.1 7.85s-1.04 3.6.64 4.32c-3.66 1.37-4.67.38-4.67.38l.1-.78s1.92-.5 2.43-1.13c.5-.63.72-2.58 1.5-2.8zM38.43 15.77s-3.5 1.37-3.05 3.14c-3.3-2.08-3.13-3.48-3.13-3.48l.68-.4s1.56 1.24 2.37 1.26c.8.02 2.5-1 3.13-.5zM10.57 29.17s3.56-1.16 3.23-2.95c3.17 2.3 2.9 3.67 2.9 3.67l-.7.35s-1.47-1.33-2.28-1.4c-.8-.07-2.55.84-3.15.32zM37.76 30.7s-2.94-2.34-4.24-1.06c.13-3.9 1.43-4.46 1.43-4.46l.68.38s-.28 1.97.1 2.68c.4.7 2.12 1.66 2.03 2.45z"/><path fill="#AF1E50" d="M35.28 24.06c-.66 5.84-5.92 10.04-11.76 9.38-5.85-.65-10.05-5.92-9.4-11.76.66-5.85 5.93-10.05 11.78-9.4 5.84.66 10.04 5.93 9.38 11.78z"/><defs><path id="g" d="M35.28 24.06c-.66 5.84-5.92 10.04-11.76 9.38-5.85-.65-10.05-5.92-9.4-11.76.66-5.85 5.93-10.05 11.78-9.4 5.84.66 10.04 5.93 9.38 11.78z"/></defs><clipPath id="h"><use xlink:href="#g" overflow="visible"/></clipPath><path fill="#E21665" d="M35.38 22.47c-.64 5.7-5.78 9.8-11.48 9.16-5.7-.64-9.8-5.78-9.16-11.48.65-5.7 5.78-9.8 11.48-9.16 5.7.63 9.8 5.77 9.16 11.47z" clip-path="url(#h)"/><path fill="#EC8395" d="M21.65 14.1c-4.5 1.28-5.9 8.25-1.38 10.3 4.52 2.08 6.07-.48 8.56-.3 2.2.2 4.97.65 5.2-1.33.26-2.4-2.83-11.3-12.38-8.66z"/><path fill="#116433" d="M19.58 57.82s4.23-11.2-7.2-15.24C5 40.28.03 41.2.03 41.2s-.72 12 5.33 16.72c6.04 4.7 14.22-.1 14.22-.1z"/><path fill="#1DAE59" d="M19.24 54.17s-.12-6.84-4.45-9.17c-4.35-2.34-13.4-3.06-13.4-3.06s16.16 13.3 17 14.5c.82 1.2.84-2.27.84-2.27z"/><defs><path id="i" d="M19.58 57.82s4.23-11.2-7.2-15.24C5 40.28.03 41.2.03 41.2s-.72 12 5.33 16.72c6.04 4.7 14.22-.1 14.22-.1z"/></defs><clipPath id="j"><use xlink:href="#i" overflow="visible"/></clipPath><path fill="#074A24" d="M19.07 58.35s-7.15 2-11.4-.2C3.43 55.96 1.2 53-.25 40.76c-1.45-12.2-1.4 12.36-1.4 12.36L8.42 63.5l7.16-1.62 3.5-3.5z" clip-path="url(#j)"/></svg>