<?xml version="1.0" encoding="utf-8"?>
<!-- Generator: Adobe Illustrator 17.0.0, SVG Export Plug-In . SVG Version: 6.00 Build 0)  -->
<!DOCTYPE svg PUBLIC "-//W3C//DTD SVG 1.0//EN" "http://www.w3.org/TR/2001/REC-SVG-20010904/DTD/svg10.dtd">
<svg version="1.0" id="Layer_1" xmlns="http://www.w3.org/2000/svg" xmlns:xlink="http://www.w3.org/1999/xlink" x="0px" y="0px"
	 width="66.9px" height="60.675px" viewBox="0 0 66.9 60.675" enable-background="new 0 0 66.9 60.675" xml:space="preserve">
<g>
	<g>
		
			<rect x="22.48" y="8.496" transform="matrix(-0.6407 -0.7678 0.7678 -0.6407 10.6521 81.4236)" fill="#392316" width="3.795" height="59.447"/>
		
			<rect x="23.592" y="8.129" transform="matrix(-0.6406 -0.7679 0.7679 -0.6406 10.4287 80.5879)" fill="#855334" width="0.967" height="59.448"/>
	</g>
	<g>
		<path fill="#E21665" d="M33.012,13.812c-3.626,0.99-6.015,4.568-5.432,8.375c0.624,4.072,4.409,6.867,8.473,6.287
			c-1.294,3.896,0.782,8.119,4.675,9.459c3.642,1.258,7.584-0.455,9.211-3.848c2.723,2.598,7.021,2.789,9.977,0.324
			c2.955-2.471,3.529-6.729,1.465-9.871c3.628-0.996,6.018-4.572,5.432-8.377c-0.625-4.07-4.408-6.865-8.471-6.289
			c1.293-3.897-0.782-8.121-4.674-9.461c-3.643-1.256-7.586,0.455-9.211,3.848c-2.726-2.594-7.02-2.789-9.977-0.322
			S30.947,10.666,33.012,13.812z M42.419,19.908c-0.168-1.098-0.571-2.1-1.145-2.971c1.004-0.275,1.971-0.76,2.826-1.475
			c0.853-0.713,1.502-1.574,1.951-2.514c0.758,0.717,1.67,1.293,2.718,1.658c1.164,0.404,2.362,0.496,3.501,0.332
			c-0.362,1.09-0.484,2.283-0.3,3.502c0.169,1.1,0.575,2.098,1.149,2.969c-1.01,0.279-1.975,0.762-2.826,1.475
			c-0.855,0.715-1.504,1.576-1.953,2.516c-0.756-0.719-1.669-1.297-2.721-1.66c-1.164-0.4-2.358-0.49-3.5-0.33
			C42.484,22.32,42.609,21.125,42.419,19.908z"/>
		<g>
			<defs>
				<path id="SVGID_41_" d="M33.012,13.812c-3.626,0.99-6.015,4.568-5.432,8.375c0.624,4.072,4.409,6.867,8.473,6.287
					c-1.294,3.896,0.782,8.119,4.675,9.459c3.642,1.258,7.584-0.455,9.211-3.848c2.723,2.598,7.021,2.789,9.977,0.324
					c2.955-2.471,3.529-6.729,1.465-9.871c3.628-0.996,6.018-4.572,5.432-8.377c-0.625-4.07-4.408-6.865-8.471-6.289
					c1.293-3.897-0.782-8.121-4.674-9.461c-3.643-1.256-7.586,0.455-9.211,3.848c-2.726-2.594-7.02-2.789-9.977-0.322
					S30.947,10.666,33.012,13.812z M42.419,19.908c-0.168-1.098-0.571-2.1-1.145-2.971c1.004-0.275,1.971-0.76,2.826-1.475
					c0.853-0.713,1.502-1.574,1.951-2.514c0.758,0.717,1.67,1.293,2.718,1.658c1.164,0.404,2.362,0.496,3.501,0.332
					c-0.362,1.09-0.484,2.283-0.3,3.502c0.169,1.1,0.575,2.098,1.149,2.969c-1.01,0.279-1.975,0.762-2.826,1.475
					c-0.855,0.715-1.504,1.576-1.953,2.516c-0.756-0.719-1.669-1.297-2.721-1.66c-1.164-0.4-2.358-0.49-3.5-0.33
					C42.484,22.32,42.609,21.125,42.419,19.908z"/>
			</defs>
			<clipPath id="SVGID_2_">
				<use xlink:href="#SVGID_41_"  overflow="visible"/>
			</clipPath>
			<path clip-path="url(#SVGID_2_)" fill="#AF1E50" d="M45.179,38.457c0,0-5.721-0.772-7.137-4.408
				c-1.412-3.639-1.153-6.277-0.193-7.074c-1.268,1.117-4.854,0.396-6.76-1.26c-1.908-1.654-3.693-4.93-3.686-7.871
				c0.007-2.934-1.831,3.629-1.831,3.629s8.554,13.277,8.6,13.396c0.045,0.119,5.275,5.127,5.275,5.127L45.179,38.457z"/>
		</g>
		<g>
			<path fill="#EC8395" d="M58.056,7.095c0,0-0.857-4.658-4.133-5.865c-3.277-1.199-6.988,0.312-8.34,3.637
				c2.279-3.088,4.432-3.576,5.543-3.275c2.485,0.68,3.775,3.562,3.594,5.277C54.54,8.578,58.326,9.847,58.056,7.095z"/>
			<path fill="#EC8395" d="M45.576,9.07c0,0-1.133-4.598-4.473-5.604c-3.343-1.008-7.119,1.023-8.386,4.84
				c2.292-3.744,4.485-4.549,5.614-4.314c2.521,0.527,3.978,3.332,3.9,5.049C42.152,10.761,46.005,11.802,45.576,9.07z"/>
			<path fill="#EC8395" d="M43.876,24.431c0,0,4.226,3.955,5.392,7.246c0.371,1.037-0.913,4.385-4.742,5.617
				c3.765-2.256,4.592-4.414,3.492-6.916c-1.094-2.492-2.215-3.584-3.932-3.521C42.365,26.924,41.148,23.974,43.876,24.431z"/>
			<path fill="#EC8395" d="M39.365,16.299c1.378,1.275,1.719,3.188,1.754,4.693c-0.615-0.508-1.326-0.648-1.984-0.527
				c-0.076-1.645-1.002-3.75-2.49-4.902c-0.912-0.707-3.236-0.939-6.936,1.424C32.515,14.109,36.798,13.931,39.365,16.299z"/>
			<path fill="#EC8395" d="M62.693,22.883c0,0,3.52-3.164,2.834-6.584c-0.684-3.426-3.963-6.043-7.927-5.361
				c4.387,0.26,5.838,2.057,6.159,3.166c0.721,2.471-1.066,5.08-2.619,5.816C59.586,20.66,60.484,24.55,62.693,22.883z"/>
			<g>
				<defs>
					<path id="SVGID_43_" d="M57.986,24.351c0,0,2.666,0.506,4.182,0.137c1.515-0.375,0.438,4.352,0.438,4.352l-2.107,5.027
						l-3.5,0.746c0,0-2.828-4.394-2.9-4.541C54.023,29.922,57.986,24.351,57.986,24.351z"/>
				</defs>
				<clipPath id="SVGID_4_">
					<use xlink:href="#SVGID_43_"  overflow="visible"/>
				</clipPath>
				<path clip-path="url(#SVGID_4_)" fill="#EC8395" d="M60.202,32.699c0,0,2.448-4.055,0.797-7.127
					c-1.649-3.076-4.859-5.06-8.453-3.258c4.271-1.029,5.493,0.707,6.122,1.672c1.412,2.154,0.459,5.168-0.814,6.33
					C56.585,31.472,58.572,34.937,60.202,32.699z"/>
			</g>
		</g>
		<g>
			<defs>
				<path id="SVGID_45_" d="M41.226,12.021c-3.951,3.297-4.481,9.172-1.183,13.121c3.3,3.949,9.171,4.48,13.124,1.188
					c3.949-3.301,4.479-9.174,1.182-13.127C51.053,9.254,45.175,8.724,41.226,12.021z"/>
			</defs>
			<use xlink:href="#SVGID_45_"  overflow="visible" fill="#AF1E50"/>
			<clipPath id="SVGID_6_">
				<use xlink:href="#SVGID_45_"  overflow="visible"/>
			</clipPath>
			<path clip-path="url(#SVGID_6_)" fill="#AF1E50" d="M42.331,11.183c-3.851,3.219-4.368,8.951-1.151,12.807
				c3.217,3.851,8.951,4.367,12.803,1.152c3.855-3.217,4.369-8.949,1.152-12.803S46.183,7.968,42.331,11.183z"/>
		</g>
		<path fill="#AF1E50" d="M37.503,26.828c0,0,2.002-2.32,3.248-1.494c-0.709-3.121-1.838-3.365-1.838-3.365l-0.495,0.41
			c0,0,0.532,1.543,0.329,2.172C38.542,25.183,37.305,26.211,37.503,26.828z"/>
		<path fill="#AF1E50" d="M58.485,24.543c0,0-2.919-0.943-2.644-2.414c-2.596,1.867-2.383,3.008-2.383,3.008l0.567,0.295
			c0,0,1.215-1.094,1.878-1.146C56.568,24.228,57.996,24.965,58.485,24.543z"/>
		<path fill="#AF1E50" d="M56.832,11.455c0,0-2.004,2.326-3.248,1.506c0.719,3.115,1.848,3.357,1.848,3.357l0.494-0.41
			c0,0-0.538-1.539-0.334-2.174C55.796,13.101,57.031,12.072,56.832,11.455z"/>
		<path fill="#AF1E50" d="M45.846,6.601c0,0,0.646,3.002-0.767,3.494c2.918,1.316,3.797,0.562,3.797,0.562l-0.031-0.642
			c0,0-1.551-0.5-1.932-1.051C46.531,8.424,46.459,6.814,45.846,6.601z"/>
		<path fill="#AF1E50" d="M49.267,31.677c0,0-0.822-2.957,0.557-3.539c-2.994-1.137-3.822-0.332-3.822-0.332l0.072,0.637
			c0,0,1.576,0.412,1.987,0.94C48.472,29.902,48.64,31.5,49.267,31.677z"/>
		<path fill="#AF1E50" d="M35.962,13.787c0,0,2.914,0.959,2.629,2.426c2.609-1.851,2.402-2.988,2.402-2.988l-0.569-0.303
			c0,0-1.22,1.088-1.884,1.139C37.877,14.113,36.455,13.365,35.962,13.787z"/>
		<path fill="#C4B92F" d="M41.614,12.486c-3.696,3.082-4.191,8.578-1.107,12.271c3.084,3.695,8.578,4.191,12.273,1.105
			c3.696-3.088,4.19-8.578,1.106-12.272C50.804,9.892,45.306,9.4,41.614,12.486z"/>
		<g>
			<defs>
				<path id="SVGID_47_" d="M41.614,12.486c-3.696,3.082-4.191,8.578-1.107,12.271c3.084,3.695,8.578,4.191,12.273,1.105
					c3.696-3.088,4.19-8.578,1.106-12.272C50.804,9.892,45.306,9.4,41.614,12.486z"/>
			</defs>
			<clipPath id="SVGID_8_">
				<use xlink:href="#SVGID_47_"  overflow="visible"/>
			</clipPath>
			<path clip-path="url(#SVGID_8_)" fill="#F8E800" d="M42.647,11.703c-3.608,3.01-4.089,8.369-1.081,11.977
				c3.01,3.602,8.373,4.086,11.975,1.078c3.607-3.01,4.09-8.369,1.08-11.975C51.612,9.174,46.253,8.693,42.647,11.703z"/>
		</g>
		<path fill="#FAEE85" d="M54.546,17.316c1.176,3.645-2.965,7.736-6.408,5.58c-3.447-2.146-2.396-4.361-3.66-5.976
			c-1.111-1.426-2.672-3.109-1.426-4.15C44.584,11.492,52.057,9.586,54.546,17.316z"/>
	</g>
	<g>
		<path fill="#116433" d="M18.263,42.976c0,0,8.836-4.23,4.364-13.084c-3.05-5.547-6.523-7.818-6.523-7.818
			S8.885,28.775,9.795,34.98C10.704,41.193,18.263,42.976,18.263,42.976z"/>
		<path fill="#1DAE59" d="M20.127,40.627c0,0,3.796-4.113,2.557-7.949c-1.236-3.838-6.185-9.383-6.185-9.383
			s2.029,17.012,1.839,18.199C18.143,42.668,20.127,40.627,20.127,40.627z"/>
		<g>
			<defs>
				<path id="SVGID_49_" d="M18.263,42.976c0,0,8.836-4.23,4.364-13.084c-3.05-5.547-6.523-7.818-6.523-7.818
					S8.885,28.775,9.795,34.98C10.704,41.193,18.263,42.976,18.263,42.976z"/>
			</defs>
			<clipPath id="SVGID_10_">
				<use xlink:href="#SVGID_49_"  overflow="visible"/>
			</clipPath>
			<path clip-path="url(#SVGID_10_)" fill="#074A24" d="M17.66,42.998c0,0-5.364-2.853-6.628-6.562
				c-1.267-3.709-0.912-6.73,5.153-14.773c6.062-8.047-7.806,6.516-7.806,6.516l0.075,11.824l5.144,3.09L17.66,42.998z"/>
		</g>
	</g>
</g>
</svg>
