<?xml version="1.0" encoding="utf-8"?>
<!-- Generator: Adobe Illustrator 17.0.0, SVG Export Plug-In . SVG Version: 6.00 Build 0)  -->
<!DOCTYPE svg PUBLIC "-//W3C//DTD SVG 1.0//EN" "http://www.w3.org/TR/2001/REC-SVG-20010904/DTD/svg10.dtd">
<svg version="1.0" id="Layer_1" xmlns="http://www.w3.org/2000/svg" xmlns:xlink="http://www.w3.org/1999/xlink" x="0px" y="0px"
	 width="41.515px" height="40.035px" viewBox="0 0 41.515 40.035" enable-background="new 0 0 41.515 40.035" xml:space="preserve">
<g>
	<g>
		
			<rect x="12.505" y="8.186" transform="matrix(0.6456 0.7636 -0.7636 0.6456 24.1727 -1.6939)" fill="#392316" width="2.813" height="34.026"/>
		
			<rect x="13.781" y="8.456" transform="matrix(0.6482 0.7614 -0.7614 0.6482 24.3653 -1.8077)" fill="#855334" width="0.716" height="34.023"/>
	</g>
	<g>
		<path fill="#E21665" d="M36.402,25.474c2.183-1.842,2.592-5.004,1.049-7.328c2.684-0.746,4.441-3.406,3.994-6.227
			c-0.48-3.014-3.293-5.074-6.307-4.627c0.943-2.895-0.609-6.018-3.5-6.996c-2.705-0.918-5.623,0.365-6.812,2.887
			c-2.031-1.91-5.215-2.041-7.399-0.199c-2.182,1.842-2.59,5.002-1.049,7.326c-2.685,0.748-4.442,3.408-3.993,6.23
			c0.477,3.012,3.294,5.068,6.304,4.629c-0.941,2.891,0.612,6.012,3.502,6.992c2.705,0.916,5.621-0.365,6.812-2.887
			C31.035,27.183,34.219,27.316,36.402,25.474z M23.168,17.392c0.267-0.814,0.354-1.699,0.208-2.6
			c-0.128-0.814-0.433-1.557-0.858-2.199c0.744-0.209,1.459-0.572,2.088-1.1c0.629-0.535,1.106-1.176,1.435-1.875
			c0.565,0.529,1.242,0.953,2.025,1.217c0.864,0.295,1.749,0.359,2.594,0.232c-0.266,0.813-0.354,1.697-0.207,2.598
			c0.127,0.814,0.433,1.557,0.861,2.199c-0.748,0.211-1.459,0.568-2.09,1.102c-0.629,0.533-1.107,1.174-1.438,1.873
			c-0.562-0.531-1.242-0.951-2.022-1.219C24.897,17.328,24.014,17.265,23.168,17.392z"/>
		<g>
			<defs>
				<path id="SVGID_31_" d="M36.402,25.474c2.183-1.842,2.592-5.004,1.049-7.328c2.684-0.746,4.441-3.406,3.994-6.227
					c-0.48-3.014-3.293-5.074-6.307-4.627c0.943-2.895-0.609-6.018-3.5-6.996c-2.705-0.918-5.623,0.365-6.812,2.887
					c-2.031-1.91-5.215-2.041-7.399-0.199c-2.182,1.842-2.59,5.002-1.049,7.326c-2.685,0.748-4.442,3.408-3.993,6.23
					c0.477,3.012,3.294,5.068,6.304,4.629c-0.941,2.891,0.612,6.012,3.502,6.992c2.705,0.916,5.621-0.365,6.812-2.887
					C31.035,27.183,34.219,27.316,36.402,25.474z M23.168,17.392c0.267-0.814,0.354-1.699,0.208-2.6
					c-0.128-0.814-0.433-1.557-0.858-2.199c0.744-0.209,1.459-0.572,2.088-1.1c0.629-0.535,1.106-1.176,1.435-1.875
					c0.565,0.529,1.242,0.953,2.025,1.217c0.864,0.295,1.749,0.359,2.594,0.232c-0.266,0.813-0.354,1.697-0.207,2.598
					c0.127,0.814,0.433,1.557,0.861,2.199c-0.748,0.211-1.459,0.568-2.09,1.102c-0.629,0.533-1.107,1.174-1.438,1.873
					c-0.562-0.531-1.242-0.951-2.022-1.219C24.897,17.328,24.014,17.265,23.168,17.392z"/>
			</defs>
			<clipPath id="SVGID_2_">
				<use xlink:href="#SVGID_31_"  overflow="visible"/>
			</clipPath>
			<path clip-path="url(#SVGID_2_)" fill="#AF1E50" d="M12.578,13.22c0,0-0.175,4.279,2.301,5.777c2.473,1.5,4.432,1.65,5.135,1.053
				c-0.978,0.781-0.91,3.49,0.053,5.098c0.965,1.606,3.123,3.328,5.269,3.705c2.145,0.371-2.876,0.865-2.876,0.865
				s-8.597-7.953-8.678-8c-0.079-0.051-3.064-4.51-3.064-4.51L12.578,13.22z"/>
		</g>
		<g>
			<path fill="#EC8395" d="M37.133,7.855c0,0,3.287,1.225,3.744,3.771c0.458,2.547-1.127,5.062-3.728,5.621
				c2.553-1.268,3.183-2.774,3.108-3.627c-0.176-1.902-2.121-3.211-3.39-3.303C35.594,10.232,35.154,7.304,37.133,7.855z"/>
			<path fill="#EC8395" d="M34.084,16.711c0,0,3.207,1.42,3.514,3.99c0.307,2.568-1.661,5.062-4.611,5.498
				c3.03-1.195,3.896-2.689,3.873-3.545c-0.062-1.908-1.924-3.332-3.188-3.494C32.406,18.996,32.141,16.047,34.084,16.711z"/>
			<path fill="#EC8395" d="M22.65,15.976c0,0-2.346-3.592-4.598-4.865c-0.713-0.404-3.321,0.104-4.711,2.736
				c2.133-2.457,3.812-2.783,5.499-1.662c1.68,1.119,2.331,2.08,2.066,3.326C20.637,16.757,22.631,18.029,22.65,15.976z"/>
			<path fill="#EC8395" d="M28.005,20.318c-0.751-1.174-2.102-1.666-3.204-1.883c0.297,0.516,0.309,1.045,0.133,1.514
				c1.191,0.268,2.611,1.217,3.262,2.449c0.396,0.754,0.268,2.483-1.934,4.879C28.723,25.599,29.404,22.494,28.005,20.318z"/>
			<path fill="#EC8395" d="M26.2,2.439c0,0,2.763-2.164,5.173-1.223c2.41,0.941,3.9,3.672,2.894,6.477
				c0.374-3.234-0.753-4.525-1.519-4.904c-1.711-0.846-3.846,0.127-4.584,1.164C27.426,4.992,24.699,3.838,26.2,2.439z"/>
			<g>
				<defs>
					<path id="SVGID_33_" d="M24.524,5.687c0,0-0.03-2.014,0.437-3.068c0.469-1.06-3.121-0.883-3.121-0.883l-3.941,0.893
						l-0.995,2.459c0,0,2.846,2.631,2.944,2.701C19.945,7.863,24.524,5.687,24.524,5.687z"/>
				</defs>
				<clipPath id="SVGID_4_">
					<use xlink:href="#SVGID_33_"  overflow="visible"/>
				</clipPath>
				<path clip-path="url(#SVGID_4_)" fill="#EC8395" d="M18.715,2.996c0,0,3.272-1.266,5.305,0.334
					c2.035,1.6,3.066,4.199,1.289,6.592c1.298-2.986,0.191-4.104-0.43-4.686c-1.391-1.309-3.714-1.002-4.724-0.223
					C19.145,5.795,16.872,3.896,18.715,2.996z"/>
			</g>
		</g>
		<g>
			<defs>
				<path id="SVGID_35_" d="M31.369,19.509c-2.917,2.461-7.275,2.09-9.734-0.828c-2.461-2.912-2.09-7.27,0.825-9.73
					c2.917-2.459,7.276-2.094,9.735,0.824C34.654,12.691,34.285,17.047,31.369,19.509z"/>
			</defs>
			<use xlink:href="#SVGID_35_"  overflow="visible" fill="#AF1E50"/>
			<clipPath id="SVGID_6_">
				<use xlink:href="#SVGID_35_"  overflow="visible"/>
			</clipPath>
			<path clip-path="url(#SVGID_6_)" fill="#AF1E50" d="M32.121,18.806c-2.844,2.402-7.096,2.041-9.496-0.805
				c-2.401-2.842-2.04-7.094,0.805-9.494c2.844-2.402,7.096-2.039,9.496,0.805C35.328,12.158,34.966,16.408,32.121,18.806z"/>
		</g>
		<path fill="#AF1E50" d="M20.078,20.32c0,0,1.954-1.164,1.51-2.178c2.188,0.92,2.221,1.775,2.221,1.775l-0.363,0.309
			c0,0-1.057-0.59-1.544-0.52C21.413,19.773,20.504,20.545,20.078,20.32z"/>
		<path fill="#AF1E50" d="M24.448,5.293c0,0,0.313,2.256,1.419,2.246c-1.696,1.652-2.499,1.352-2.499,1.352l-0.142-0.453
			c0,0,0.952-0.746,1.079-1.223C24.431,6.736,24.074,5.601,24.448,5.293z"/>
		<path fill="#AF1E50" d="M33.791,8.189c0,0-1.957,1.16-1.518,2.176c-2.184-0.924-2.215-1.781-2.215-1.781l0.363-0.305
			c0,0,1.057,0.588,1.545,0.52C32.454,8.732,33.365,7.963,33.791,8.189z"/>
		<path fill="#AF1E50" d="M35.921,16.834c0,0-2.11-0.856-2.651,0.109c-0.586-2.299,0.078-2.844,0.078-2.844l0.465,0.104
			c0,0,0.168,1.199,0.517,1.547C34.68,16.095,35.842,16.357,35.921,16.834z"/>
		<path fill="#AF1E50" d="M18.053,11.111c0,0,2.055,0.979,2.652,0.049c0.449,2.326-0.246,2.83-0.246,2.83l-0.457-0.133
			c0,0-0.096-1.207-0.426-1.572C19.249,11.916,18.101,11.588,18.053,11.111z"/>
		<path fill="#AF1E50" d="M29.403,23.123c0,0-0.327-2.25-1.434-2.229c1.688-1.668,2.492-1.369,2.492-1.369l0.146,0.451
			c0,0-0.951,0.752-1.072,1.228C29.41,21.685,29.772,22.818,29.403,23.123z"/>
		<path fill="#C4B92F" d="M31.08,19.17c-2.729,2.299-6.801,1.951-9.102-0.775c-2.303-2.727-1.957-6.803,0.77-9.104
			c2.729-2.301,6.803-1.953,9.104,0.773C34.155,12.789,33.808,16.867,31.08,19.17z"/>
		<g>
			<defs>
				<path id="SVGID_37_" d="M31.08,19.17c-2.729,2.299-6.801,1.951-9.102-0.775c-2.303-2.727-1.957-6.803,0.77-9.104
					c2.729-2.301,6.803-1.953,9.104,0.773C34.155,12.789,33.808,16.867,31.08,19.17z"/>
			</defs>
			<clipPath id="SVGID_8_">
				<use xlink:href="#SVGID_37_"  overflow="visible"/>
			</clipPath>
			<circle clip-path="url(#SVGID_8_)" fill="#F8E800" cx="27.721" cy="13.695" r="6.302"/>
		</g>
		<path fill="#FAEE85" d="M29.22,9.103c-2.513-1.332-6.031,1.168-4.901,3.959c1.126,2.791,2.875,2.311,3.892,3.438
			c0.899,1,1.928,2.355,2.849,1.578C32.188,17.125,34.539,11.914,29.22,9.103z"/>
	</g>
	<g>
		<path fill="#116433" d="M7.447,30.914c0,0,4.225-5.906,10.115-1.504c3.652,2.941,4.866,5.77,4.866,5.77s-5.82,4.408-10.237,2.943
			C7.778,36.66,7.447,30.914,7.447,30.914z"/>
		<path fill="#1DAE59" d="M9.405,29.853c0,0,3.487-2.242,6.128-0.842c2.641,1.396,6.055,5.721,6.055,5.721S9.43,31.062,8.541,31.05
			C7.654,31.039,9.405,29.853,9.405,29.853z"/>
		<g>
			<defs>
				<path id="SVGID_39_" d="M7.447,30.914c0,0,4.225-5.906,10.115-1.504c3.652,2.941,4.866,5.77,4.866,5.77
					s-5.82,4.408-10.237,2.943C7.778,36.66,7.447,30.914,7.447,30.914z"/>
			</defs>
			<clipPath id="SVGID_10_">
				<use xlink:href="#SVGID_39_"  overflow="visible"/>
			</clipPath>
			<path clip-path="url(#SVGID_10_)" fill="#074A24" d="M7.353,31.349c0,0,1.392,4.287,3.937,5.686
				c2.547,1.4,4.798,1.527,11.451-1.863c6.651-3.389-5.764,4.863-5.764,4.863l-8.619-1.58l-1.596-4.15L7.353,31.349z"/>
		</g>
	</g>
</g>
</svg>
