<svg xmlns="http://www.w3.org/2000/svg" width="70.127" height="64.664" version="1" xmlns:xlink="http://www.w3.org/1999/xlink"><path fill="#FCC88A" d="M63.48 41.34c-1.5-5-3.7-9.13-4.64-10.35 2.74-1.74 4.93-1.73 7.34-2.77 2.4-1.03 6-5.3 1.54-7.94-4.46-2.64-8-3.58-10.1-6.2C55.57 11.46 50.26-2.27 36.27.8 29.16 2.4 25.43 12.2 32.7 20.87c3.05 3.56 2.62 5.65 2.62 5.65s-5.63 1.58-10.8-3.1c-5.2-4.7-5.36-5.94-9.76-4.53-4.4 1.4-10.26.48-12.8 2.6-2.56 2.1-.75 1.74-.28 7.7.47 5.94 2.82 20.05 13.54 27.7 10.72 7.66 24.8 8.73 35.3 3.77 10.5-4.95 14.45-14.3 12.96-19.33zm-15.6-24.43c-.93-.44-1.33-1.57-.88-2.5.46-.95 1.6-1.34 2.53-.9.94.46 1.33 1.6.88 2.53-.44.95-1.57 1.34-2.52.88z"/><defs><path id="a" d="M63.48 41.34c-1.5-5-3.7-9.13-4.64-10.35 2.74-1.74 4.93-1.73 7.34-2.77 2.4-1.03 6-5.3 1.54-7.94-4.46-2.64-8-3.58-10.1-6.2C55.57 11.46 50.26-2.27 36.27.8 29.16 2.4 25.43 12.2 32.7 20.87c3.05 3.56 2.62 5.65 2.62 5.65s-5.63 1.58-10.8-3.1c-5.2-4.7-5.36-5.94-9.76-4.53-4.4 1.4-10.26.48-12.8 2.6-2.56 2.1-.75 1.74-.28 7.7.47 5.94 2.82 20.05 13.54 27.7 10.72 7.66 24.8 8.73 35.3 3.77 10.5-4.95 14.45-14.3 12.96-19.33zm-15.6-24.43c-.93-.44-1.33-1.57-.88-2.5.46-.95 1.6-1.34 2.53-.9.94.46 1.33 1.6.88 2.53-.44.95-1.57 1.34-2.52.88z"/></defs><clipPath id="b"><use xlink:href="#a" overflow="visible"/></clipPath><path fill="#ECA45E" d="M44.84 48.37s-3.8 8.05-9.96 6.18c-2.67-.8-7.4-2.98-10.33-6.7-2.94-3.7-.94-4.95-4.2-6.13 0 0 2.7.16 4.66 3.2C27 48 31.68 51.1 34.65 51.5c2.96.38 7.96-.47 10.2-3.1zM1 25.12s3.87 1.6 4.5 7.44C6.1 38.4 10 54 24.3 58.82c14.33 4.8 21.08 4.4 25.04 2.38 3.97-2.03-5.97 8.34-6.58 8.43-.62.08-23.96-4.3-25.32-4.77C16.1 64.4-.44 44.48-.44 44.48L.42 32 1 25.13zM35.32 26.52s1.14-1.8.02-5.2c-1.1-3.4-4.66-4.96-4.97-9.17-.47-6.37 1.6-8.95 4.84-11.02 3.25-2.07-4.57-3.98-4.57-3.98s-9.08 14.1-8.3 15.18c.75 1.08 5.22 6.8 6.07 7.8.85.98 6.92 6.4 6.92 6.4zM58.84 31s-5.08-1.8-4.55-3.1c.5-1.34 2.32-.32 4.68-.47 2.36-.15 8.28-.26 10.54-2.55 2.25-2.3 1.02 4.7 1.02 4.7l-11.46.9" clip-path="url(#b)"/><path fill="#CB7E3D" d="M36.26.82c-.6.2-1.25.33-1.8.65-.6.24-1.14.62-1.67.97-.27.2-.5.43-.73.63l-.36.33-.3.36c-.2.25-.43.5-.6.75l-.52.82c-.2.27-.3.57-.44.86-.12.3-.3.58-.37.9-.2.6-.4 1.2-.48 1.85-.15.63-.15 1.27-.2 1.9 0 .66.08 1.3.13 1.93.15.63.2 1.27.42 1.88.22.6.37 1.23.67 1.8.27.58.52 1.17.88 1.7.34.55.65 1.1 1.06 1.6l1.2 1.52.58.76c.2.27.36.55.54.82.18.26.33.55.47.85.15.28.3.58.4.9.22.6.38 1.24.32 1.95 0 .06-.05.1-.1.1-3.12.7-6.47.08-9.17-1.63-1.38-.85-2.5-1.97-3.66-3-1.16-1.04-2.27-2.22-3.54-2.9-1.27-.72-2.77-.25-4.26.23-1.5.47-3.13.7-4.68.86-1.57.18-3.13.3-4.62.55-.74.15-1.47.32-2.12.6-.32.16-.62.32-.88.53-.13.08-.27.23-.42.36-.15.13-.25.24-.38.37-.23.26-.36.48-.38.67-.03.2.06.55.15.9.23.74.45 1.54.6 2.33.33 1.6.4 3.2.62 4.7.42 3.04 1.12 6.06 2.1 8.97.98 2.9 2.25 5.7 3.9 8.26 1.63 2.57 3.64 4.87 6 6.75l.88.7.22.18.06.04c.03.02-.02 0 0 0l.02.02.13.08.5.32c.64.42 1.3.9 1.95 1.24 1.28.76 2.65 1.44 4.05 2.04 2.8 1.18 5.75 2.02 8.76 2.48 6 .92 12.28.33 17.9-1.98 2.8-1.18 5.42-2.76 7.66-4.78 2.24-2.02 4.13-4.47 5.3-7.23.57-1.4.97-2.86 1.05-4.32l.04-.55-.04-.54c0-.38-.08-.73-.15-1.08l-.06-.26c0-.04-.06-.17-.08-.25l-.2-.55-.35-1.1c-.45-1.53-1.07-2.92-1.66-4.34-.63-1.38-1.32-2.78-2.14-4.02l-.03-.04c-.14-.22-.08-.5.13-.65l.02-.02c1.07-.64 2.22-1.14 3.4-1.48 1.16-.36 2.32-.6 3.42-1 1.1-.32 2.03-1 2.8-1.84.76-.84 1.36-1.9 1.33-2.98 0-1.1-.8-2.04-1.76-2.65-1-.62-2.06-1.2-3.1-1.76-1.06-.56-2.14-1.1-3.2-1.66-1.04-.57-2.07-1.2-2.98-2.03-.24-.2-.43-.43-.64-.65-.2-.22-.4-.46-.57-.7-.34-.5-.65-1.04-.95-1.55-.6-1.03-1.22-2.05-1.88-3.05-.67-1-1.38-1.95-2.16-2.85-.77-.9-1.63-1.75-2.55-2.5-.93-.75-1.94-1.4-3-1.94-.55-.24-1.1-.5-1.64-.7L43.4.72c-1.17-.2-2.36-.38-3.56-.3h-.9c-.3 0-.6.08-.88.12l-1.78.27zm0 0l1.78-.28c.3-.03.6-.1.88-.1l.9-.03c1.2-.08 2.4.1 3.57.3l1.72.48c.56.2 1.1.47 1.66.7 1.06.54 2.08 1.18 3 1.94.95.75 1.8 1.6 2.6 2.48.8.9 1.53 1.85 2.22 2.83.68 1 1.32 2 1.93 3.03.32.5.6 1.02.96 1.5.15.26.33.48.55.7.2.2.4.43.6.62 1.82 1.55 4.06 2.45 6.2 3.52 1.1.54 2.14 1.07 3.2 1.7 1.02.62 2.02 1.7 2.07 3.05.07 1.34-.6 2.53-1.4 3.47-.4.47-.87.9-1.37 1.27-.27.17-.56.36-.82.48-.3.16-.58.24-.86.36-1.15.44-2.33.72-3.44 1.1-1.12.35-2.16.83-3.14 1.45l.1-.7c.96 1.34 1.7 2.74 2.4 4.16.64 1.46 1.32 2.92 1.8 4.4l.4 1.1.2.55c.02.12.05.17.1.32l.07.3c.1.42.2.84.2 1.26l.06.63v.63c-.06 1.66-.46 3.27-1.04 4.8-1.2 3.03-3.17 5.7-5.5 7.93-2.37 2.2-5.16 3.94-8.1 5.22-5.92 2.57-12.57 3.22-18.9 2.27-3.18-.46-6.3-1.34-9.25-2.6-1.48-.65-2.9-1.37-4.32-2.2-.73-.4-1.33-.86-2-1.3l-.48-.3-.12-.1-.1-.06-.05-.05-.24-.2-.95-.75c-2.54-2.04-4.65-4.55-6.34-7.28-1.7-2.73-3-5.7-3.95-8.72-.93-3.05-1.57-6.17-1.93-9.33-.2-1.6-.2-3.14-.48-4.6-.14-.77-.32-1.5-.53-2.26-.08-.4-.22-.8-.15-1.4.08-.58.44-1.02.73-1.34.35-.32.6-.55.96-.82.37-.28.76-.48 1.16-.65.8-.34 1.6-.5 2.4-.63 1.6-.25 3.16-.3 4.7-.44 1.57-.12 3.06-.3 4.55-.72.74-.2 1.53-.44 2.36-.52.82-.1 1.75.05 2.5.46 1.45.86 2.47 2.05 3.62 3.1 1.13 1.08 2.22 2.22 3.5 3.04 2.54 1.7 5.8 2.42 8.8 1.8l-.1.1c.05-.56-.07-1.22-.3-1.8-.08-.3-.2-.6-.35-.88-.14-.3-.28-.57-.46-.84-.17-.26-.32-.54-.5-.8l-.6-.77-1.15-1.55c-.4-.5-.72-1.08-1.05-1.63-.35-.54-.6-1.15-.86-1.73-.3-.6-.43-1.23-.64-1.84-.2-.6-.27-1.26-.4-1.9-.05-.63-.14-1.27-.12-1.92.04-.64.05-1.3.2-1.92.08-.64.3-1.25.48-1.87.08-.3.26-.6.38-.88.14-.3.25-.6.44-.86l.52-.8c.2-.27.4-.5.62-.75l.3-.37.37-.32c.25-.2.47-.45.73-.63.54-.36 1.06-.74 1.67-.97.56-.32 1.2-.44 1.8-.64zM19.6 60c-1.6-.8-3.15-1.75-4.6-2.78-11-7.85-13.24-22.2-13.7-28-.17-2.22-.54-3.56-.78-4.45-.46-1.66-.5-2.16 1.2-3.57 1.54-1.3 4.18-1.5 6.97-1.74 2-.17 4.1-.34 5.94-.93 2.25-.72 3.43-.75 4.66-.13.95.5 1.9 1.4 3.32 2.73.6.58 1.3 1.24 2.14 2 .88.8 1.84 1.46 2.84 1.97 3.37 1.7 6.47 1.3 7.36 1.1 0-.6-.25-2.4-2.55-5.1-3.68-4.4-4.92-9.5-3.4-13.98C30.2 3.68 32.87 1.2 36.2.45c4-.87 7.66-.48 10.92 1.18 5 2.56 7.92 7.45 9.66 10.4.5.8.87 1.45 1.17 1.83 1.05 1.32 2.5 2.22 4.5 3.25.42.2.84.42 1.27.64.47.23.95.47 1.45.73 1.05.53 1.93 1 2.76 1.5 2.03 1.2 2.37 2.64 2.3 3.66-.12 2.1-2.1 4.2-3.87 4.95-.94.4-1.87.66-2.76.9-1.32.36-2.68.73-4.2 1.62 1.13 1.63 3.13 5.63 4.47 10.13 1.5 5-2.25 14.65-13.15 19.8-9.34 4.4-21.25 4-31.1-1.02zm-.65-40.92c-1.02-.52-2.05-.48-4.08.17-1.9.6-4.05.8-6.12.96-2.67.24-5.18.45-6.55 1.6-1.4 1.14-1.36 1.3-.95 2.77.25.92.63 2.3.8 4.6.46 5.7 2.66 19.77 13.4 27.43 1.4 1 2.93 1.93 4.5 2.73 9.64 4.92 21.3 5.3 30.42 1 10.5-4.96 14.16-14.15 12.75-18.88-1.42-4.77-3.57-8.92-4.58-10.23-.07-.08-.1-.2-.07-.3 0-.1.08-.2.17-.25 1.74-1.1 3.26-1.52 4.73-1.92.9-.25 1.76-.48 2.66-.86 1.36-.6 3.3-2.42 3.42-4.32.08-1.17-.57-2.17-1.92-2.96-.82-.5-1.68-.96-2.72-1.5-.5-.24-.97-.48-1.43-.7-2.7-1.35-4.68-2.4-6.03-4.1-.33-.42-.73-1.08-1.23-1.92-1.7-2.86-4.53-7.64-9.34-10.1-3.1-1.58-6.6-1.95-10.42-1.1-3.06.66-5.53 2.97-6.6 6.16-1.45 4.24-.26 9.07 3.25 13.26 3.13 3.67 2.7 5.88 2.7 5.97-.04.13-.14.25-.28.28-.16.05-3.9 1.06-8.16-1.1-1.06-.55-2.07-1.25-3-2.1-.84-.75-1.54-1.42-2.16-2-1.37-1.3-2.3-2.16-3.15-2.6zM18.73 41.3s.15-.08.5-.17c.16-.04.36-.06.6-.1.25 0 .54 0 .86.02.62.08 1.42.28 2.2.76.36.28.83.5 1.14.9.36.4.74.77 1.04 1.15.6.76 1.32 1.5 2.1 2.3.77.82 1.58 1.68 2.52 2.5.92.8 2.03 1.52 3.26 1.94 1.22.43 2.55.6 3.83.47.62-.1 1.25-.2 1.84-.4l.45-.13.4-.18c.32-.13.66-.23.92-.37 1.08-.5 2.13-1.2 3.04-1.9.92-.74 1.66-1.58 2.34-2.38.62-.84 1.1-1.7 1.4-2.53.23-.85.4-1.67.27-2.38 0-.37-.12-.7-.2-1-.07-.33-.23-.6-.34-.85-.2-.53-.52-.86-.7-1.12-.17-.27-.27-.4-.27-.4l.13-.16s.14.1.4.27c.27.2.7.46 1.1.95.2.23.46.5.63.85.2.34.43.7.53 1.16.35.88.34 1.96.18 3.1-.25 1.1-.72 2.26-1.44 3.32-.72 1.04-1.66 2-2.76 2.8-1.13.8-2.33 1.45-3.74 1.93-.34.13-.65.18-.98.27l-.53.13-.55.06c-.72.1-1.45.07-2.16.04-1.44-.15-2.78-.55-4.05-1-1.28-.47-2.5-1.04-3.65-1.65-1.16-.6-2.25-1.3-3.15-2.1-.9-.8-1.64-1.7-2.25-2.56-.28-.44-.56-.78-.8-1.1-.22-.36-.53-.6-.78-.86-.13-.13-.27-.23-.42-.32-.14-.1-.28-.2-.4-.3-.28-.17-.56-.26-.8-.4-.27-.1-.5-.16-.7-.23-.22-.05-.4-.08-.56-.1-.3-.06-.47-.06-.47-.06l-.04-.2zM40.18 43.56s-.23-.2-.64-.5c-.2-.16-.46-.35-.76-.54-.3-.17-.63-.4-1-.6-.4-.16-.8-.4-1.26-.56-.46-.14-.9-.37-1.43-.46-.53-.1-1.03-.3-1.58-.3-.56-.06-1.07-.14-1.67-.16-.6-.03-1.18-.08-1.77-.1-.6-.06-1.17-.1-1.75-.24-.57-.07-1.14-.27-1.66-.47-.5-.25-.97-.52-1.3-.85-.4-.3-.65-.63-.9-.9-.24-.28-.42-.54-.57-.76-.3-.42-.48-.68-.48-.68s.26.16.68.47c.22.16.47.35.77.54.3.2.62.44 1 .63.34.23.77.34 1.2.5.44.1.9.18 1.44.2.52.1 1.1.05 1.66.1.58.02 1.17.04 1.76.06.58.04 1.23.14 1.83.22l.46.06.45.15c.28.1.57.2.85.28.57.15 1.05.5 1.52.73.5.22.86.6 1.23.85.37.3.65.63.9.88.27.27.45.55.6.76.3.45.43.72.43.72zM49.5 13.54s-.03 0-.1-.04c-.1 0-.2-.1-.37-.08-.16-.02-.35.02-.55.08-.2.07-.4.2-.58.34-.17.17-.36.32-.5.54-.03.05-.1.13-.1.14l-.13.22c-.1.16-.1.27-.15.42-.06.3 0 .66.16.96.18.3.48.5.8.6.36.1.64.1.94.03.3-.07.56-.2.76-.4.18-.2.35-.4.43-.65.1-.16.08-.25.12-.36.03-.1.02-.23.04-.34 0-.24 0-.47-.08-.67-.07-.2-.16-.37-.28-.48-.1-.13-.2-.18-.28-.23-.07-.05-.1-.08-.1-.08zm.04-.07s.05.03.12.07c.08.05.2.1.33.2.14.1.3.23.47.4.16.2.33.45.43.76.02.17.07.33.05.52 0 .2-.04.42-.1.55-.1.36-.35.7-.67.98-.33.26-.74.42-1.17.47-.42.03-.9-.12-1.2-.32-.7-.48-1.08-1.2-1.18-1.96 0-.18 0-.43.03-.6l.05-.23c.05-.13.1-.18.13-.27.18-.33.48-.56.77-.7.3-.13.6-.16.84-.15.25.02.45.06.62.1.17.05.27.12.36.14.08.04.12.05.12.05z"/><g fill="#FCD29A" opacity=".5"><path d="M42.15 36.5c-2.1-1.02-2.33 3.64-1.15 5.35 1.18 1.72 0 5.14-3.58 2.37-3.58-2.77-7.72-2.1-9.1-1.42-1.37.68.47 2.4 3.86 4.47 3.4 2.08 8.55 2.05 11.45-1.6 2.9-3.63 2.86-7.1-1.48-9.18zM22.87 24.04c-1.68-1.67-2.55-3.6-4.52-4.1-1.53-.35-4.56.96-6.7 1.26-2.16.3-5 .65-6.56 1.52-1.58.87 3.45.14 5.3.46 1.85.32 5.44 1.4 7.2.48 1.8-.9 3.06 2.38 7.17 4.15 4.1 1.8 6.48 2 7.15.6.27-.53-4.53-.27-9.05-4.36zM55.47 18.24c2 1.96-3.8 5.38-.06 5.32 3.75-.05 8.4-.18 10.37-.12 1.98.06 3.23-1.06 1.18-2.14-2.06-1.07-9.5-3.97-11.16-7.3-.35-.76-1-2.14-3.8-5.6-2.82-3.45-5.24-4.42-6.94-5.24 0 0-5.4-1.08-.52 1.08C49.14 6.3 50 8.4 51.3 11c0 .03 1.55 4.68 4.17 7.24zM57.08 34.03c-1.84-2.2-6.3-3.54-8.87-3.56-2.56-.02 2.1 4.24 5.14 8.06 3.02 3.82 2.52 7.23-.2 11.68-2.7 4.46-6.03 6-5.3 7.43.75 1.44 7.66-1.54 10.93-5.87 4.17-5.53 3.5-11.47-1.7-17.73z"/></g><defs><path id="c" d="M129.86 12.92s-16.13-26.1-34.75-4.1c-18.6 22 20.95 45.5 20.95 45.5s-7.08 14.18 2.6 29.7c9.65 15.52 28 19.9 28 19.9s-8.17 11.92 1.47 23.4c8.45 9.66 13.75 5.87 13.75 5.87s1.25 27.6 25.56 34.4c15.32 4.84 30.15-16.18 24.04-28.47 10.64-4.67 16.9-21.26 1-33.86 6.82-8.84 3.8-19.8-5.34-17.95 9.03-12.85 5.8-28.1-3.6-42.7-9.44-14.56-28.5-21.8-35.87-17.76 4.05-12.6-1.1-19.96-13.93-23.84-12.84-3.87-19.3-4.14-23.87 9.9z"/></defs><clipPath id="d"><use xlink:href="#c" overflow="visible"/></clipPath><path fill="#E6E7E8" d="M198.6 167.2s-14.25-.4-20.05-16.2c-5.8-15.8 1.17-22.16 1.17-22.16s-13.83-.28-19.73-14.55c-4.06-11.4 4.6-16.27 4.6-16.27s-13.76.4-25.55-16.7c-11.8-17.1-.88-29.32-.88-29.32s-25.2-5.84-37.37-26.4C88.63 5.08 104.7.24 104.7.24l-39-3.2s24.56 63.08 24.2 64.8c-.37 1.7 31.83 64.65 32.5 65.7.68 1.03 30.57 33 30.57 33l24.82 20.12 20.8-13.47z" clip-path="url(#d)"/></svg>