<svg xmlns="http://www.w3.org/2000/svg" width="58.409" height="68.894" version="1"><path fill="#116433" d="M7 11.58C16.36-1.08 34.18-3.77 46.84 5.56c12.66 9.33 15.35 27.16 6.02 39.8-9.33 12.67-27.16 15.36-39.8 6.03C.37 42.05-2.33 24.22 7 11.57"/><path fill="#33813F" d="M9.2 19.73C16.35 10 30.05 7.93 39.8 15.1c9.72 7.18 11.8 20.88 4.62 30.6-7.18 9.73-20.88 11.8-30.6 4.63-9.73-7.17-11.8-20.87-4.63-30.6"/><path fill="#5A3E1D" d="M0 64.15l6.44 4.74 13.84-23.27 1.1-1.7c-.43-.5-1.23.25-2.4.26-1.22 0-3.07-.37-3.07-.37L0 64.15z"/><path fill="#4C3111" d="M0 64.15l6.44 4.74 1.2-2.04s-1.2 1.07-2 .48c-1.1-.82-3.15-2.4-3.5-3.34-.38-.93 1.08-3.97 1.08-3.97L0 64.15z"/><path fill="#73583A" d="M18.93 45.47c-1.3.27-1.96 1.75-1.96 1.75S6.4 64.45 6.2 64.94c-.46 1.17-.68 2.76 1.18.78.6-.64 3-4.7 3-4.7s9.54-15.44 9.6-15.95c.08-.55-.35.26-1.05.4z"/></svg>