<svg xmlns="http://www.w3.org/2000/svg" width="91.662" height="120.013" version="1"><path fill="#4AAB48" d="M1.66 33.56C8.4 9.16 33.63-5.14 58.03 1.58 82.42 8.32 96.72 33.55 90 57.95c-6.74 24.4-31.97 38.7-56.36 31.97C9.24 83.2-5.06 57.96 1.66 33.57"/><path fill="#6DBE57" d="M9.63 44.56C14.8 25.8 34.2 14.8 52.93 20c18.76 5.16 29.76 24.55 24.6 43.3-5.2 18.75-24.58 29.75-43.33 24.57C15.45 82.7 4.45 63.3 9.63 44.57"/><path fill="#5A3E1D" d="M21.4 116.58l12.4 3.43 7.4-42.92.68-3.2c-.93-.48-1.7 1.1-3.46 1.8-1.83.7-4.82 1.22-4.82 1.22l-12.2 39.68z"/><path fill="#4C3111" d="M21.4 116.58l12.4 3.43.66-3.74s-1.2 2.3-2.73 1.87c-2.15-.6-6.14-1.8-7.22-2.98-1.07-1.2-.63-6.6-.63-6.6l-2.48 8.03z"/><path fill="#73583A" d="M39.1 77.63c-1.8 1.15-1.96 3.75-1.96 3.75s-5.93 31.97-5.95 32.8c-.05 2.06.54 4.57 2.18.52.53-1.3 1.8-8.8 1.8-8.8s5.46-28.67 5.26-29.47c-.2-.88-.4.6-1.35 1.2z"/></svg>