<?xml version="1.0" encoding="utf-8"?>
<!-- Generator: Adobe Illustrator 17.0.0, SVG Export Plug-In . SVG Version: 6.00 Build 0)  -->
<!DOCTYPE svg PUBLIC "-//W3C//DTD SVG 1.1//EN" "http://www.w3.org/Graphics/SVG/1.1/DTD/svg11.dtd">
<svg version="1.1" id="Layer_1" xmlns="http://www.w3.org/2000/svg" xmlns:xlink="http://www.w3.org/1999/xlink" x="0px" y="0px"
	 width="66.9px" height="60.675px" viewBox="0 0 66.9 60.675" enable-background="new 0 0 66.9 60.675" xml:space="preserve">
	<path fill="#FCC88A" d="M58.159,16.49c-8.141-1.334-15.471-0.996-15.471-0.996s0.432-3.772-5.426-5.826
		c-5.859-2.051-8.524,1.57-8.524,1.57S23.221,4.24,16.462,1.871C9.7-0.504,6.638-0.438,6.259,4.619
		C5.878,9.674,4.827,14.115,3.23,17.224c-1.598,3.111-2.766,5.359,1.41,6.445c-2.491,2.412-4.41,4.275-3.825,10.551
		c0.583,6.279,2.041,14.387,5.054,15.188c3.007,0.803,5.476-0.104,6.752,0.219c1.283,0.32,2.949-0.103,3.937-0.395
		c1.679,3.879,2.575,4.199,5.169,5.105c2.595,0.908,4.633,0.865,6.928-0.988c1.251,2.209,2.933,2.801,3.831,3.496
		c0.902,0.695,1.694,3.123,6.039,3.004c4.346-0.121,9.906-5.512,12.247-7.857c2.339-2.342,5.345-6.223,3.636-10.367
		c3.381,1.184,4.306-0.01,5.07-5.437c0.764-5.428,2.848-9.756,4.666-11.777C65.96,22.392,70.138,18.414,58.159,16.49z
		 M29.376,32.156c-0.912-0.32-1.392-1.32-1.073-2.231c0.321-0.912,1.319-1.393,2.231-1.074c0.913,0.32,1.396,1.318,1.074,2.232
		C31.289,31.996,30.29,32.476,29.376,32.156z"/>

			<defs>
				<path id="SVGID_1_" d="M58.159,16.49c-8.141-1.334-15.471-0.996-15.471-0.996s0.432-3.772-5.426-5.826
					c-5.859-2.051-8.524,1.57-8.524,1.57S23.221,4.24,16.462,1.871C9.7-0.504,6.638-0.438,6.259,4.619
					C5.878,9.674,4.827,14.115,3.23,17.224c-1.598,3.111-2.766,5.359,1.41,6.445c-2.491,2.412-4.41,4.275-3.825,10.551
					c0.583,6.279,2.041,14.387,5.054,15.188c3.007,0.803,5.476-0.104,6.752,0.219c1.283,0.32,2.949-0.103,3.937-0.395
					c1.679,3.879,2.575,4.199,5.169,5.105c2.595,0.908,4.633,0.865,6.928-0.988c1.251,2.209,2.933,2.801,3.831,3.496
					c0.902,0.695,1.694,3.123,6.039,3.004c4.346-0.121,9.906-5.512,12.247-7.857c2.339-2.342,5.345-6.223,3.636-10.367
					c3.381,1.184,4.306-0.01,5.07-5.437c0.764-5.428,2.848-9.756,4.666-11.777C65.96,22.392,70.138,18.414,58.159,16.49z
					 M29.376,32.156c-0.912-0.32-1.392-1.32-1.073-2.231c0.321-0.912,1.319-1.393,2.231-1.074c0.913,0.32,1.396,1.318,1.074,2.232
					C31.289,31.996,30.29,32.476,29.376,32.156z"/>
			</defs>
			<clipPath id="SVGID_2_">
				<use xlink:href="#SVGID_1_"  overflow="visible"/>
			</clipPath>
			<path clip-path="url(#SVGID_2_)" fill="#ECA45E" d="M2.421,43.835c0,0,2.561,2.799,4.898,3.113
				c2.338,0.312,4.009-0.365,5.441-0.121c1.431,0.252,2.673-0.053,3.623-1.846c0.951-1.795-0.126,5.184-0.126,5.184
				s-3.062,3.738-3.007,3.756c0.053,0.018-6.04-0.855-6.04-0.855L1.85,48.83L2.421,43.835z"/>

			<defs>
				<path id="SVGID_3_" d="M58.159,16.49c-8.141-1.334-15.471-0.996-15.471-0.996s0.432-3.772-5.426-5.826
					c-5.859-2.051-8.524,1.57-8.524,1.57S23.221,4.24,16.462,1.871C9.7-0.504,6.638-0.438,6.259,4.619
					C5.878,9.674,4.827,14.115,3.23,17.224c-1.598,3.111-2.766,5.359,1.41,6.445c-2.491,2.412-4.41,4.275-3.825,10.551
					c0.583,6.279,2.041,14.387,5.054,15.188c3.007,0.803,5.476-0.104,6.752,0.219c1.283,0.32,2.949-0.103,3.937-0.395
					c1.679,3.879,2.575,4.199,5.169,5.105c2.595,0.908,4.633,0.865,6.928-0.988c1.251,2.209,2.933,2.801,3.831,3.496
					c0.902,0.695,1.694,3.123,6.039,3.004c4.346-0.121,9.906-5.512,12.247-7.857c2.339-2.342,5.345-6.223,3.636-10.367
					c3.381,1.184,4.306-0.01,5.07-5.437c0.764-5.428,2.848-9.756,4.666-11.777C65.96,22.392,70.138,18.414,58.159,16.49z
					 M29.376,32.156c-0.912-0.32-1.392-1.32-1.073-2.231c0.321-0.912,1.319-1.393,2.231-1.074c0.913,0.32,1.396,1.318,1.074,2.232
					C31.289,31.996,30.29,32.476,29.376,32.156z"/>
			</defs>
			<clipPath id="SVGID_4_">
				<use xlink:href="#SVGID_3_"  overflow="visible"/>
			</clipPath>
			<path clip-path="url(#SVGID_4_)" fill="#ECA45E" d="M31.579,49.294c0,0-3.697,5.117-3.51,5.939
				c0.185,0.824,6.447,6.059,6.447,6.059s6.495-1.4,8.305-2.852c-2.08-0.701-5.766-0.762-6.955-2.438
				c-1.764-2.477-3.641-2.707-4.134-3.617C31.22,51.449,31.579,49.294,31.579,49.294z"/>

			<defs>
				<path id="SVGID_5_" d="M58.159,16.49c-8.141-1.334-15.471-0.996-15.471-0.996s0.432-3.772-5.426-5.826
					c-5.859-2.051-8.524,1.57-8.524,1.57S23.221,4.24,16.462,1.871C9.7-0.504,6.638-0.438,6.259,4.619
					C5.878,9.674,4.827,14.115,3.23,17.224c-1.598,3.111-2.766,5.359,1.41,6.445c-2.491,2.412-4.41,4.275-3.825,10.551
					c0.583,6.279,2.041,14.387,5.054,15.188c3.007,0.803,5.476-0.104,6.752,0.219c1.283,0.32,2.949-0.103,3.937-0.395
					c1.679,3.879,2.575,4.199,5.169,5.105c2.595,0.908,4.633,0.865,6.928-0.988c1.251,2.209,2.933,2.801,3.831,3.496
					c0.902,0.695,1.694,3.123,6.039,3.004c4.346-0.121,9.906-5.512,12.247-7.857c2.339-2.342,5.345-6.223,3.636-10.367
					c3.381,1.184,4.306-0.01,5.07-5.437c0.764-5.428,2.848-9.756,4.666-11.777C65.96,22.392,70.138,18.414,58.159,16.49z
					 M29.376,32.156c-0.912-0.32-1.392-1.32-1.073-2.231c0.321-0.912,1.319-1.393,2.231-1.074c0.913,0.32,1.396,1.318,1.074,2.232
					C31.289,31.996,30.29,32.476,29.376,32.156z"/>
			</defs>
			<clipPath id="SVGID_6_">
				<use xlink:href="#SVGID_5_"  overflow="visible"/>
			</clipPath>
			<path clip-path="url(#SVGID_6_)" fill="#ECA45E" d="M17.991,40.398c0,0-0.333,7.139,2.142,8.26
				c2.479,1.119,4.399,2.133,6.036,2.033c1.641-0.102,4.359-1.904,6.91-5.676c-1.5,4.279-5.6,8.918-5.6,8.918l-4.178,0.844
				l-4.666-2.09l-1.293-2.814l-0.506-1.355L17.991,40.398z"/>

			<defs>
				<path id="SVGID_7_" d="M58.159,16.49c-8.141-1.334-15.471-0.996-15.471-0.996s0.432-3.772-5.426-5.826
					c-5.859-2.051-8.524,1.57-8.524,1.57S23.221,4.24,16.462,1.871C9.7-0.504,6.638-0.438,6.259,4.619
					C5.878,9.674,4.827,14.115,3.23,17.224c-1.598,3.111-2.766,5.359,1.41,6.445c-2.491,2.412-4.41,4.275-3.825,10.551
					c0.583,6.279,2.041,14.387,5.054,15.188c3.007,0.803,5.476-0.104,6.752,0.219c1.283,0.32,2.949-0.103,3.937-0.395
					c1.679,3.879,2.575,4.199,5.169,5.105c2.595,0.908,4.633,0.865,6.928-0.988c1.251,2.209,2.933,2.801,3.831,3.496
					c0.902,0.695,1.694,3.123,6.039,3.004c4.346-0.121,9.906-5.512,12.247-7.857c2.339-2.342,5.345-6.223,3.636-10.367
					c3.381,1.184,4.306-0.01,5.07-5.437c0.764-5.428,2.848-9.756,4.666-11.777C65.96,22.392,70.138,18.414,58.159,16.49z
					 M29.376,32.156c-0.912-0.32-1.392-1.32-1.073-2.231c0.321-0.912,1.319-1.393,2.231-1.074c0.913,0.32,1.396,1.318,1.074,2.232
					C31.289,31.996,30.29,32.476,29.376,32.156z"/>
			</defs>
			<clipPath id="SVGID_8_">
				<use xlink:href="#SVGID_7_"  overflow="visible"/>
			</clipPath>
			<path clip-path="url(#SVGID_8_)" fill="#ECA45E" d="M3.058,17.951c0,0-0.944,2.455,1.054,3.492
				c1.999,1.037,4.796,1.004,7.062,2.477c2.269,1.469,8.262,4.922,10.625,1.865c-1.727,3.953-1.934,4.619-1.934,4.619
				s-5.259-1.797-7.158-2.895c-1.901-1.098-6.066-3.408-9.227-4.266C0.323,22.39,1.233,20.513,3.058,17.951z"/>

			<defs>
				<path id="SVGID_9_" d="M58.159,16.49c-8.141-1.334-15.471-0.996-15.471-0.996s0.432-3.772-5.426-5.826
					c-5.859-2.051-8.524,1.57-8.524,1.57S23.221,4.24,16.462,1.871C9.7-0.504,6.638-0.438,6.259,4.619
					C5.878,9.674,4.827,14.115,3.23,17.224c-1.598,3.111-2.766,5.359,1.41,6.445c-2.491,2.412-4.41,4.275-3.825,10.551
					c0.583,6.279,2.041,14.387,5.054,15.188c3.007,0.803,5.476-0.104,6.752,0.219c1.283,0.32,2.949-0.103,3.937-0.395
					c1.679,3.879,2.575,4.199,5.169,5.105c2.595,0.908,4.633,0.865,6.928-0.988c1.251,2.209,2.933,2.801,3.831,3.496
					c0.902,0.695,1.694,3.123,6.039,3.004c4.346-0.121,9.906-5.512,12.247-7.857c2.339-2.342,5.345-6.223,3.636-10.367
					c3.381,1.184,4.306-0.01,5.07-5.437c0.764-5.428,2.848-9.756,4.666-11.777C65.96,22.392,70.138,18.414,58.159,16.49z
					 M29.376,32.156c-0.912-0.32-1.392-1.32-1.073-2.231c0.321-0.912,1.319-1.393,2.231-1.074c0.913,0.32,1.396,1.318,1.074,2.232
					C31.289,31.996,30.29,32.476,29.376,32.156z"/>
			</defs>
			<clipPath id="SVGID_10_">
				<use xlink:href="#SVGID_9_"  overflow="visible"/>
			</clipPath>
			<path clip-path="url(#SVGID_10_)" fill="#ECA45E" d="M38.954,31.802c0,0,0.34,2.398,2.219,3.055
				c1.875,0.662,6.242,1.684,8.545,2.576c2.305,0.889,4.494,2.336,6.312,2.211c1.812-0.121,2.652-0.812,3.282-2.365
				c0.625-1.549-0.837,3.225-0.837,3.225s-1.752,1.732-2.91,1.428c-1.158-0.307-3.932-1.783-7.644-2.506
				c-3.714-0.719-10.266-3.197-10.266-3.197L38.954,31.802z"/>

	<path fill="#CB7E3D" d="M28.739,11.238c-1.35-1.594-2.857-3.043-4.447-4.383c-0.803-0.662-1.614-1.313-2.473-1.898
		c-0.848-0.598-1.735-1.137-2.648-1.623c-0.909-0.49-1.865-0.887-2.831-1.228c-0.995-0.324-1.977-0.645-2.979-0.893
		c-0.999-0.248-2.014-0.463-3.014-0.496C9.35,0.677,8.368,0.89,7.732,1.525C7.113,2.187,6.864,3.177,6.751,4.156L6.429,7.265
		c-0.07,1.035-0.3,2.082-0.486,3.125c-0.102,0.519-0.174,1.049-0.305,1.562l-0.434,1.535c-0.154,0.508-0.268,1.027-0.457,1.527
		l-0.615,1.482c-0.381,1.018-0.91,1.914-1.296,2.84c-0.395,0.906-0.655,1.887-0.29,2.48c0.353,0.619,1.317,1.006,2.253,1.242
		c0.334,0.086,0.538,0.426,0.456,0.758c-0.029,0.115-0.089,0.213-0.164,0.289l-0.014,0.014l-0.852,0.856l-0.79,0.865l-0.689,0.918
		l-0.54,0.984l-0.382,1.055c-0.119,0.355-0.15,0.744-0.232,1.113c-0.091,0.365-0.102,0.758-0.117,1.143
		c-0.012,0.393-0.055,0.774-0.044,1.168c0.059,0.795,0.067,1.57,0.151,2.371c0.082,0.816,0.172,1.607,0.281,2.406
		c0.214,1.6,0.473,3.193,0.821,4.752c0.173,0.783,0.362,1.561,0.595,2.316c0.223,0.758,0.49,1.5,0.802,2.199
		c0.323,0.682,0.683,1.375,1.151,1.836c0.106,0.143,0.238,0.207,0.352,0.303c0.115,0.115,0.242,0.141,0.359,0.193l0.09,0.045
		l0.023,0.01C6.038,48.65,6.103,48.67,6.024,48.65l0.021,0.002l0.07,0.016l0.302,0.061l0.599,0.121
		c0.383,0.055,0.721,0.074,1.093,0.104c0.388-0.008,0.761,0.025,1.154-0.01c0.777-0.023,1.56-0.146,2.458-0.17
		c0.225-0.008,0.451-0.014,0.731,0.031l0.197,0.025l0.099,0.016l0.049,0.006l0.014,0.002c0.053,0.01-0.057-0.012-0.041-0.012
		l0.016,0.004l0.304,0.053c0.224,0.053,0.329,0.021,0.491,0.041c0.155,0.004,0.35-0.016,0.523-0.02
		c0.727-0.064,1.473-0.242,2.229-0.461c0.382-0.109,0.776,0.074,0.946,0.416l0.018,0.037c0.264,0.539,0.488,1.125,0.785,1.623
		c0.148,0.244,0.271,0.535,0.438,0.748c0.168,0.213,0.301,0.482,0.494,0.65c0.18,0.191,0.351,0.391,0.568,0.523
		c0.189,0.164,0.426,0.289,0.668,0.414c0.226,0.131,0.525,0.223,0.785,0.334l0.86,0.311l0.86,0.271
		c0.301,0.094,0.547,0.117,0.82,0.184c0.266,0.06,0.544,0.059,0.816,0.098c0.272,0.012,0.533-0.021,0.803-0.023
		c0.26-0.059,0.519-0.094,0.777-0.164c0.245-0.1,0.502-0.168,0.744-0.291c0.239-0.141,0.486-0.25,0.719-0.406l0.688-0.498
		l0.008-0.004c0.395-0.285,0.945-0.201,1.229,0.193l0.034,0.057c0.382,0.611,0.807,1.186,1.345,1.658
		c0.541,0.486,1.15,0.842,1.89,1.318l0.288,0.201l0.071,0.051l0.018,0.012l0.075,0.068l0.027,0.025l0.11,0.104
		c0.139,0.129,0.293,0.305,0.448,0.496l0.403,0.465c0.116,0.15,0.245,0.277,0.371,0.389c0.241,0.252,0.528,0.428,0.808,0.613
		c0.295,0.164,0.621,0.279,0.938,0.408c0.346,0.07,0.686,0.16,1.038,0.221l1.109,0.049l0.14,0.008h0.015l0.01,0.002
		c0.053-0.004-0.064,0.006-0.049,0.004l0.039-0.006l0.074-0.006l0.304-0.031c0.194-0.02,0.419-0.025,0.564-0.074l0.491-0.115
		c0.167-0.041,0.348-0.113,0.521-0.17c0.706-0.229,1.396-0.574,2.069-0.943c0.672-0.387,1.335-0.799,1.972-1.262
		c1.281-0.91,2.504-1.93,3.678-3.01c0.591-0.535,1.163-1.092,1.736-1.652c0.285-0.281,0.561-0.559,0.836-0.85
		c0.267-0.279,0.521-0.572,0.777-0.865c0.983-1.189,1.857-2.49,2.3-3.9c0.22-0.699,0.354-1.422,0.337-2.137
		c-0.021-0.715-0.174-1.418-0.434-2.092l-0.01-0.02c-0.146-0.389,0.049-0.822,0.434-0.969c0.174-0.068,0.355-0.064,0.517-0.006
		c0.945,0.336,1.963,0.551,2.465,0.182c0.559-0.352,0.922-1.385,1.156-2.357c0.255-1.014,0.373-2.033,0.574-3.139l0.298-1.594
		l0.405-1.625c0.604-2.131,1.406-4.199,2.529-6.131c0.275-0.486,0.604-0.945,0.922-1.408c0.357-0.439,0.726-0.902,1.088-1.277
		c0.697-0.775,1.415-1.582,1.612-2.424c0.271-0.828-0.27-1.557-1.083-2.105c-0.798-0.561-1.816-0.896-2.799-1.232l-1.536-0.395
		c-0.516-0.125-1.043-0.211-1.565-0.318c-1.006-0.217-2.121-0.305-3.178-0.459l-3.209-0.422L49.13,15.98l-1.601-0.117
		c-0.537-0.027-1.074-0.029-1.611-0.043c-1.074-0.027-2.15-0.059-3.22-0.033c-0.164,0.004-0.3-0.125-0.304-0.291
		c0-0.01-0.001-0.022,0-0.033c0.024-0.301-0.016-0.668-0.096-0.998c-0.072-0.342-0.211-0.662-0.355-0.983l-0.261-0.457l-0.308-0.432
		c-0.229-0.274-0.457-0.547-0.73-0.781c-0.25-0.256-0.559-0.449-0.839-0.674c-0.312-0.184-0.603-0.402-0.934-0.557
		c-0.323-0.164-0.638-0.346-0.983-0.469c-0.346-0.139-0.658-0.289-1.02-0.393c-0.352-0.107-0.705-0.236-1.057-0.303
		c-0.352-0.082-0.709-0.156-1.07-0.191c-0.359-0.061-0.727-0.064-1.09-0.07c-0.367-0.002-0.73,0.031-1.093,0.08
		C31.128,9.453,29.714,10.119,28.739,11.238z M28.739,11.238c0.932-1.16,2.334-1.894,3.796-2.17c0.368-0.066,0.74-0.117,1.112-0.127
		c0.377-0.01,0.752-0.017,1.124,0.029c0.374,0.018,0.743,0.094,1.113,0.166c0.38,0.055,0.724,0.18,1.081,0.273
		c0.357,0.088,0.718,0.244,1.062,0.369c0.357,0.119,0.688,0.299,1.029,0.455c0.344,0.152,0.655,0.371,0.986,0.553
		c0.301,0.227,0.629,0.422,0.906,0.686c0.295,0.244,0.555,0.525,0.809,0.814l0.349,0.459l0.297,0.5
		c0.176,0.344,0.335,0.703,0.432,1.082c0.098,0.389,0.162,0.76,0.141,1.201l-0.305-0.324c1.091-0.061,2.171-0.059,3.254-0.062
		c0.545,0.002,1.084-0.016,1.629-0.002l1.627,0.066l3.259,0.148l3.216,0.367c1.083,0.141,2.125,0.199,3.237,0.408
		c0.536,0.104,1.077,0.178,1.612,0.297l1.604,0.389c1.058,0.34,2.133,0.654,3.123,1.318c0.256,0.139,0.489,0.338,0.712,0.561
		c0.243,0.188,0.429,0.465,0.605,0.748c0.101,0.129,0.156,0.293,0.206,0.459c0.045,0.166,0.119,0.326,0.131,0.5
		c0.018,0.34,0.032,0.691-0.062,1c-0.311,1.285-1.137,2.141-1.834,2.973c-0.383,0.406-0.674,0.803-0.99,1.199
		c-0.279,0.432-0.576,0.858-0.825,1.312c-1.017,1.824-1.755,3.82-2.288,5.848l-0.354,1.52l-0.27,1.596
		c-0.168,1.021-0.303,2.146-0.565,3.232c-0.142,0.551-0.277,1.102-0.532,1.666c-0.252,0.551-0.594,1.164-1.233,1.588
		c-0.643,0.432-1.424,0.49-2.042,0.418c-0.64-0.064-1.184-0.248-1.735-0.42l0.943-0.992c0.328,0.832,0.531,1.725,0.562,2.627
		c0.025,0.906-0.137,1.797-0.396,2.635c-0.53,1.695-1.504,3.137-2.562,4.436c-0.273,0.318-0.548,0.637-0.84,0.947
		c-0.28,0.299-0.57,0.592-0.859,0.883c-0.582,0.576-1.165,1.148-1.771,1.707c-1.201,1.115-2.464,2.182-3.81,3.152
		c-0.672,0.492-1.384,0.943-2.111,1.367c-0.739,0.41-1.501,0.799-2.334,1.08c-0.21,0.068-0.404,0.145-0.628,0.205l-0.695,0.16
		c-0.246,0.063-0.429,0.063-0.631,0.084l-0.302,0.033l-0.077,0.01l-0.037,0.002l-0.068,0.006l-0.01-0.002l-0.019-0.002l-0.166-0.004
		l-1.318-0.059c-0.441-0.066-0.891-0.174-1.332-0.27c-0.431-0.16-0.877-0.324-1.285-0.553c-0.399-0.254-0.799-0.514-1.124-0.842
		c-0.18-0.154-0.336-0.318-0.474-0.484l-0.391-0.451c-0.097-0.127-0.207-0.256-0.367-0.4l-0.107-0.107l-0.028-0.025l-0.007-0.006
		c0.027,0.02-0.066-0.059,0.059,0.045l-0.015-0.008l-0.054-0.037l-0.211-0.146c-0.621-0.394-1.418-0.854-2.09-1.449
		c-0.678-0.605-1.226-1.34-1.685-2.107l1.273,0.242l-0.836,0.598c-0.286,0.189-0.606,0.338-0.912,0.51
		c-0.316,0.156-0.666,0.256-1,0.385c-0.346,0.09-0.705,0.148-1.058,0.209c-0.357,0.014-0.718,0.045-1.069,0.029
		c-0.349-0.043-0.698-0.053-1.041-0.129c-0.335-0.074-0.714-0.141-1.006-0.238l-0.922-0.297l-0.902-0.328
		c-0.312-0.137-0.616-0.229-0.932-0.41c-0.316-0.16-0.629-0.33-0.921-0.568c-0.312-0.209-0.554-0.482-0.798-0.754
		c-0.27-0.256-0.421-0.557-0.631-0.838c-0.216-0.283-0.335-0.58-0.505-0.871c-0.335-0.582-0.556-1.168-0.839-1.752l0.965,0.451
		c-0.811,0.23-1.654,0.434-2.555,0.51c-0.233,0.006-0.444,0.027-0.699,0.02c-0.244-0.018-0.551-0.025-0.723-0.07l-0.299-0.053
		l-0.089-0.016l-0.026-0.004l-0.053-0.006l-0.103-0.012c-0.125-0.029-0.308-0.025-0.489-0.019c-0.729,0.012-1.565,0.135-2.419,0.156
		c-0.419,0.033-0.859,0.002-1.287,0.002c-0.44-0.033-0.919-0.076-1.34-0.139l-0.598-0.127l-0.297-0.062l-0.076-0.016l-0.02-0.002
		c-0.092-0.027-0.039-0.016-0.065-0.021L5.595,50.13l-0.192-0.08c-0.258-0.109-0.522-0.211-0.709-0.383
		c-0.201-0.156-0.424-0.309-0.568-0.492c-0.684-0.705-1.068-1.5-1.437-2.283c-0.35-0.787-0.628-1.588-0.857-2.396
		c-0.243-0.801-0.436-1.613-0.612-2.424c-0.349-1.621-0.607-3.25-0.812-4.883C0.3,36.376,0.21,35.546,0.135,34.74
		c-0.085-0.818-0.094-1.676-0.134-2.512c-0.008-0.42,0.047-0.85,0.066-1.273c0.027-0.424,0.045-0.852,0.156-1.277
		c0.1-0.428,0.149-0.855,0.293-1.273c0.153-0.41,0.301-0.828,0.473-1.234l0.658-1.144l0.796-1.023l0.87-0.926l0.891-0.859
		l0.279,1.059c-0.531-0.154-1.068-0.32-1.593-0.6c-0.519-0.252-1.057-0.67-1.397-1.273c-0.344-0.611-0.356-1.33-0.242-1.912
		c0.105-0.588,0.312-1.113,0.531-1.607c0.438-0.996,0.99-1.895,1.356-2.836l0.611-1.398c0.188-0.471,0.305-0.973,0.465-1.463
		l0.443-1.471c0.135-0.496,0.211-1.004,0.32-1.504c0.195-1.006,0.441-1.998,0.531-3.049l0.376-3.113
		c0.145-1.062,0.44-2.219,1.289-3.084c0.895-0.838,2.142-1.02,3.206-0.951c1.087,0.072,2.121,0.328,3.137,0.609
		c1.019,0.281,2.014,0.639,2.99,0.988c0.994,0.389,1.957,0.818,2.871,1.348c0.915,0.518,1.801,1.092,2.641,1.725
		c0.847,0.617,1.654,1.289,2.434,1.986C25.999,8.082,27.45,9.597,28.739,11.238z"/>

		<path fill="#CB7E3D" d="M36.867,60.08c-2.345-0.344-3.36-1.574-4.03-2.395c-0.205-0.246-0.383-0.461-0.547-0.584
			c-0.206-0.16-0.455-0.312-0.728-0.486c-0.869-0.531-2.035-1.252-2.996-2.789c-1.582,1.188-3.117,1.602-4.932,1.336
			c-0.613-0.092-1.274-0.264-2.013-0.523c-2.581-0.904-3.579-1.256-5.246-5.018c-1.091,0.303-2.604,0.623-3.831,0.316
			c-0.455-0.115-1.109-0.053-1.893,0.018c-1.025,0.094-2.303,0.207-3.729-0.004c-0.386-0.055-0.769-0.133-1.138-0.232
			c-3.44-0.916-4.793-10.082-5.289-15.467c-0.567-6.092,1.191-8.146,3.524-10.428c-1.26-0.406-2.04-0.973-2.376-1.721
			c-0.594-1.334,0.278-3.031,1.287-4.998c1.566-3.051,2.629-7.482,3.006-12.51c0.14-1.844,0.64-3.084,1.533-3.797
			c0.887-0.713,2.133-0.92,3.924-0.654c1.312,0.191,2.957,0.644,5.174,1.42c5.97,2.098,11.027,7.803,12.182,9.176
			c0.695-0.731,2.765-2.457,6.441-1.92c0.701,0.106,1.434,0.287,2.176,0.549c5.024,1.756,5.606,4.748,5.649,5.793
			c1.546-0.047,8.105-0.146,15.192,1.014c4.996,0.803,7.723,2.035,8.33,3.775c0.586,1.666-0.934,3.332-1.937,4.434l-0.22,0.242
			c-1.613,1.793-3.786,5.912-4.588,11.609c-0.408,2.896-0.881,4.859-1.973,5.678c-0.692,0.518-1.574,0.59-2.892,0.215
			c0.966,3.117-0.356,6.512-3.933,10.092c-1.932,1.934-7.812,7.816-12.463,7.947C37.938,60.185,37.38,60.154,36.867,60.08z
			 M28.702,53.031c0.005,0,0.008,0.002,0.015,0.002c0.091,0.02,0.173,0.076,0.217,0.158c0.914,1.613,2.051,2.316,2.967,2.877
			c0.292,0.188,0.56,0.352,0.785,0.52c0.22,0.172,0.417,0.412,0.648,0.693c0.642,0.783,1.525,1.855,3.627,2.164
			c0.477,0.07,1,0.096,1.557,0.08c2.918-0.082,6.962-2.689,12.027-7.76c3.615-3.621,4.816-6.992,3.566-10.018
			c-0.049-0.117-0.023-0.252,0.062-0.344c0.088-0.094,0.222-0.121,0.34-0.084c1.461,0.514,2.312,0.539,2.922,0.082
			c0.914-0.684,1.352-2.598,1.723-5.258c0.825-5.838,3.07-10.086,4.748-11.947l0.221-0.246c0.957-1.051,2.264-2.482,1.807-3.789
			c-0.516-1.475-3.15-2.601-7.825-3.354c-0.388-0.064-0.771-0.123-1.151-0.178c-7.541-1.109-14.188-0.818-14.256-0.812
			c-0.092,0.002-0.184-0.033-0.244-0.104c-0.066-0.068-0.096-0.162-0.086-0.254c0.014-0.145,0.306-3.553-5.214-5.488
			c-0.705-0.246-1.399-0.418-2.06-0.516C30.969,8.85,29.081,11.32,29,11.426c-0.059,0.08-0.152,0.129-0.252,0.131
			c-0.102,0-0.195-0.045-0.258-0.121c-0.054-0.068-5.542-6.953-12.135-9.266c-2.178-0.762-3.783-1.203-5.053-1.393
			c-1.604-0.236-2.693-0.072-3.43,0.52C7.126,1.893,6.702,2.99,6.577,4.643c-0.391,5.185-1.447,9.585-3.063,12.73
			c-0.947,1.846-1.752,3.416-1.284,4.469C2.526,22.506,3.34,23,4.721,23.358c0.112,0.029,0.199,0.115,0.229,0.23
			c0.031,0.113-0.004,0.234-0.088,0.312c-2.495,2.42-4.297,4.166-3.73,10.293c0.812,8.744,2.612,14.316,4.813,14.904
			c0.35,0.094,0.708,0.164,1.068,0.221c1.354,0.197,2.587,0.086,3.58-0.002c0.848-0.076,1.564-0.135,2.106-0.002
			c1.184,0.301,2.738-0.09,3.765-0.387c0.159-0.051,0.324,0.031,0.386,0.18c1.622,3.75,2.4,4.021,4.983,4.926
			c0.704,0.244,1.32,0.41,1.896,0.492c1.73,0.258,3.188-0.186,4.725-1.426C28.523,53.042,28.612,53.021,28.702,53.031z"/>

<path fill="#CB7E3D" d="M15.708,49.138c0,0,0.306-2.424,0.9-6.035c0.301-1.805,0.666-3.908,1.131-6.15
	c0.236-1.123,0.494-2.283,0.78-3.451c0.292-1.172,0.614-2.353,1-3.525c0.382-1.172,0.919-2.342,1.47-3.379
	c0.543-1.065,1.08-2.117,1.595-3.131c1.036-2.035,2.002-3.928,2.829-5.555c1.658-3.248,2.76-5.412,2.76-5.412s-1,2.217-2.498,5.539
	c-0.748,1.664-1.622,3.602-2.559,5.682c-0.47,1.041-0.953,2.113-1.443,3.201c-0.516,1.104-0.951,2.168-1.279,3.326
	c-0.328,1.154-0.6,2.326-0.836,3.488c-0.238,1.164-0.442,2.316-0.629,3.434c-0.368,2.238-0.647,4.342-0.869,6.139
	c-0.447,3.613-0.65,6.018-0.65,6.018L15.708,49.138z"/>
<path fill="#CB7E3D" d="M27.954,52.857c0,0,0.35-0.494,0.965-1.361c0.602-0.877,1.452-2.148,2.418-3.705
	c0.963-1.557,2.045-3.404,3.1-5.437c1.051-2.031,2.078-4.25,2.888-6.545c0.415-1.143,0.747-2.326,1.108-3.488
	c0.365-1.156,0.664-2.303,0.987-3.41c0.622-2.219,1.161-4.307,1.608-6.096c0.893-3.582,1.405-5.992,1.405-5.992
	s-0.401,2.43-1.138,6.057c-0.365,1.809-0.811,3.918-1.33,6.17c-0.275,1.125-0.527,2.301-0.84,3.469
	c-0.309,1.172-0.584,2.371-0.961,3.564c-0.73,2.385-1.682,4.686-2.663,6.795c-0.985,2.113-2.003,4.031-2.914,5.652
	c-1.826,3.242-3.233,5.312-3.233,5.312L27.954,52.857z"/>

	<path fill="#CB7E3D" d="M19.117,30.669c-2.405-0.353-7.108-2.76-8.648-3.711c-2.707-1.672-5.981-2.664-6.015-2.674l0.372-1.232
		c0.141,0.043,3.472,1.053,6.319,2.812c2.963,1.832,7.767,3.76,8.562,3.574l0.566,1.148C20.02,30.726,19.618,30.742,19.117,30.669z"
		/>
	<path fill="#CB7E3D" d="M54.114,42.199c-2.041-1.047-6.083-2.387-9.828-3.26c-3.904-0.912-6.752-2.066-6.871-2.115l0.486-1.189
		c0.027,0.014,2.876,1.166,6.676,2.053c3.836,0.896,7.996,2.281,10.121,3.367L54.114,42.199z"/>
<path fill="#CB7E3D" d="M30.525,28.882c0,0-0.04-0.01-0.116-0.027c-0.081-0.006-0.197-0.061-0.345-0.035
	c-0.143-0.006-0.314,0.043-0.495,0.119c-0.09,0.045-0.174,0.103-0.264,0.154c-0.086,0.064-0.16,0.15-0.248,0.215
	c-0.145,0.17-0.309,0.334-0.416,0.557l-0.088,0.146l-0.08,0.215c-0.064,0.152-0.061,0.254-0.088,0.402
	c-0.023,0.295,0.066,0.611,0.25,0.875c0.199,0.254,0.5,0.41,0.799,0.486c0.344,0.053,0.607,0.014,0.883-0.066
	c0.266-0.1,0.502-0.252,0.671-0.449c0.153-0.211,0.287-0.418,0.339-0.662c0.062-0.16,0.037-0.242,0.062-0.35
	c0.016-0.098-0.012-0.215,0.001-0.33c-0.027-0.215-0.073-0.428-0.159-0.605c-0.095-0.17-0.197-0.32-0.314-0.404
	c-0.1-0.115-0.219-0.143-0.283-0.188C30.562,28.902,30.525,28.882,30.525,28.882z M30.543,28.822c0,0,0.044,0.018,0.118,0.049
	c0.075,0.035,0.197,0.062,0.324,0.15c0.143,0.072,0.297,0.182,0.475,0.33c0.162,0.162,0.334,0.371,0.455,0.646
	c0.037,0.146,0.094,0.291,0.1,0.467c0.01,0.174,0.002,0.379-0.034,0.506c-0.044,0.342-0.251,0.684-0.506,0.959
	c-0.276,0.266-0.634,0.457-1.018,0.547c-0.388,0.08-0.823-0.004-1.14-0.154c-0.682-0.355-1.109-0.969-1.279-1.664
	c-0.021-0.17-0.045-0.394-0.024-0.539l0.026-0.234c0.033-0.129,0.06-0.172,0.096-0.266c0.126-0.318,0.37-0.561,0.615-0.719
	c0.262-0.145,0.525-0.203,0.753-0.229c0.228-0.006,0.42,0.006,0.577,0.035c0.157,0.016,0.264,0.066,0.344,0.08
	C30.501,28.808,30.543,28.822,30.543,28.822z"/>

	<path fill="#FCD29A" d="M40.119,16.859c0.604-3.051-0.979-4.416-3.459-5.523c-2.176-0.965-5.409-0.611-6.976,1.979
		c-1.57,2.594-4.14,9.258-4.83,11.226c-0.689,1.969,1.388,2.455,2.736,1.168c1.723-1.644,6.286-1.086,7.195,2.1
		c0.883,3.109,2.249,2.164,2.726,0.473C37.987,26.589,39.516,19.906,40.119,16.859z"/>
	<path fill="#FCD29A" d="M22.322,8.251c-2.085-1.994-6.865-4.793-10.321-5.578c-3.242-0.736,0.125,2.174,1.733,4.086
		c1.605,1.916,2.807,4.272,2.246,7.789c-0.557,3.516,4.23,6.465,5.297,7.512c1.068,1.051,3.734-7.043,4.561-8.777
		C26.663,11.546,24.404,10.249,22.322,8.251z"/>
	<path fill="#FCD29A" d="M59.902,18.732c-2.116-0.461-10.451-1.471-13.397-1.492c-1.969-0.014-2.588,0.188-3.081,2.545
		c-0.495,2.361-1.54,6.043-1.833,8.219c-0.298,2.174,0.934,0.832,6.09,1.039c2.416,0.088,3.923-2.76,5.417-4.853
		c1.49-2.09,4.425-3.307,6.606-3.924C61.883,19.648,62.02,19.191,59.902,18.732z"/>
	<path fill="#FCD29A" d="M14.674,30.544c-3.28-1.232-7.664-4.375-9.002-4.168c-0.896,0.139-0.444,1.275,1.477,2.289
		c1.923,1.012,6.763,2.369,7.155,4.617c0.393,2.248,0.209,7.584,0.961,7.848c0.752,0.262,1.674-4.053,1.966-6.568
		C17.521,32.048,17.952,31.781,14.674,30.544z"/>
	<path fill="#FCD29A" d="M52.203,42.783c-0.716-0.844-2.171-1.193-5.313-1.619c-3.141-0.424-8.094-3.264-8.81-1.82
		c-0.507,1.019-2.321,5.176-2.945,6.476c-0.624,1.297-0.128,1.809,2.143-0.096c2.271-1.902,2.433-4.293,4.921-3.926
		c2.484,0.367,4.17,0.133,6.021,0.926C50.199,43.57,52.923,43.624,52.203,42.783z"/>
	<path fill="#FCD29A" d="M34.012,36.421c-0.667-0.867-2.112-1.229-3.138-0.832c-1.027,0.404-1.168,0.922-2.905-0.002
		c-1.587-0.848-1.293-1.375-2.003-2.238c-0.708-0.867-2.043-0.869-2.867-0.484c-1.211,0.568-2.072,1.938-0.43,4.473
		c1.644,2.533,5.816,4.34,8.375,3.545C33.598,40.091,34.677,37.289,34.012,36.421z"/>
</svg>
