<svg xmlns="http://www.w3.org/2000/svg" width="64.891" height="87.67" version="1" xmlns:xlink="http://www.w3.org/1999/xlink"><path fill="#FCC88A" d="M19.4 6.97c-4.06 1.98-4.36 5.65-3.25 9.6 1.1 3.97-.65 6.3-3.14 6.93-7.4.78-9.3.92-10.83 4-1.52 3.1.78 2.4 1.07 4.52.3 2.12-2.2 2.4-2.25 4.52-.04 2.12 2.33 1.9 2.8 3.07.44 1.17-1.34 1.6.1 3.98 1.42 2.4 7.9 3.32 9.3 3.1 1.38-.2 2.08.5 1.27 1.8-.8 1.3-.07 4.23 2.9 9.5 2.95 5.25 4.53 7.9 6.2 8.25 1.68.33 3.1 1.15.68 3.14-3.22 3.64-2.63 7.88-1.56 9.6 1.07 1.7 2.86.4 4.5 4.07 1.62 3.7 4.6 3.68 8.5 4.42 3.87.74 6.64-4.05 7.1-5.35.5-1.3 1.25-2.05 3.17-.62 2.96 2.45 7.35 2.57 9.65.65 2.3-1.92-.1-4.9 1.5-6.57 7.3-7.73 8.52-21.17 6.46-34.44-2.06-13.26-18.15-19.78-21.32-19.5-3.18.3-3.78-1.5-2.36-2.24 1.43-.76 4.4-2.35 4-8.1C43.53 5.55 38.17 1.4 30.65 1 23.1.6 19.48 3.78 19.4 6.97zm11.35.4c1.05-.56 2.35-.17 2.9.88.57 1.05.17 2.36-.88 2.92-1.05.55-2.36.15-2.9-.9-.57-1.05-.17-2.35.88-2.9z"/><defs><path id="a" d="M19.4 6.97c-4.06 1.98-4.36 5.65-3.25 9.6 1.1 3.97-.65 6.3-3.14 6.93-7.4.78-9.3.92-10.83 4-1.52 3.1.78 2.4 1.07 4.52.3 2.12-2.2 2.4-2.25 4.52-.04 2.12 2.33 1.9 2.8 3.07.44 1.17-1.34 1.6.1 3.98 1.42 2.4 7.9 3.32 9.3 3.1 1.38-.2 2.08.5 1.27 1.8-.8 1.3-.07 4.23 2.9 9.5 2.95 5.25 4.53 7.9 6.2 8.25 1.68.33 3.1 1.15.68 3.14-3.22 3.64-2.63 7.88-1.56 9.6 1.07 1.7 2.86.4 4.5 4.07 1.62 3.7 4.6 3.68 8.5 4.42 3.87.74 6.64-4.05 7.1-5.35.5-1.3 1.25-2.05 3.17-.62 2.96 2.45 7.35 2.57 9.65.65 2.3-1.92-.1-4.9 1.5-6.57 7.3-7.73 8.52-21.17 6.46-34.44-2.06-13.26-18.15-19.78-21.32-19.5-3.18.3-3.78-1.5-2.36-2.24 1.43-.76 4.4-2.35 4-8.1C43.53 5.55 38.17 1.4 30.65 1 23.1.6 19.48 3.78 19.4 6.97zm11.35.4c1.05-.56 2.35-.17 2.9.88.57 1.05.17 2.36-.88 2.92-1.05.55-2.36.15-2.9-.9-.57-1.05-.17-2.35.88-2.9z"/></defs><clipPath id="b"><use xlink:href="#a" overflow="visible"/></clipPath><path fill="#ECA45E" d="M55.45 75.86s-5.73 1.35-11.93-10.64c-6.2-12-8.63-20.92-9.5-29.68-.87-8.77.88-13.32 5.17-15.32 4.27-2 5.95 1.18 3.3 1.4-2.64.2-4.16.65-5.48 3.18-1.3 2.52-1.84 6.1-.37 15.45 1.5 9.35 4.44 16.7 8.67 24.65 4.22 7.95 10.13 10.96 10.13 10.96zM23.27 11s-2-.63-3.2-1.46c-1.22-.82-2.98.86-3.32 5.13-.34 4.26-1.2-3.85-1.2-3.85l3.06-3.08 1.3-.5L23.27 11zM14.86 48.12s1.04-1.27 1.6-1.57c.56-.3 2.16-1.98-1.5-2.2-3.66-.2-7.33-.97-8.16-1.7-.83-.72.56-2.3-.4-3.67-.95-1.37-2.65-1.24-2.84-2.42-.18-1.17 1.5-1.85 1.47-3.5-.04-1.63-.88-2.3-2.2-2.87.72 2.27.6 2.92-.5 4-1.1 1.06-2.66 2.44-.85 3.86 1.8 1.42 2.28 2.42 2.28 2.42s-.97 2.14 0 3.34c.98 1.2 5.26 3.42 7.8 3.07 2.5-.35 3.73.05 3.3 1.22zM24.05 66.34s1.28.15 2.27-.04c.97-.2 3.75.5.96 3.22-2.8 2.73-4.3 5.53-2.97 7.24 1.33 1.7 2.67 1.4 3.58 2.66.92 1.26.46 5.4 4.52 7.4 4.05 2-7.8-1.07-8-1.3-.2-.23-5.62-6.66-5.93-7.25-.3-.58.14-4.9-.03-5.37-.18-.5 5.6-6.56 5.6-6.56zM49.9 83.3s-2.4-1.67-3.68-3.25c-1.3-1.6-2.26-1.74-2.96.9-.7 2.64 2.74 2.03 2.74 2.03l3.9.32zM17.87 10.5s-1.7 1.7 1.47 7.8c2.14 4.12-5.08 6.54-8.46 5.35-3.37-1.2.56-6.94.56-6.94l1.16-5.15 5.27-1.04z" clip-path="url(#b)"/><path fill="#CB7E3D" d="M61.05 69.66c1.02-2.14 1.78-4.4 2.28-6.72.5-2.33.82-4.68.96-7.05.1-2.37.1-4.75-.04-7.12-.17-2.37-.4-4.72-.78-7.06-.42-2.3-1.05-4.6-2.3-6.62-1.17-2.02-2.6-3.9-4.35-5.48-1.72-1.6-3.62-2.98-5.64-4.17-2.03-1.18-4.18-2.18-6.4-2.83l-.83-.22c-.27-.06-.52-.1-.78-.15-.25-.07-.58-.03-.87-.05-.03 0-.28.02-.4.02-.17.02-.33 0-.5 0-.64 0-1.33-.08-2-.47-.34-.2-.7-.54-.83-1.05-.14-.5.07-1.06.36-1.38.14-.16.38-.35.48-.4l.1-.06.13-.08.18-.1c.26-.14.5-.3.7-.45.45-.3.87-.65 1.2-1.07.37-.37.57-.9.84-1.34l.24-.76c.04-.13.1-.26.13-.38l.05-.4c.07-.53.2-1.02.16-1.64v-.9l-.02-.44c0-.02-.04-.24-.06-.35-.13-1.08-.45-2.14-1-3.1-1.06-1.9-2.8-3.38-4.83-4.3-1-.5-2.08-.84-3.17-1.1-1.12-.28-2.15-.4-3.38-.48-2.23-.1-4.57.08-6.58.86-2 .75-3.66 2.34-3.68 4.17 0 .35-.2.7-.53.9l-.07.02c-.3.18-.64.34-.93.56-.3.18-.55.42-.8.65-.25.25-.45.5-.65.8-.17.27-.32.57-.45.88-.1.33-.2.67-.27 1-.04.36-.08.7-.1 1.07 0 .73.1 1.5.24 2.22.07.35.17.74.28 1.15l.27 1.32c.12.44.07.94.1 1.4.05.48-.1 1-.16 1.47-.1.48-.34.96-.53 1.42-.3.43-.54.9-.96 1.23-.18.17-.37.35-.57.5l-.66.4c-.43.3-.93.38-1.4.56-.02 0-.05.02-.08.02h-.08c-1.44.16-2.9.3-4.3.48-1.4.22-2.85.4-3.88.92-.27.13-.46.32-.7.47-.2.17-.33.37-.53.55-.17.28-.36.62-.54.92-.1.16-.27.56-.34.78-.1.26-.12.5-.1.56 0 .05.02.1.27.35.23.24.6.6.87 1.08.13.2.26.55.32.8l.04.26c.05.22.03.3.05.44.02.5-.1 1.1-.35 1.58-.25.47-.57.8-.84 1.1-.56.55-.93.94-1.04 1.3-.13.52-.07.85.15 1.08.26.3.9.48 1.74 1.06.1.1.2.17.33.3.12.14.3.4.3.43l.06.13.06.1v.1l.04.13c.04.16.06.33.08.5-.04.7-.34 1.16-.42 1.4-.07.13-.06.2-.1.3 0 .1 0 .2-.02.3.06.2.02.34.23.73.35 1 1.6 1.6 2.87 2.1 1.28.46 2.67.8 4.04.97.36.04.7.08 1.04.1.16 0 .26 0 .43 0l.58-.03c.45-.02 1 0 1.6.43.27.2.48.62.52.94.05.35 0 .66-.1.94-.06.17-.1.24-.14.32l-.13.24-.03.06-.04.07v.02l-.04.08-.07.15c-.07.08-.04.26-.07.38-.02.15-.05.28-.02.45.03.6.18 1.28.4 1.94.38 1.32 1 2.62 1.6 3.9.68 1.3 1.36 2.56 2.07 3.83.73 1.26 1.43 2.54 2.23 3.7.4.6.8 1.17 1.28 1.63.12.14.24.23.35.3.1.08.2.2.33.26l.5.2h.04l.02.02c-.03 0 .08.03-.06-.02l.07.02.14.03.28.08c.38.1.76.24 1.14.5.2.13.38.3.53.54.14.23.2.55.16.8-.07.55-.35.9-.6 1.22-.27.3-.57.56-.86.8l.05-.05c-.35.46-.72.9-1.05 1.38-.25.52-.58 1-.76 1.54-.42 1.07-.6 2.22-.57 3.38.06.56.1 1.16.28 1.67l.12.4.2.4c.06.12.13.32.18.37l.25.3c.35.38.87.57 1.46.8.3.13.58.3.85.47.24.2.52.38.7.64.2.26.42.5.6.77l.4.82c.3.57.54 1.05.85 1.56.67.95 1.63 1.64 2.74 2.06 1.1.42 2.3.6 3.48.83 1.18.2 2.36.53 3.5.13 1.1-.36 2.1-1.1 2.9-2 .8-.87 1.47-1.88 1.96-2.96.23-.54.46-1.18 1.04-1.47.6-.3 1.25.04 1.75.33.5.32 1 .67 1.5 1 .5.33 1.05.57 1.6.8 1.14.37 2.34.58 3.54.5 1.2-.14 2.4-.4 3.36-1.18.48-.35.87-.85 1.05-1.42.2-.57.2-1.18.15-1.78-.04-.6-.13-1.2-.12-1.8 0-.6.16-1.23.6-1.66 1.6-1.74 2.9-3.76 3.92-5.9zm-4.5 7.56c-.02.6.07 1.2.12 1.8.04.6.05 1.22-.14 1.8-.18.57-.56 1.08-1.06 1.43-.94.77-2.17 1.06-3.36 1.2-1.2.1-2.4-.1-3.55-.48-.55-.23-1.12-.47-1.63-.78-.5-.36-1-.7-1.5-1.03-.5-.27-1.1-.56-1.65-.3-.52.28-.74.87-.96 1.42-.47 1.1-1.14 2.14-1.95 3.04-.8.92-1.8 1.7-2.96 2.1-.6.18-1.23.28-1.85.2-.62-.05-1.2-.18-1.8-.27-1.18-.2-2.38-.38-3.54-.78-1.15-.42-2.23-1.14-2.98-2.15-.32-.52-.64-1.1-.9-1.6l-.45-.78c-.16-.24-.35-.44-.52-.66-.17-.2-.42-.35-.62-.54-.24-.15-.48-.28-.76-.4-.5-.18-1.2-.4-1.67-.9l-.34-.38c-.13-.2-.15-.28-.24-.43l-.2-.4-.15-.46c-.23-.64-.3-1.26-.37-1.88-.08-1.25.1-2.52.52-3.7.2-.6.53-1.14.8-1.7.34-.54.72-1.04 1.1-1.55 0 0 0-.02.02-.03h.02c.52-.44 1.05-1.02 1.1-1.43.1-.27-.5-.63-1.15-.77l-.24-.06-.12-.03h-.06l-.1-.04-.04-.02-.52-.18c-.34-.2-.8-.5-1.05-.76-.58-.55-1.03-1.15-1.47-1.76-.87-1.2-1.6-2.48-2.35-3.74-.75-1.24-1.48-2.53-2.18-3.8-.67-1.34-1.35-2.66-1.83-4.12-.24-.72-.44-1.47-.5-2.3-.03-.2-.02-.43 0-.66.05-.23.02-.44.13-.7l.14-.34.1-.18v-.04l.02-.03c0-.02-.06.1-.03.05l.02-.07.12-.24c.05-.08.1-.16.07-.17 0-.04 0-.06.03-.1 0-.02-.02-.02 0-.04 0-.04-.02 0 0 0s0 .02 0 .02-.22-.08-.5-.04l-.5.04c-.2.02-.45.02-.65.02-.4 0-.78-.05-1.16-.08-1.5-.17-2.98-.47-4.45-.96-.73-.26-1.46-.56-2.17-1l-.53-.36-.5-.46c-.15-.17-.3-.38-.45-.57l-.02-.03-.06-.1L3 43.9l-.05-.13-.12-.24c-.16-.25-.34-.82-.43-1.35 0-.26 0-.53.03-.8.06-.23.13-.53.2-.7.2-.45.26-.65.27-.68-.02 0-.03-.02-.02-.02v-.02c.1.2.03.04.05.1l-.07-.14c-.06-.13-.03 0-.02 0 0 0-.05-.05-.07-.07-.34-.28-1.2-.48-1.97-1.23-.86-.8-.93-2.15-.66-3 .3-1.07 1.06-1.7 1.5-2.18.48-.5.62-.76.58-1.16 0-.03 0-.15 0-.1l-.06-.27c-.05-.1-.04-.1-.1-.2-.1-.16-.25-.32-.54-.6-.26-.23-.76-.76-.87-1.45-.12-.67.03-1.16.16-1.6.16-.45.28-.73.54-1.2.18-.33.35-.63.56-.96.3-.37.6-.76.94-1.07.36-.25.73-.56 1.1-.75 1.6-.8 3.1-.9 4.58-1.16 1.47-.2 2.92-.35 4.37-.5l-.16.03c.3-.14.64-.18.9-.37l.4-.24.33-.3c.26-.18.36-.5.56-.73.1-.28.26-.55.33-.87.02-.33.16-.63.1-1-.02-.34.03-.68-.06-1.04l-.22-1.1c-.1-.4-.2-.8-.3-1.27-.17-.88-.28-1.76-.26-2.7 0-.45.05-.92.13-1.4.08-.46.2-.92.38-1.38.18-.45.4-.9.67-1.3.28-.4.58-.8.92-1.12.35-.34.72-.66 1.1-.9.4-.3.8-.5 1.2-.7l-.6.92c.05-.74.22-1.47.52-2.14.32-.63.7-1.24 1.2-1.72.97-1 2.16-1.7 3.37-2.15C25.88.03 28.38-.1 30.9.05c1.14.1 2.46.26 3.65.57 1.2.3 2.4.72 3.52 1.3 2.25 1.13 4.27 2.9 5.47 5.18.6 1.14.96 2.4 1.1 3.68 0 .18.03.26.04.53v1.35c.02.56-.13 1.24-.24 1.9l-.08.47c-.05.16-.1.3-.16.46l-.34.9c-.33.58-.6 1.2-1.1 1.65-.4.52-.93.93-1.46 1.28-.5.37-1.22.65-1.38.85-.1.12-.12.2-.1.26 0 .1.1.2.26.32.34.22.87.33 1.4.35.13 0 .27 0 .4 0 .17 0 .2 0 .48 0 .3.02.58 0 .92.07.32.06.66.1.96.2l.9.25c2.3.74 4.48 1.82 6.53 3.08 2.04 1.27 3.95 2.75 5.67 4.43 1.74 1.67 3.18 3.64 4.34 5.74 1.22 2.1 1.8 4.47 2.17 6.83.34 2.35.55 4.73.67 7.1.1 2.38.08 4.76-.07 7.13-.2 2.37-.5 4.73-1.03 7.05-.5 2.33-1.3 4.6-2.3 6.73-1.05 2.14-2.36 4.15-4 5.88-.4.44-.56 1.06-.56 1.66zM22.34 79.17c-1.26-2-1.6-6.46 1.65-10.12.93-.77 1.1-1.24 1.13-1.44.02-.1-.02-.2-.1-.32-.13-.15-.5-.44-1.53-.65-.74-.15-1.46-.66-2.26-1.63-1.14-1.38-2.48-3.7-4.24-6.83-2.92-5.2-3.84-8.35-2.88-9.92.28-.44.36-.8.2-.98-.1-.14-.45-.26-1.06-.17-1.6.24-8.22-.76-9.72-3.3-1-1.66-.6-2.55-.28-3.2.17-.37.25-.57.14-.84-.12-.3-.53-.52-.98-.74-.45-.24-.97-.5-1.34-.95-.35-.4-.5-.9-.5-1.54.02-1.18.7-1.87 1.3-2.47.6-.6 1.08-1.1.96-2-.08-.56-.42-.98-.8-1.33-.12-.13-.26-.26-.37-.4-.6-.72-.56-1.6.13-3 1.6-3.23 3.72-3.46 10.74-4.2l.37-.03c1.16-.3 2.05-.93 2.6-1.86.67-1.17.76-2.74.25-4.55-1.36-4.88-.3-8.14 3.25-10 .1-1.3.72-2.5 1.8-3.5C22.9 1.3 26.4.36 30.68.6c4.8.24 8.95 2.05 11.37 4.97 1.36 1.64 2.15 3.6 2.3 5.7.4 6-2.73 7.67-4.24 8.47-.3.15-.47.34-.5.55-.03.12 0 .25.1.38.15.16.74.7 2.52.53 2.53-.2 11.64 3.35 17.2 10.04 2.48 3.02 4.03 6.32 4.57 9.82 1.38 8.93 2.37 25.32-6.6 34.78-.58.63-.5 1.52-.38 2.55.13 1.34.3 2.86-1.14 4.05-2.53 2.1-7.2 1.82-10.16-.64-.73-.54-1.32-.77-1.7-.65-.32.1-.58.44-.82 1.1-.64 1.76-3.63 6.37-7.6 5.62-.5-.1-1-.18-1.47-.26-2.53-.42-4.73-.8-6.27-2.66-.4-.5-.75-1.05-1.04-1.73-.3-.65-.6-1.17-.94-1.58-.6-.72-1.2-.95-1.78-1.17-.53-.2-1.07-.42-1.53-.97-.08-.1-.16-.2-.23-.3zm5.23 3.7c.27.6.57 1.1.93 1.54 1.35 1.64 3.3 1.97 5.77 2.4.48.08.98.16 1.5.26 3.7.7 6.3-4.12 6.65-5.1.2-.57.58-1.37 1.36-1.6.65-.2 1.45.06 2.45.8 2.7 2.23 6.88 2.53 9.12.66 1.1-.9.97-2.1.84-3.34-.12-1.14-.23-2.3.6-3.2 8.73-9.2 7.74-25.3 6.37-34.1-.52-3.35-2-6.5-4.4-9.4-5.67-6.86-14.47-9.92-16.48-9.74-2.06.18-2.9-.45-3.22-.84-.27-.3-.37-.7-.3-1.07.1-.45.42-.85.93-1.12 1.36-.7 4.18-2.2 3.8-7.68-.13-1.94-.84-3.7-2.1-5.22-2.28-2.74-6.2-4.45-10.79-4.7-4.05-.2-7.33.65-9.23 2.4-1 .92-1.53 2.02-1.56 3.18 0 .16-.08.3-.22.36-3.3 1.62-4.3 4.6-3.04 9.13.57 2.03.45 3.82-.34 5.18-.64 1.12-1.74 1.92-3.15 2.26l-.42.06c-7.02.73-8.7.9-10.08 3.73-.75 1.5-.44 1.9-.25 2.1.1.13.2.23.32.34.15.14.3.28.43.45.34.4.53.83.6 1.36.18 1.3-.54 2.04-1.18 2.68-.57.57-1.05 1.06-1.06 1.9 0 .93.66 1.37 1.4 1.74.56.28 1.16.63 1.37 1.2.24.6.03 1.06-.16 1.47-.26.56-.52 1.14.25 2.43 1.33 2.2 7.63 3.1 8.9 2.9.82-.1 1.47.05 1.82.47.23.27.5.88-.14 1.94-.53.85-.46 3.12 2.9 9.07 2.8 4.98 4.5 7.77 5.93 8.06 1.62.32 2.38.98 2.3 1.85-.06.6-.54 1.27-1.4 1.97-3.2 3.6-2.4 7.68-1.5 9.1.33.55.77.7 1.33.93.6.23 1.38.53 2.12 1.42.38.47.73 1.05 1.05 1.78zM33.53 8.15c-.06-.07-.12-.2-.27-.3-.13-.13-.33-.23-.55-.3-.23-.08-.5-.1-.76-.08-.13.03-.28.02-.4.06-.12.05-.22.03-.4.14-.3.1-.5.3-.74.53-.2.24-.35.55-.42.9-.04.35-.06.64.08 1.1.13.3.4.66.73.85.34.17.74.22 1.1.13.17-.05.3-.07.46-.17l.25-.14.17-.13c.25-.17.4-.4.6-.6.06-.12.15-.23.2-.34.06-.13.1-.24.15-.36.07-.23.1-.45.06-.62 0-.2-.08-.32-.1-.4-.04-.1-.06-.15-.06-.15s-.03-.04-.1-.12zm.23.22c.03.1.12.22.16.4.07.2.12.43.15.7.02.28 0 .62-.13.97-.15.33-.4.67-.77.9-.1.04-.15.1-.3.15l-.28.06c-.18.05-.47.07-.68.07-.44-.04-.85-.17-1.25-.36-.38-.23-.72-.5-1.02-.9-.23-.33-.43-.87-.4-1.35.04-.5.2-.96.48-1.35.3-.36.67-.68 1.08-.8.16-.07.4-.1.62-.14.22-.02.4.02.6.05.35.1.64.26.86.44.22.18.38.36.5.52.12.14.17.28.23.36.06.1.1.13.1.13s.02.06.06.14zM24.07 11.46s-.38-.28-.9-.76c-.52-.5-1.2-1.14-1.72-1.88-.26-.37-.45-.77-.65-1.13-.2-.36-.4-.67-.56-.95-.07-.15-.15-.3-.23-.4-.06-.13-.1-.24-.15-.34-.1-.17-.17-.3-.17-.3h-.1s-.07.13-.12.35c-.08.23-.1.55-.07.95.04.4.17.85.4 1.27.27.4.63.78 1 1.13.7.7 1.5 1.26 2.14 1.6.63.37 1.07.55 1.07.55l.07-.1z"/><g fill="#FCD29A" opacity=".5"><path d="M55.17 78.55c-.07 1.2.04 2.64-1.15 3.1-1.2.47-2.08.36-3.46.1-1.4-.26.9-.97 1.56-1.58.68-.6 3.16-3.53 3.05-1.62zM45.6 44.26c-3.4-13.57-1-21.57 4.65-17.5 5.65 4.05 8.44 5.4 10.68 11.18 1.8 4.6 2.08 10.2 1.28 17.43-1.96 18.05-13.22 2.46-16.6-11.1zM28.97 3.03c1.77-.27 7.44.2 9.97 3.16 2.02 2.13 3.36 4.63 2.7 8.2-.4 2.13-4.7 5.15-7.2 4.5-2.5-.68-.6-5.9 1.4-6.4 1.98-.5 2.38-3.7.77-5.07-.22-.2-.37-.4-.46-.6-1.07-1.08-3.28-2.8-6.64-2.8-1.05-.02-2.3-.73-.53-1zM32.45 32.7c-.34 7.7 4.3 21.4 6.66 27.13 2.57 6.15 7.52 11.4 2.22 7.92-5.3-3.5-9.18-3.1-11.12-5.5-1.94-2.4-7.45-14.66-6.1-18.6 1.34-3.92 3.73-4 4.8-8.36 1.06-4.4 3.88-10.33 3.55-2.6zM14.4 26.2c-.3 1.44-.82 3-4.47 2.85-3.64-.14-4.3.97-4.85-.08-.56-1.03 1.16-2.2 4-2.62 2.84-.43 5.55-1.42 5.3-.16zM41.22 82.64c-.72 1.3-2.76 3.23-4.1 3.55-1.32.3-3.1.26-2.52-.54.57-.8 2.03-.16 3.3-1.25 1.27-1.1 4.65-4.13 3.32-1.76z"/></g><path fill="#CD7F3D" d="M48.83 70.98c.07.1.14.18.22.26 4.7 5.5 7.6 5.44 7.72 5.43l-.04-1.1c-.03 0-2.56-.03-6.85-5.04-.07-.1-.14-.18-.22-.26-5.16-6.23-14.12-24.06-13.3-40.52.25-4.64 1.87-6.97 5.26-7.56l-.2-1.1c-5.15.9-5.98 5.33-6.16 8.6-.83 16.76 8.3 34.92 13.57 41.28z"/></svg>